<mxfile host="app.diagrams.net" modified="2020-08-10T17:22:13.632Z" agent="5.0 (Macintosh; Intel Mac OS X 10_15_4) AppleWebKit/537.36 (KHTML, like Gecko) Chrome/84.0.4147.89 Safari/537.36" etag="MYRCz8f4bB5YHAxtYqmF" version="13.6.2" type="github" pages="2">
  <diagram id="kYoGxLqW3-fYPqKS93gB" name="My Answer">
    <mxGraphModel dx="1771" dy="1886" grid="0" gridSize="10" guides="1" tooltips="1" connect="1" arrows="1" fold="1" page="0" pageScale="1" pageWidth="1654" pageHeight="1169" math="0" shadow="0">
      <root>
        <mxCell id="0" />
        <mxCell id="1" parent="0" />
        <mxCell id="MhHyRA77rNkdGOdwK2jB-7" value="" style="edgeStyle=orthogonalEdgeStyle;rounded=0;orthogonalLoop=1;jettySize=auto;html=1;" edge="1" parent="1" source="MhHyRA77rNkdGOdwK2jB-1" target="MhHyRA77rNkdGOdwK2jB-5">
          <mxGeometry relative="1" as="geometry" />
        </mxCell>
        <mxCell id="MhHyRA77rNkdGOdwK2jB-1" value="Loan Applied" style="shape=mxgraph.bpmn.shape;html=1;verticalLabelPosition=bottom;labelBackgroundColor=#ffffff;verticalAlign=top;align=center;perimeter=ellipsePerimeter;outlineConnect=0;outline=standard;symbol=general;" vertex="1" parent="1">
          <mxGeometry x="-201" y="201" width="50" height="50" as="geometry" />
        </mxCell>
        <mxCell id="MhHyRA77rNkdGOdwK2jB-12" value="" style="edgeStyle=orthogonalEdgeStyle;rounded=0;orthogonalLoop=1;jettySize=auto;html=1;" edge="1" parent="1" source="MhHyRA77rNkdGOdwK2jB-2" target="MhHyRA77rNkdGOdwK2jB-11">
          <mxGeometry relative="1" as="geometry" />
        </mxCell>
        <mxCell id="MhHyRA77rNkdGOdwK2jB-2" value="Credit History Check" style="shape=ext;rounded=1;html=1;whiteSpace=wrap;" vertex="1" parent="1">
          <mxGeometry x="-48" y="87" width="120" height="80" as="geometry" />
        </mxCell>
        <mxCell id="MhHyRA77rNkdGOdwK2jB-9" style="edgeStyle=orthogonalEdgeStyle;rounded=0;orthogonalLoop=1;jettySize=auto;html=1;entryX=0.008;entryY=0.638;entryDx=0;entryDy=0;entryPerimeter=0;" edge="1" parent="1" source="MhHyRA77rNkdGOdwK2jB-5" target="MhHyRA77rNkdGOdwK2jB-8">
          <mxGeometry relative="1" as="geometry">
            <Array as="points">
              <mxPoint x="-102" y="311" />
            </Array>
          </mxGeometry>
        </mxCell>
        <mxCell id="MhHyRA77rNkdGOdwK2jB-10" style="edgeStyle=orthogonalEdgeStyle;rounded=0;orthogonalLoop=1;jettySize=auto;html=1;entryX=0;entryY=0.388;entryDx=0;entryDy=0;entryPerimeter=0;" edge="1" parent="1" source="MhHyRA77rNkdGOdwK2jB-5" target="MhHyRA77rNkdGOdwK2jB-2">
          <mxGeometry relative="1" as="geometry">
            <Array as="points">
              <mxPoint x="-102" y="118" />
            </Array>
          </mxGeometry>
        </mxCell>
        <mxCell id="MhHyRA77rNkdGOdwK2jB-5" value="" style="shape=mxgraph.bpmn.shape;html=1;verticalLabelPosition=bottom;labelBackgroundColor=#ffffff;verticalAlign=top;align=center;perimeter=rhombusPerimeter;background=gateway;outlineConnect=0;outline=none;symbol=parallelGw;" vertex="1" parent="1">
          <mxGeometry x="-127" y="201" width="50" height="50" as="geometry" />
        </mxCell>
        <mxCell id="MhHyRA77rNkdGOdwK2jB-14" value="" style="edgeStyle=orthogonalEdgeStyle;rounded=0;orthogonalLoop=1;jettySize=auto;html=1;" edge="1" parent="1" source="MhHyRA77rNkdGOdwK2jB-8" target="MhHyRA77rNkdGOdwK2jB-13">
          <mxGeometry relative="1" as="geometry" />
        </mxCell>
        <mxCell id="MhHyRA77rNkdGOdwK2jB-8" value="Loan Risk Assessment" style="shape=ext;rounded=1;html=1;whiteSpace=wrap;" vertex="1" parent="1">
          <mxGeometry x="-48" y="260" width="120" height="80" as="geometry" />
        </mxCell>
        <mxCell id="MhHyRA77rNkdGOdwK2jB-17" style="edgeStyle=orthogonalEdgeStyle;rounded=0;orthogonalLoop=1;jettySize=auto;html=1;entryX=0;entryY=0.5;entryDx=0;entryDy=0;" edge="1" parent="1" source="MhHyRA77rNkdGOdwK2jB-11" target="MhHyRA77rNkdGOdwK2jB-16">
          <mxGeometry relative="1" as="geometry">
            <Array as="points">
              <mxPoint x="140" y="25" />
            </Array>
          </mxGeometry>
        </mxCell>
        <mxCell id="MhHyRA77rNkdGOdwK2jB-18" value="Failed" style="edgeLabel;html=1;align=center;verticalAlign=middle;resizable=0;points=[];" vertex="1" connectable="0" parent="MhHyRA77rNkdGOdwK2jB-17">
          <mxGeometry x="0.3478" y="-1" relative="1" as="geometry">
            <mxPoint as="offset" />
          </mxGeometry>
        </mxCell>
        <mxCell id="MhHyRA77rNkdGOdwK2jB-19" style="edgeStyle=orthogonalEdgeStyle;rounded=0;orthogonalLoop=1;jettySize=auto;html=1;entryX=0.5;entryY=1;entryDx=0;entryDy=0;" edge="1" parent="1" source="MhHyRA77rNkdGOdwK2jB-11" target="MhHyRA77rNkdGOdwK2jB-26">
          <mxGeometry relative="1" as="geometry">
            <mxPoint x="460" y="158" as="targetPoint" />
            <Array as="points">
              <mxPoint x="140" y="213" />
            </Array>
          </mxGeometry>
        </mxCell>
        <mxCell id="MhHyRA77rNkdGOdwK2jB-20" value="Passed" style="edgeLabel;html=1;align=center;verticalAlign=middle;resizable=0;points=[];" vertex="1" connectable="0" parent="MhHyRA77rNkdGOdwK2jB-19">
          <mxGeometry x="0.2657" y="-2" relative="1" as="geometry">
            <mxPoint as="offset" />
          </mxGeometry>
        </mxCell>
        <mxCell id="MhHyRA77rNkdGOdwK2jB-11" value="" style="shape=mxgraph.bpmn.shape;html=1;verticalLabelPosition=bottom;labelBackgroundColor=#ffffff;verticalAlign=top;align=center;perimeter=rhombusPerimeter;background=gateway;outlineConnect=0;outline=none;symbol=exclusiveGw;" vertex="1" parent="1">
          <mxGeometry x="115" y="102" width="50" height="50" as="geometry" />
        </mxCell>
        <mxCell id="MhHyRA77rNkdGOdwK2jB-22" style="edgeStyle=orthogonalEdgeStyle;rounded=0;orthogonalLoop=1;jettySize=auto;html=1;entryX=0;entryY=0.5;entryDx=0;entryDy=0;" edge="1" parent="1" source="MhHyRA77rNkdGOdwK2jB-13" target="MhHyRA77rNkdGOdwK2jB-21">
          <mxGeometry relative="1" as="geometry">
            <Array as="points">
              <mxPoint x="140" y="449" />
            </Array>
          </mxGeometry>
        </mxCell>
        <mxCell id="MhHyRA77rNkdGOdwK2jB-23" value="Failed" style="edgeLabel;html=1;align=center;verticalAlign=middle;resizable=0;points=[];" vertex="1" connectable="0" parent="MhHyRA77rNkdGOdwK2jB-22">
          <mxGeometry x="0.0386" y="16" relative="1" as="geometry">
            <mxPoint as="offset" />
          </mxGeometry>
        </mxCell>
        <mxCell id="MhHyRA77rNkdGOdwK2jB-13" value="" style="shape=mxgraph.bpmn.shape;html=1;verticalLabelPosition=bottom;labelBackgroundColor=#ffffff;verticalAlign=top;align=center;perimeter=rhombusPerimeter;background=gateway;outlineConnect=0;outline=none;symbol=exclusiveGw;" vertex="1" parent="1">
          <mxGeometry x="115" y="275" width="50" height="50" as="geometry" />
        </mxCell>
        <mxCell id="MhHyRA77rNkdGOdwK2jB-36" value="" style="edgeStyle=orthogonalEdgeStyle;rounded=0;orthogonalLoop=1;jettySize=auto;html=1;" edge="1" parent="1" source="MhHyRA77rNkdGOdwK2jB-15" target="MhHyRA77rNkdGOdwK2jB-35">
          <mxGeometry relative="1" as="geometry" />
        </mxCell>
        <mxCell id="MhHyRA77rNkdGOdwK2jB-15" value="Eligibility" style="shape=ext;rounded=1;html=1;whiteSpace=wrap;" vertex="1" parent="1">
          <mxGeometry x="550" y="217" width="120" height="80" as="geometry" />
        </mxCell>
        <mxCell id="MhHyRA77rNkdGOdwK2jB-16" value="Load Denied" style="shape=mxgraph.bpmn.shape;html=1;verticalLabelPosition=bottom;labelBackgroundColor=#ffffff;verticalAlign=top;align=center;perimeter=ellipsePerimeter;outlineConnect=0;outline=end;symbol=general;" vertex="1" parent="1">
          <mxGeometry x="247" width="50" height="50" as="geometry" />
        </mxCell>
        <mxCell id="MhHyRA77rNkdGOdwK2jB-21" value="Load Denied" style="shape=mxgraph.bpmn.shape;html=1;verticalLabelPosition=bottom;labelBackgroundColor=#ffffff;verticalAlign=top;align=center;perimeter=ellipsePerimeter;outlineConnect=0;outline=end;symbol=general;" vertex="1" parent="1">
          <mxGeometry x="249" y="424" width="50" height="50" as="geometry" />
        </mxCell>
        <mxCell id="MhHyRA77rNkdGOdwK2jB-29" value="" style="edgeStyle=orthogonalEdgeStyle;rounded=0;orthogonalLoop=1;jettySize=auto;html=1;" edge="1" parent="1" source="MhHyRA77rNkdGOdwK2jB-26" target="MhHyRA77rNkdGOdwK2jB-15">
          <mxGeometry relative="1" as="geometry" />
        </mxCell>
        <mxCell id="MhHyRA77rNkdGOdwK2jB-26" value="" style="shape=mxgraph.bpmn.shape;html=1;verticalLabelPosition=bottom;labelBackgroundColor=#ffffff;verticalAlign=top;align=center;perimeter=rhombusPerimeter;background=gateway;outlineConnect=0;outline=none;symbol=parallelGw;" vertex="1" parent="1">
          <mxGeometry x="462" y="232" width="50" height="50" as="geometry" />
        </mxCell>
        <mxCell id="MhHyRA77rNkdGOdwK2jB-27" style="edgeStyle=orthogonalEdgeStyle;rounded=0;orthogonalLoop=1;jettySize=auto;html=1;entryX=0.5;entryY=1;entryDx=0;entryDy=0;" edge="1" parent="1" source="MhHyRA77rNkdGOdwK2jB-13" target="MhHyRA77rNkdGOdwK2jB-26">
          <mxGeometry relative="1" as="geometry">
            <mxPoint x="140" y="275" as="sourcePoint" />
            <mxPoint x="476" y="93.03999999999996" as="targetPoint" />
            <Array as="points" />
          </mxGeometry>
        </mxCell>
        <mxCell id="MhHyRA77rNkdGOdwK2jB-28" value="Passed" style="edgeLabel;html=1;align=center;verticalAlign=middle;resizable=0;points=[];" vertex="1" connectable="0" parent="MhHyRA77rNkdGOdwK2jB-27">
          <mxGeometry x="0.0317" y="-4" relative="1" as="geometry">
            <mxPoint y="-6" as="offset" />
          </mxGeometry>
        </mxCell>
        <mxCell id="MhHyRA77rNkdGOdwK2jB-30" value="Load Rejected&lt;br&gt;" style="shape=mxgraph.bpmn.shape;html=1;verticalLabelPosition=bottom;labelBackgroundColor=#ffffff;verticalAlign=top;align=center;perimeter=ellipsePerimeter;outlineConnect=0;outline=end;symbol=general;" vertex="1" parent="1">
          <mxGeometry x="944" y="290" width="50" height="50" as="geometry" />
        </mxCell>
        <mxCell id="MhHyRA77rNkdGOdwK2jB-32" value="Home Insurance Quota Sent" style="shape=mxgraph.bpmn.shape;html=1;verticalLabelPosition=bottom;labelBackgroundColor=#ffffff;verticalAlign=top;align=center;perimeter=ellipsePerimeter;outlineConnect=0;outline=end;symbol=general;" vertex="1" parent="1">
          <mxGeometry x="1157" y="95" width="48" height="50" as="geometry" />
        </mxCell>
        <mxCell id="MhHyRA77rNkdGOdwK2jB-37" value="Passed" style="edgeStyle=orthogonalEdgeStyle;rounded=0;orthogonalLoop=1;jettySize=auto;html=1;entryX=0.017;entryY=0.425;entryDx=0;entryDy=0;entryPerimeter=0;" edge="1" parent="1" source="MhHyRA77rNkdGOdwK2jB-35" target="MhHyRA77rNkdGOdwK2jB-40">
          <mxGeometry relative="1" as="geometry">
            <Array as="points">
              <mxPoint x="736" y="177" />
            </Array>
          </mxGeometry>
        </mxCell>
        <mxCell id="MhHyRA77rNkdGOdwK2jB-38" style="edgeStyle=orthogonalEdgeStyle;rounded=0;orthogonalLoop=1;jettySize=auto;html=1;entryX=0.5;entryY=1;entryDx=0;entryDy=0;" edge="1" parent="1" source="MhHyRA77rNkdGOdwK2jB-35" target="MhHyRA77rNkdGOdwK2jB-49">
          <mxGeometry relative="1" as="geometry">
            <Array as="points">
              <mxPoint x="736" y="352" />
              <mxPoint x="829" y="352" />
            </Array>
          </mxGeometry>
        </mxCell>
        <mxCell id="MhHyRA77rNkdGOdwK2jB-39" value="Failed" style="edgeLabel;html=1;align=center;verticalAlign=middle;resizable=0;points=[];" vertex="1" connectable="0" parent="MhHyRA77rNkdGOdwK2jB-38">
          <mxGeometry x="0.2741" y="-3" relative="1" as="geometry">
            <mxPoint as="offset" />
          </mxGeometry>
        </mxCell>
        <mxCell id="MhHyRA77rNkdGOdwK2jB-35" value="" style="shape=mxgraph.bpmn.shape;html=1;verticalLabelPosition=bottom;labelBackgroundColor=#ffffff;verticalAlign=top;align=center;perimeter=rhombusPerimeter;background=gateway;outlineConnect=0;outline=none;symbol=exclusiveGw;" vertex="1" parent="1">
          <mxGeometry x="711" y="225" width="50" height="50" as="geometry" />
        </mxCell>
        <mxCell id="MhHyRA77rNkdGOdwK2jB-42" value="" style="edgeStyle=orthogonalEdgeStyle;rounded=0;orthogonalLoop=1;jettySize=auto;html=1;" edge="1" parent="1" source="MhHyRA77rNkdGOdwK2jB-40" target="MhHyRA77rNkdGOdwK2jB-41">
          <mxGeometry relative="1" as="geometry" />
        </mxCell>
        <mxCell id="MhHyRA77rNkdGOdwK2jB-40" value="Load Approved" style="shape=ext;rounded=1;html=1;whiteSpace=wrap;" vertex="1" parent="1">
          <mxGeometry x="866" y="143" width="118" height="80" as="geometry" />
        </mxCell>
        <mxCell id="MhHyRA77rNkdGOdwK2jB-43" style="edgeStyle=orthogonalEdgeStyle;rounded=0;orthogonalLoop=1;jettySize=auto;html=1;entryX=0;entryY=0.5;entryDx=0;entryDy=0;" edge="1" parent="1" source="MhHyRA77rNkdGOdwK2jB-41" target="MhHyRA77rNkdGOdwK2jB-32">
          <mxGeometry relative="1" as="geometry">
            <Array as="points">
              <mxPoint x="1029" y="120" />
            </Array>
          </mxGeometry>
        </mxCell>
        <mxCell id="MhHyRA77rNkdGOdwK2jB-46" value="If Applicant wants home insurance" style="edgeLabel;html=1;align=center;verticalAlign=middle;resizable=0;points=[];" vertex="1" connectable="0" parent="MhHyRA77rNkdGOdwK2jB-43">
          <mxGeometry x="0.037" y="1" relative="1" as="geometry">
            <mxPoint x="-35" y="-7" as="offset" />
          </mxGeometry>
        </mxCell>
        <mxCell id="MhHyRA77rNkdGOdwK2jB-45" style="edgeStyle=orthogonalEdgeStyle;rounded=0;orthogonalLoop=1;jettySize=auto;html=1;" edge="1" parent="1" source="MhHyRA77rNkdGOdwK2jB-41" target="MhHyRA77rNkdGOdwK2jB-44">
          <mxGeometry relative="1" as="geometry">
            <Array as="points">
              <mxPoint x="1029" y="287" />
            </Array>
          </mxGeometry>
        </mxCell>
        <mxCell id="MhHyRA77rNkdGOdwK2jB-47" value="If Applicant doesn&#39;t want home insurance" style="edgeLabel;html=1;align=center;verticalAlign=middle;resizable=0;points=[];" vertex="1" connectable="0" parent="MhHyRA77rNkdGOdwK2jB-45">
          <mxGeometry x="-0.1852" y="23" relative="1" as="geometry">
            <mxPoint x="-13" y="4" as="offset" />
          </mxGeometry>
        </mxCell>
        <mxCell id="MhHyRA77rNkdGOdwK2jB-41" value="" style="shape=mxgraph.bpmn.shape;html=1;verticalLabelPosition=bottom;labelBackgroundColor=#ffffff;verticalAlign=top;align=center;perimeter=rhombusPerimeter;background=gateway;outlineConnect=0;outline=none;symbol=exclusiveGw;" vertex="1" parent="1">
          <mxGeometry x="1004" y="154" width="50" height="50" as="geometry" />
        </mxCell>
        <mxCell id="MhHyRA77rNkdGOdwK2jB-44" value="Acceptance Pack Sent" style="shape=mxgraph.bpmn.shape;html=1;verticalLabelPosition=bottom;labelBackgroundColor=#ffffff;verticalAlign=top;align=center;perimeter=ellipsePerimeter;outlineConnect=0;outline=end;symbol=general;" vertex="1" parent="1">
          <mxGeometry x="1149" y="256" width="50" height="50" as="geometry" />
        </mxCell>
        <mxCell id="MhHyRA77rNkdGOdwK2jB-48" value="&lt;font color=&quot;#ff3c26&quot;&gt;No Need to Write the Fail Cases&lt;/font&gt;" style="text;html=1;align=center;verticalAlign=middle;resizable=0;points=[];autosize=1;" vertex="1" parent="1">
          <mxGeometry x="107" y="-35" width="182" height="18" as="geometry" />
        </mxCell>
        <mxCell id="MhHyRA77rNkdGOdwK2jB-50" style="edgeStyle=orthogonalEdgeStyle;rounded=0;orthogonalLoop=1;jettySize=auto;html=1;entryX=0;entryY=0.5;entryDx=0;entryDy=0;" edge="1" parent="1" source="MhHyRA77rNkdGOdwK2jB-49" target="MhHyRA77rNkdGOdwK2jB-30">
          <mxGeometry relative="1" as="geometry" />
        </mxCell>
        <mxCell id="MhHyRA77rNkdGOdwK2jB-49" value="&lt;font color=&quot;#ff3c26&quot;&gt;Reject Application&lt;/font&gt;" style="shape=ext;rounded=1;html=1;whiteSpace=wrap;direction=south;" vertex="1" parent="1">
          <mxGeometry x="829" y="310" width="80" height="120" as="geometry" />
        </mxCell>
      </root>
    </mxGraphModel>
  </diagram>
  <diagram id="2mELkDv6yjQ_s7-E0nei" name="Official Answer">
    <mxGraphModel dx="1186" dy="520" grid="1" gridSize="10" guides="1" tooltips="1" connect="1" arrows="1" fold="1" page="1" pageScale="1" pageWidth="1654" pageHeight="1169" math="0" shadow="0">
      <root>
        <mxCell id="-JuDWj_RR_wtEPsLmdcU-0" />
        <mxCell id="-JuDWj_RR_wtEPsLmdcU-1" parent="-JuDWj_RR_wtEPsLmdcU-0" />
        <mxCell id="-JuDWj_RR_wtEPsLmdcU-2" value="" style="shape=image;verticalLabelPosition=bottom;labelBackgroundColor=#ffffff;verticalAlign=top;aspect=fixed;imageAspect=0;image=data:image/png,iVBORw0KGgoAAAANSUhEUgAABqAAAAHICAYAAAAhqivtAAAgAElEQVR4AeydecxV1bn/Gxu11lCShviXf5FIcgkXE/sjNeFaTBtDDEVjiJSQNlqIHRSN1YsKsUoVxAkHRFBwwAlUEKwzIkotSBFeQAWxyiDKDDLIoDKtX76r99nuczjDPufss8/e+3xWst89reFZn2ef9a61njX8wOEgAAEIQAACEIAABCAAAQhAAAIQgAAEIAABCEAAAhCAAAQgECOBH8QYF1FBAAIZJnDs2DE3ffp0N2TIEHfmmWe6zp07ux/84AccLWYgPUgf0ov0Iz3hIAABCEAAAhCAQCUC1OvSWYelXlfpq+UdBCAAAQhAAAIQgEAeCWCAyqNWyRMEaiQwZswY16VLF9evXz83ceJE19HR4fbs2VNjLHhvBgHpQfqQXqQf6Un6wkEAAhCAAAQgAIFSBKjXlaKSjmfU69KhB6SAAAQgAAEIQAACEEiOAAao5FiTEgRSR0CGjZ/97Gdu0KBB7qOPPkqdfAh0PAHpSfqS3qQ/HAQgAAEIQAACEBAB6nXZ+w6o12VPZ0gMAQhAAAIQgAAEIFAbAQxQtfHCNwRyQ2DOnDnu1FNPdQ8//HBu8tROGZHepD/pEQcBCEAAAhCAQHsToF6Xbf1Tr8u2/pAeAhCAAAQgAAEIQKA8AQxQ5dnwBgK5JaARsjJezJ49O7d5bIeMSX/SIzOh2kHb5BECEIAABCBQmgD1utJcsvaUel3WNIa8EIAABCAAAQhAAAJRCGCAikIJPxDIGQEt38bMp3woVXqUPnEQgAAEIAABCLQnAep1+dE79br86JKcQAACEIAABCAAAQj8hwAGKL4ECLQZAW1MrT2EcPkhIH1KrzgIQAACEIAABNqLAPW6/Ombel3+dEqOIAABCEAAAhCAQDsTwADVzton721H4NixY65Lly5OGx7j8kNA+pRepV8cBCAAAQhAAALtQYB6XT71TL0un3olVxCAAAQgAAEIQKBdCWCAalfNk++2JDB9+nTXr1+/tsx73jMtvUq/OAhAAAIQgAAE2oMA9br86pl6XX51S84gAAEIQAACEIBAuxHAANVuGie/bU1gyJAhbuLEiW3NIK+Zl16lXxwEIAABCEAAAu1BgHpdfvVMvS6/uiVnEIAABCAAAQhAoN0IYIBqN42T37YmcOaZZ7qOjo62ZpDXzEuv0i8OAhCAAAQgAIH2IEC9Lr96pl6XX92SMwhAAAIQgAAEINBuBDBAtZvGyW9bE+jcubPbs2dPWzPIa+alV+kXBwEIQAACEIBAexCgXpdfPVOvy69uyRkEIAABCEAAAhBoNwIYoNpN4+S3rQn84Af85PP8AaDfPGuXvEEAAhCAAAQKCfB/v5BH3u7Qb940Sn4gAAEIQAACEIBAexKgN7o99U6u25QADdl8Kx795lu/5A4CEIAABCAQJsD//TCN/F2j3/zplBxBAAIQgAAEIACBdiSAAaodtU6e25YADdl8qx795lu/5A4CEIAABCAQJsD//TCN/F2j33TodOfOnW7WrFluxIgR7oILLnA9evRwXbp0cSeeeKKTjnTWvZ7rvfzJv8LhIAABCEAAAhCAAAScwwDFVwCBNiJAQzbfyka/+dYvuYMABCAAAQiECfB/P0wjf9fot3U6lfFo/Pjxrk+fPt7IJF3Ucyi84sEY1TpdkjIEIAABCEAAAq0ngAGq9TpAAggkRoCGbGKoW5IQ+m0JdhKFAAQgAAEItIQA//dbgj2xRNFvYqiDhFauXOn+8Ic/1GVskr4qHYpX8eMgAAEIQAACEIBAuxHAANVuGie/bU2Ahmy+1Y9+861fcgcBCEAAAhAIE+D/fphG/q7Rb3I61QylK664oqwBqXfv3u66665z06dPdx0dHW7btm3uu+++8wLqrHs913v5k3/pr9ShdJgRlZxuSQkCEIAABCAAgdYTwADVeh0gAQQSI0BDNjHULUkI/bYEO4lCAAIQgAAEWkKA//stwZ5Youg3GdRTp071eziJd/iQEWnSpEneuFSPJDJKKXwpY5T2jFK6OAhAAAIQgAAEINAOBDBAtYOWySME/o8ADdl8fwroN9/6JXcQgAAEIACBMAH+74dp5O8a/TZfp6WW2+vXr5+bN29erIkrPsUrnYYPpY+DAAQgAAEIQAACeSeAASrvGiZ/EAgRoCEbgpHDS/SbQ6WSJQhAAAIQgEAZAvzfLwMmJ4/Rb/MUuWXLFtenT58CY9AZZ5zhZs6c2bxEnfPxKx3p1g7JIXlwEIAABCAAAQhAIK8EMEDlVbPkCwIlCNCQLQElR4/Qb46USVYgAAEIQAACVQjwf78KoIy/Rr/NUeC6detcjx49AgOQOGsmku3p1JxUv49V6RTPvJI8kgsHAQhAAAIQgAAE8kgAA1QetUqeIFCGAA3ZMmBy8hj95kSRZAMCEIAABCAQgQD/9yNAyrAX9Bu/8jTTqNj4dP/998efUIQYla50bIfkYiZUBHB4gQAEIAABCEAgcwQwQGVOZQgMgfoJ0JCtn10WQqLfLGgJGSEAAQhAAALxEOD/fjwc0xoL+o1fM8XL7k2fPj3+RGqIUelLz3ZIPhwEIAABCEAAAhDIGwEMUHnTKPmBQAUCcTZkN23a5NavX+82btzoDh8+XCFVXiVFIE79JiUz6UAAAhCAAAQgUB8B/u/Xxy0rodBvvJoqXvau1cYny12xEUpy4iAAAQhAAAIQgECeCGCAypM2yQsEqhCIoyHb0dHhunfvHozUU5ydOnVys2fPDlL/5ptvvJ/JkycHz5pxYeksWbKkGdE3HGexfGJ0+umnu127dvm49+7d63bu3NlwOhZBHPq1uDhDAAIQgAAEIJBuAmn8v//ZZ58V1BElox2DBg1yc+fOrQmqxbdixYqawlXyfPDgQbdt2zZ37NixSt5a/i6N+m05lDoFmDp1avAdimurlt0rJ37xcnySFwcBCEAAAhCAAATyQgADVF40ST4gEIFAow3ZN9980zfeZHB6/vnn3ccff+zeeecdd+655/rnU6ZM8VKY4WXChAkRpKrfi9Lp2rWry6oBauDAga5nz57uyJEj9UMIhWxUv6GouIQABCAAAQhAIOUE0vh/3wxGw4YNc3fffbe78847/TFy5MjAAPDGG29EJmvxLV26NHKYah6ffvppP3jKBgRV89+q92nUb6tYNJKuBnt16dIl+P7SOsMoPENL8sY5SK0RfoSFAAQgAAEIQAACjRLAANUoQcJDIEMEGmnIqpF+2mmn+Rk8xRvkagm+fv36+ffbt293GKD+81EcOnSoooHsyiuvdP37949tBG4j+s3QZ4yoEIAABCAAAQg45zvU0wbCDEalZix98cUXXubBgwe7o0ePtkz0F1980ddZDxw40DIZoiRMvS4Kpep+rrjiisD4dMYZZ7jvvvuueqAW+JBckk961yG5cRCAAAQgAAEIQCAPBDBA5UGL5AECEQk00pCdMWOGbwzNmzevZGrvv/++f6/ZSGaAGjdunFM4Ga6U9tixY4+b7aMl/WSE0XvNCFq4cOFx8b/wwgtBHOeff7577733vJ9SM6A+/PBDd/nll7uHHnrouHjsgdLs3bu3T1MzkDSbyzpCnnzySffoo4+6ZcuW+WUEH3nkEQvmJMfZZ5/tw1199dVu7dq1wTtdyDCnEb9nnXWWGzp0qBMTLVdoM7QWL17sNAJ43759TrPFlGfNJrvmmmv8s4LI6rhpRL91JEcQCEAAAhCAAARaSCCN//fNAGV1nzAeLXk3YMAAP2gpPPu7Ul1Qdavrr7/e7ztqcW3evNlpEI/yrzqX6ppWjzM/5ep68+fP94ODFPa3v/2tW716tQVJ3TmN+k0dpCoCrVy50n8nYqlj5syZVUK09rXkM1l1lvw4CEAAAhCAAAQgkHUCGKCyrkHkh0ANBNSQqdfJqCNDUpTlSmQYkmFH6cnA8uCDD3qjkO5vuummQIRXXnnF+znvvPOclkNRp4T8hDcFltFKz4YPH+6f2/5TapAVG6BkNJJfGan0rpTTkoHy07dvX98IveSSS/z9tGnTvHflU+/teO655/xzya1n6vB4/PHHg86LVatW+ffqIDFD2+233+6GDBkSxGGdMIrLGJoBSvcjRozAAFVKWTyDAAQgAAEIQKAsAdVL0ubMAFVqBtSOHTt8/emqq64KxK5WF5SBSPm0upTFr/qTBgnJOKX3GgBkRqhKdb0FCxYEdbjLLrvMffrpp4EsabtIo37TxqiaPOFl7bRaQxac5JTudaR1ucAscERGCEAAAhCAAATSQyB9rZb0sEESCOSOQCMNWRle1CAKj1gtB0jGHxmKtD+TGayKR73u3bvXv5dhxzaB1lmzgU4//XRvkFm/fr1vfF133XVBUnv27PFGHO0rYAYoGaNshKNmUWlJwFJO/nv16uVnP2kDajmlKWOU7cVkI2rVIWJu+fLlXo6XX37ZHjnJrzCa6aQ4Ro0a5eVat25d4EczqcTcOk0008oMUPKktFiCL8DFBQQgAAEIQAACNRBopF5XQzI1eTUDkep3mjmuQUU6Jk+e7Ot9qgeZ0SdKXdDiU11K9S0NVtIsds0mN/fss8/6+pYNTqpW12MJPiOX77P2UNJvxI5yqzikjYLkNJl1Zi+otGkIeSAAAQhAAAIQqJUABqhaieEfAhkmoEZMvc6MJTa6tFI8ZoCaMGFCgbdJkyZ5g4vi0FJ5kuf11193WoNfjav9+/e7t99+2z/XyFkZbDSDasOGDQXxaNaRDD2Wjjo51KEhg1eldd2tE6N482vNXtLsKTnlUx0bYSPWY4895uVQh4k6SySrDFj33HNPsCeWDG6jR48ukFN+JVc5A5RmW8kAFcWoVxBxmZtG9FsmSh5DAAIQgAAEIJBSAmn8v291LclW6lAdywYBRakLWnyqS4UNVopD9bHdu3f7JZFV39LscvNfqa5XPCAoper1/NIqWxbkGj9+fPAN6rvLkpO89vtRPnAQgAAEIAABCEAgywTq743Ocq6RHQJtSqCRjgoZSzQz6euvvy5JTzOdZKj5/PPPA8OQlt4LOzX4zz33XL9EyjPPPBM0rKyBFT5rnyfrIFCHQyknA5Qt9WdhzdhTyr91SpRaFsb8FxvaNNo2vJyepWNndXjIgCUDlEb3hp0ZyEwmy4/NCitOKxy2nmvJhIMABCAAAQhAoD0IpPH/vtW1Fi1a5JWgAT06vv32W/fEE0/4up8MRXJR6oIWn+pSthyf1cGKz5odb/4r1fWK62Np/VrSqN+0siolV58+fYK2hgbBZclJXvu+lQ8cBCAAAQhAAAIQyDIBeiuzrD1kh0CNBBppyFongRlTipN+7bXXfENJDX4zvBTPgAoboF599VXvX8tMfPXVV27r1q3+0GhWXauzIrxnUjg9GXy0j4CloyX6tm/f7o1RmgVlI2vDYXRtHRfWKWLvZeDauHGjvy1lFNL+AjI0aQbUtm3bCmTVvWZwyQBVnF/JJ3mMWXGHR6m0TKZ6zo3ot570CAMBCEAAAhCAQOsIpPH/vhmArO4TpmP1NqsvRakLhuOzpZk1A10zn4rrjlqWL0pdr7g+FpYxTddp1G+a+FSSRe0J8bND9fUsOclrsuus/OAgAAEIQAACEIBAVglggMqq5pAbAnUQUAOmXiejj8JrSYjwuvuKTzN6bM8nGX+KOxgszbABSkvoKb7iJVLUGaGZVopz/vz53o9mQ5lT/DLq3HnnnT4dXdsoV/M/btw4815wtjwUv9e+UeE9oLQsXnipQe0VoKUAv/zyy4L4tPTfoEGD/Khe7TdQvEfW+++/7+W3TpjiDg9bgk+zrOJwjeg3jvSJAwIQgAAEIACB5Aik8f9+2GBUTMLqhzYDKkpdMByfwqu+pvpX2JlhSvWtKHU9q49pAFGaXRr1m2ZeYdlmzZrl6+BimLXl9ywf4WX4lB8cBCAAAQhAAAIQyCqB+nujs5pj5IZAGxNotCH71FNP+cacZgNpxpNmBM2dO9cbhBT3yy+/7OlaB4ONcDXkYQOUbSQtw472fdLIvpdeesnHr5lBeq9ZUGp8Kb1//etffnm/q666yvvRPlBKJzzDSGEuueSS4L2lGz6PGjXKv9eG1Ro5q2XzJPu0adO8NzMKhQ1QMoZJBhmZtMG1wt11110+nDbWlpORSvFoNpZGLaoTRGH0rJwBSjOrZGxbuHChO3ToUFjMuq6VFg4CEIAABCAAgfYgkMb/+2GDUbEWbMa46nlyUeqCxfHZ0mQyYmk2vOpYNgjKBkhVq+tZnW327Nlll5Yulr0V92nUbys41JPmiBEjfB1cDFU3z6KT3JJfh/KDgwAEIAABCEAAAlklQG9lVjWH3BAoQeD3v/99xYZ0HA1ZGYvMsGKNIhlmtJG0ORuhWrwnkgxQ4dlF2k9q6NChQeNK8alTQuHNqXPhvPPOC/zIYKUOAzkzdJmBR880S0nyaTaSDFjFTs9GjhwZxKc0x44dG/gdPny4n9UUNkApDnWAqIPD8qzzxIkTfeeJpaHOkPD7MWPGeFlMPskt2WwPqAULFnj/ypM9s7jqOSttHAQgAAEIQAAC+SCQRL0ublJmMFq6dOlxUatudeGFF/q6kGY/yVWrC1p8VpeS0Wr8+PEF9S3VQzULyly1up5mSVldVoOA0uqo11XWTKXfxwUXXBB8IzZYrHJs6Xsrua1dofzgIAABCEAAAhCAQFYJ0FuZVc0hNwRKEDj55JPdSSed5GREUYO+2MXVkD1y5IjbtGmTb+zb3knFadVyv3nzZr8Hk9bzL+c0q8j2hirnp5bnMvgoDzZaNmpYhdGxf//+kkEUrzpBKuUlHFCbcocNbuF3tV7Hpd9a08U/BCAAAQhAAALxE0iqXhe/5LXHWK4uWGyAsphV31IdtNLeOJXqeqrLsgSf0czmudLvo0ePHoHxpqOjI5MZlNxmgFJ+cBCAAAQgAAEIQCCrBDBAZVVzyA2BEgS0L1Lnzp3dT37yE/ejH/3IaYm3sCEKA0UJaDl6hH5zpEyyAgEIQAACbU+g3et1GqQzb9483wlv+32200dBva6ytiv9Prp06RIYbzSILYtOcpsBSvnBQQACEIAABCAAgawSwACVVc0hNwTKEPjpT38aNFZkjJIhymZE0ZAtAy0nj9FvThRJNiAAAQhAAAL/R6Cd63UPPfSQr9N269bNHTx4sO2+Cep11VVe7vdx4oknBu2h7777rnpEKfQhuc0ApfzgIAABCEAAAhCAQFYJYIDKquaQOyBgFXPO/9mkVhxOOOGEoMGi+1NOOcX9+Mc/9s8CcFzkjgC/ge9/A0mxyN1HRIYgAAEIJEAgqTI6L+m0a71u+/btbtmyZW1pfNLPMC/fb7PzUer3EU4zgSKtaUnkJR9NA0TEEIAABCAAAQhkggAGqEyoCSErEVDFHPc9gXIjAbUUH6y+55THK/SbrFbhnSxvUoMABPJDgPIzui6p10VnlTef/E6qa7Tc74MZUNXZ4QMCEIAABCAAAQgkRYCe+6RIk07TCNA4+x5tpbXQ5QtW37PK4xX6TVar8E6WN6lBAAL5IUD5GU2X1OuiccqrL34nlTVb6ffBHlCV2fEWAhCAAAQgAAEIJEkAA1SStEmrKQRonH2P9eSTT3YnnXRSsOfT92/+cwWrYiL5uke/yeoT3snyJjUIQCA/BCg/o+mSel00Tnn1xe+ksmYr/T569OgRLGHY0dFROaKUvpXc+gZ0KD84CEAAAhCAAAQgkFUCGKCyqjnkDgjQOAtQuCFDhjgttVfOpY3V888/70477TS3a9euciK7K6+80g0aNMgdPXq0rJ/wi71797qdO3eGH7XNddr0m3fw8M67hskfBCDQLAKUn9HIZq1eFy1X3/uaPXu2O/3003098JtvvnE9e/Z0kydP/t5Dg1dHjhxx27Ztc4cPH/YxNSONBkWsGJzfSUU8Fds9F1xwQWC8mT59euWIUvpWcusb0KH84CAAAQhAAAIQgEBWCWCAyqrmkDsgQOMsQFH1Im2sohighg8f7gYPHhzZADVw4EDfgaFOh3ZzadNv3vnDO+8aJn8QgECzCFB+xkM26xzD9cBmGIdWr17tO+/fe+89D7wZacSjydKxZF2/pXOVzNMRI0YExpvrrrsumURjTkVy6xvQofzgIAABCEAAAhCAQFYJYIDKquaQOyBA4yxAUfUibays40GzluJymjHVv39/d+zYsbiizEw8adNvZsDVKSi86wRHMAhAoO0JUH7G8wlknaPVAyvNhG+E1Pr1633n/YoVKxqJpmVhs67floFzzs2aNSsw3vTu3buVotSdtuTWN6BD+cFBAAIQgAAEIACBrBLAAJVVzSF3QIDGWYCi6kXaWFnHw8KFC/0yGpKvV69e7sMPPwzy8tRTT7lJkyYFBqXt27e766+/PmiQ6doMWFOmTPHPO3Xq5K655hq3b98+H88HH3zgzj333ODdY4895sIzpJ588kn36KOPumXLlrnu3bu7u+66y/35z392ixcvDuTQhUbSXnrppf5c8CIlN2nTb0qwNE0MeDcNLRFDAAI5J0D5GY+Cm8VRBqE77rjDL5OsNLQU4Pvvvx8I/eWXX7q//vWv7pNPPnFXX321r1/98pe/LPCzYMECX39Tne68887zfoYOHeo2btwYxGP1QKWn2Um33nqrmzt3bvB+y5YtQf1QdTvJZHU+efr000/dsGHDgvrdDTfc4DZs2ODDS0ar+w0YMMC9+uqrJdNQvdLiUF7/9re/uT179gQyqG45Z84cp7qkBjjJj5aGTmK552bpN8hcji+kH/GzQ0sxZslJXpNd5yS+tyzxQVYIQAACEIAABLJFAANUtvSFtCUIqFKOi0YgbaxmzJgRNK5k2Hn44Yd9Z4c6GdatW+czpU6Pc845xxuMDh065A1U2jfqmWeecWZw6tatm+9UsHu911IVMkCpA0T57tu3r/v73//ubrvtNn+veM0IdfnllwdyyK8MUl27dnWXXXZZYPiSMGPHjq26Z1U0TTTHV9r025xcpidWeKdHF0gCAQhkiwDlZzz6agZH7blphhsNANI+NHYvg5PcZ599FtSbZLx54YUX/PLHkufdd9/1fmRc0r2Oe++919etdK062ubNmwM/thfogQMHfN1rwoQJ/p0MSHqnQ4ORRo0a5eOSEUuz3Hfs2OHv9V5pqQ6oa9XfDh486BT+oosu8n60PPNrr73mitOQgcvSeO655wIZbV8qCaL6ouVDS6KNGTPG36vuqXSa6ZQurn4Cffr0CXSnbzlLTvLad6d84CAAAQhAAAIQgECWCVCrzbL2kN0ToHEW/UNIGyszQMngY2758uW+wbVkyRL/yJbUU4eIdXjYO3nQrCUZrKwzw/yrc8IMVup4sA2oFUYdGWJh8SiM7l955RUT4zhjk+0boD2p0urSpt+0copLLnjHRZJ4IACBdiNA+RmPxpvBUUYZxTtv3rxAyP3793tDjYxRclYfu+qqq4I9OjUzqWfPnk7LhqnOZXU8C6Nwmg2luG+++WYfT/EMKM1CNwOUZrirfqe0zKlTXs80Y+qtt97ycVn9T34++ugj/2zVqlU+SPESfKrLhdOQUUvGJuXZnMn44IMP+kdWR7Q6ox7qnQxXzVo60GRphn4t7nY4jx8/3n8P4pi1ZfjCy+8pHzgIQAACEIAABCCQZQIYoLKsPWT3BGicRf8Q0sYq3PFguVBjXo16a+ibQUkGKM2KUh60TJ+WaNGyKcVOs5m0RIpmN1kHSbgTRf7VkaIRstbJoTSsw8Tisw4IC2uGsUWLFpmX1J3Tpt/UAYpZIHjHDJToIACBtiFA+RmPqpvFUYYaHV999ZVbs2ZNYEwyo4zVr7QsXdiF63W6lnHn66+/DntxqnP169fP19PC/sPGIc1UkqFIy/yFnWYcaSlADTBSPc/k1HJlmp2lJfrExOqQJqfdh9Ow69GjR4eT8LOrLrnkkkDGcD3UPKqOiAHKaKT3XLwMn9Xp0yvxfySTnPqO7WD5vbRrDPkgAAEIQAACEKhGAANUNUK8Tz2BZjW+U5/xOgRMG6twx4NlxzoErLOguOGvWUpq9FujTNeKRzOe5ML+reNh6dKlFr0/Kw2N0rWOlHAY82izpzS6V+72228PlnUxP2k7p02/aeMTtzzwjpso8UEAAu1CgPIzHk03g6PqU7akseIPH1ZvUv1K9a/wfkzKUbhep2st3acBRGEXrnOF/Vv9T4OD7FpylHMybIX3BA3LaXVIqwfavcUbTmPy5MnHJRGWMXxtHi3/zIAyIuk9/+EPfwi+YRk+s+Akp33Pkh8HAQhAAAIQgAAEsk4AA1TWNYj8voIOhmgE1JhJkwt3PJhc6hzQ7CTrLCjV8NeoV82Gmj17drAvwXvvveejCPtfvXq1/z6KDVDqMCieAaVZU8WdJFrqRf60NItmXWnd/zS7tOk3zazikA3ecVAkDghAoB0JUH7Go/VmcNQMc8V73333+brWnj17vEFIA3ds5rgMMFoKr3gmerhep2vbwzOcW9XTos6AeuCBB8JB3Xfffec+//xzX1+74YYbvAyqC27cuNHvx2Qz5a0OWckAZbOsig1QMsANGDAgkDFcrzRhMEAZifSfV65cGRhz9F3PnDkz1UJLPslph+THQQACEIAABCAAgawTSFdvdNZpIn9LCKiCjotGIG2swh0VloNKBqhXX33VL+eiTgNzWo5FRiIblWtL8KkDQRtQK8/2zsJo+RY9t+X0SnUuyK+WnZE/24A67Y3AtOnXeOf1DO+8apZ8QQACzSZA+RkP4WZwfO655/zsJi1XbM4G9NiMJDPszJo1y7z4mei/+93vvNEpvAfU2rVrAz+aMaU6my17F64HhmcnKbyWRi42YD399NPBHlCq7+m9zYBXIs8884yvt61YscKnaXLafak0igcg2VLQZvwqVUfEABWoNBMXV1xxhf8u9Hs544wzvCEzjYLLwCr5JKcOyY2DAAQgAAEIQAACeSBAz30etNjmeXI+RGsAACAASURBVGhG4zuvSNPGKtzxYMwrGaBsZKs2jdaoW+1NMHXqVN9I08bTclqORXsOLFy40O8RYMuzqENl3759fmaVlo3p1q2b3yRbYcxoVTwDSvcXXnihj794jyiTN03ntOk3TWyaIQu8m0GVOCEAgXYgQPkZj5abwVEzihSv6mg7duxw//jHP4Klj1X/0hLFZtiRv3/+859u69at7pZbbvHhVC+TmzFjhr+XwUkDenQMHDjQP7MBPeF6YNg4pPA2E+umm27yM9FtX5yhQ4d6o5MMQ6rPLV682GkPKDM+SaaXXnrJy2D1xnvuuccPSipOQwOb5F9pqF65YcMGd/7553sj1+bNm30cGKA8hkz/0R5KXbp08bqWvtO6rF14uUDJy95Pmf7sEB4CEIAABCAAgRABDFAhGFxmk4AaErhoBNLGSp0cMhaF19C3zgFbPkUN/0GDBgXL45Xal0BLwpjxaMGCBb6BqaVhFK/i+8tf/hI0OsWgb9++BY264cOHF6QRpmkdMdahEn6Xtuu06TdtfOKWB95xEyU+CECgXQhQfsaj6WZwVL1p8ODBBfUm7b959dVX+2ca4CMDlOpZd9xxR4G/2267LaiPybgk49PIkSML/Cguc6pjyYhk9TUt8xdeEm/69OkFYTUjXcYuOc1yV/xioEP1yXfeecfv8SnZNEhJM6lsIJFmXSlvxWk88cQTQRyKR/J88MEHJqLfW1Q8rJ6pF8yACvBk5sIGrNn3cv/996dKdsljsumchXZHqgAiDAQgAAEIQAACqSZAz32q1YNwUQioko6LRiAvrNRRsX79ej+advfu3cdl/ttvv/WdDOEXGtmqDgOFq8VpdKw6MmwkbC1hk/abF/0mza3e9OBdLznCQQAC7U6A8jOeL6CZHDdt2uT3VpIRx5zqX1ryzgwwWhJZs8tVtyquj8kApeXt5F8zqbR3k5ZNrtVp2T7t8VRqNohkU7xmlFLcWsasWBYtJxjOR7EMSsNmaVXyVxyu2ffN1G+zZU9j/OEZRmIrA2caXLGhNa0ztNLAChkgAAEIQAACEMgmAXrus6k3pA4RoHEWglHlElZVAIVeq1NFHRq9evVymiGVBYd+k9USvJPlTWoQgEB+CFB+xqPLVnE0A5QMUuWcDFDnnntuwcyhcn55XppAq/RbWpp8PO3Tp0/BTKNWG6GKjU+SDwcBCEAAAhCAAATyRgADVN402ob5oXEWXemwis7q0Ucf9Q1UzX764osvogdsoU/0myx8eCfLm9QgAIH8EKD8jEeXreL48ccf+zpSJQPU448/7rp37+6OHDkST2bbMJZW6TfPqLds2eJ69OhRYIRq1XJ8xcvuSS7Jh4MABCAAAQhAAAJ5I4ABKm8abcP80DiLrnRYRWelBqD2k9LSfVlx6DdZTcE7Wd6kBgEI5IcA5Wc8umwVR80S/+STTyoua6dl97SsHa5+Aq3Sb/0SZyPkunXrjjNCadk7Ld+YhFM6xcsByvgkuXAQgAAEIAABCEAgjwQwQOVRq22WJxpn0RUOq+issugT/SarNXgny5vUINCuBLQM7KBBg/xSZlr6TGXP0qVLE8WhPXJK7cFTrxCUn/WSKwwHx0IeebtDv83TqAaaFS/Hd8YZZ7iZM2c2L1HnfPxKR7q1Q3Iw86mp2IkcAhCAAAQgAIEWE8AA1WIFkHzjBGicRWcIq+issugT/SarNXgny5vUINCuBC6//HLXv3//AgPUihUrEsUxcOBA17Nnz9iWU6P8jEd9cIyHY1pjQb/N10zxTCQx79evn5s3b16siSs+xav4w4fSx0EAAhCAAAQgAIG8E8AAlXcNt0H+aJxFVzKsorPKok/0m6zW4J0sb1KDQLsSuPLKKwMDVKsYmAzHjh2LRQTKz1gw+o7seGIiljQS4HeSjFamTp3qunTpUmAYEvvevXu7SZMmuW3bttUliMIpvOJRfOFD6SldHAQgAAEIQAACEGgHAhig2kHLOc8jjbPoCoZVdFZZ9Il+k9UavJPlTWoQSBuBTz/91A0bNsx3Knbq1MndcMMNbsOGDYGY2kdQnY8ffvihO++887y/oUOHuo0bNwZ+HnnkETdnzhw/2v60007zfsaOHev2798f+DHjz9GjR/0yTddee63TUnzmOjo6gg5OzVJ6/vnn/Wwpe//uu+96A5bKLL3Xxvfh+KdMmeJl+OCDDwJ/WvLPltzTe4VVHq+55hq3b98+i7ruM+Vn3egKAsKxAEfubtBvcipVeXfFFVf4sk7ciw8Zka677jo3ffp0pzJXxiXbM0pn3eu53stfKaOTxal0rHxNLoekBAEIQAACEIAABFpHAANU69iTckwEaJxFBwmr6Kyy6BP9Jqs1eCfLm9QgkCYCO3bs8B2UMhrJ4CMjja67du3qDh486EXVc5UTOu6991735JNPBmE2b97s/QwZMsQ/k3HnqaeecuPGjfP355xzjjt8+LD3EzZArV692r9fsmSJf/fOO+/4+759+/q9RS655BJ/P23aNP9+4cKF/v7iiy92L730kpNxS/JcdtllzmYzmQx6ro7TMWPGeD/dunXzeTEDlPI3YsQIDFCebDr+SGe4/BJAv8nrduXKla7UsnzSRaOH4lX8OAhAAAIQgAAEINBuBGi1tJvGc5hfGmfRlQqr6Kyy6BP9Jqs1eCfLm9QgkCYCb731lu+MNEOSZPvoo4/8s1WrVnlRZ8yY4e81It6cZkOp7Lj55pv9IxmXZHzSc3MyRMmP7UESNkBp5pPeyQD1zTffuF69evmR9mb0klFJxijbr+mWW25xMiSZMUtpPPbYY95QZjOZFL/FaTI8+OCD3qC2a9cu/8hkMKOV+av3rPRwjROAY+MM0xwD+m2ddjRDafz48a5Pnz6+fJQu6jkUXvEw46l1uiRlCEAAAhCAAARaT4DWX+t1gAQNEqBxFh0grKKzyqJP9Jus1uCdLG9Sg0CaCBw5csQbgGQE0tJLn3zyibvjjjsKDDmaAXX66ae7r7/+ukB0GXO0Gb3iuPzyy93gwYOD2UjyqDi7d+/uHnjgAR/OjD9agi9sgLLrN954oyD+LVu2uGXLlvlnMjwpvgMHDrhNmzZ5Q5dmPGk2U7FxSfGbk0Es7Edy9u/f38tsfho5U342Qu/7sHD8nkUer9BvOrQq49GsWbP8DNALLrjA9ejRw+8ZdeKJJ/oyX2ft6aTneq+ZovKP0Skd+kMKCEAAAhCAAARaTwADVOt1gAQNEqBxFh0grKKzyqJP9Jus1uCdLG9Sg0CaCMiodP3115ccEW/L48kAde655xbsx6Q8hA1KMgZNmDChIGtmgNIspGL/ZnRSGna9YsWKgvDhG/mx/adUZtkRNi6F5bGwClfNj/mt50z5WQ+148PA8XgmeXqCfvOkTfICAQhAAAIQgAAE2pcABqj21X1uck7jLLoqYRWdVRZ9ot9ktQbvZHmTGgTSROCGG27wS+fNnj3bbdy40e+VtG7duuNmQGkvJ810CrvwDCgZoO6+++7w62AGlBmmwgYiMzrJAGX7QS1atKgg/N69e71Mhw4d8kv0aZk+7QW1detWP9PqxRdfrGpcwgBVgDS1N/wfSq1qYhEM/caCkUggAAEIQAACEIAABFpMAANUixVA8o0ToHEWnWHnzp3dnj17ogfAZ2YISK/SLy45ApQ9ybEmJQikjYCWpJNxKbwn0jPPPOMNUDYjyfaAWrt2bSC+jENdu3Z1o0eP9s9kXNL9d999F/hZvny5j6faHlBaak/l0Lhx44Kwuhg4cKDfA0qztLSUX9jAJXklu2Y3SRa5sIHLIio2QNkSfOH8mt96zpSf9VA7Pgz1uuOZ5OUJ9bq8aJJ8QAACEIAABCAAAQhggOIbyDwBOjGiq/DMM890HR0d0QPgMzMEpFfpF5ccAcqe5FiTEgTSRkBGGxlxFi9e7PeAMuOTyoWXXnrJi2sGKBmY1qxZ4w8Zh+Rn5cqV3o/i0f2wYcPc5s2bnWY2yb8O2zvKjD/Fe0ApglGjRvnwzz77rJ/hNHnyZH8/bdq0YCbVxRdf7GQE+/zzz93IkSP9e8n+8ccfBzJof6fwHlDFBigtN6j9rDSTSjOrGnWUn40S/E946nXxcExjLNTr0qgVZIIABCAAAQhAAAIQqIcABqh6qBEmVQToxIiuDi31M3HixOgB8JkZAtKr9ItLjgBlT3KsSQkCaSPw5ZdfeiORygEdMs688847fuZRp06d3FdffeW0B5QMSWb0Mb+vvPJKkB2V23/605/cgAEDfDzyI+OQltczN3z4cDdo0CBvILIl+JYuXepfHz58+Lj4x44d6/Rcbv78+UG8ivvSSy91c+bM8c80O0rLA8oINnjw4IoGqAULFvgwytuuXbtMtLrPkgXXOAHqdY0zTGsM1OvSqhnkggAEIAABCEAAAhColQCtv1qJ4T91BOjEiK6S6dOnu379+kUPgM/MEJBepV9ccgQoe5JjTUoQSCMBGXk0q0h7K5nTUnq7d+/2tzJAaWaRlq3bsWOH93vw4EHz6s8yIDz88MP+etOmTX7vpnqWuZNRSOH37dtXEL9uNJNq/fr1bufOncE7Pdu/f39wH+Xi22+/9bOqovit5ofysxqhaO+p10XjlEVf1OuyqDVkhgAEIAABCEAAAhAoRQADVCkqPMsUAToxoqtLnVpdunRxH330UfRA+Ew9AelTeq2n0zL1mUuxgJQ9KVYOokEgBQRkgDr33HMLZhYViyUD1IQJE4of5/6e8jMeFVOvi4dj2mKhXpc2jSAPBCAAAQhAAAIQgEAjBDBANUKPsKkgQCdGbWoYM2aMX8qntlD4TjMBLc0kveKSJUDZkyxvUoNA1gg8/vjjzpa5Kye7Zjnceeed5V7n9jnlZ3yqpV4XH8u0xES9Li2aQA4IQAACEIAABCAAgTgIYICKgyJxtJQAnRi14//Zz34WLPlTe2hCpImANpyXPnHJE6DsSZ45KUIgSwS07N6aNWsqirxhwwa3ZcuWin7y+JLyM16tUq+Ll2crY9OSnNTrWqkB0oYABCAAAQhAAAIQiJsABqi4iRJf4gToxKgdeUdHhzv11FPd7Nmzaw9MiNQQkP6kR+kTlzwByp7kmZMiBCCQDwKUn/HqkXpdvDxbFRv1ulaRd2748OF+hYijR4+6zz77zKmMWrp0aWwCaf+/bdu2BctlNyON2IQlIghAAAIQgAAEIBAzAQxQMQMluuQJ0IlRH/M5c+Z444Vtfl5fLIRqFQHpTcYn6RHXGgKUPa3hTqoQgED2CVB+xq9D6nXxM00yRup1SdI+Pq3LL7/c9e/f3+/ZZ8ahFStWHO+xzidPP/2069Spk9u1a5ePoRlp1CkawSAAAQhAAAIQgEDTCWCAajpiEmg2ATox6iesEbNa5kNrzWvDY1z6CUhP0pf0xsyn1uqLsqe1/EkdAhDILgHKz+bojnpdc7g2M1bqdc2kGz3uK6+8MjBARQ8V3eeLL77oTjvtNHfgwIHogfAJAQhAAAIQgAAEckIAA1ROFNnO2aATo3HtawPrLl26OG2GPnHiRG/Y2LNnT+MRE0PDBKQHdShJL9KP9CR94VpPgLKn9TpAAghkjUDxMkz1yP/NN9+4nj17Ou0BKGcj6aMuF1UqvDpGbWR+KZm0NNjpp59e0U+pcOWeUX6WIxPPc+p18XBsRizU62qj+umnn7phw4b5JfE0g+iGG25w2jvP3IIFC9ykSZPchx9+6M477zzvb+jQoW7jxo3mxT3yyCN+xYB58+Z5I5DKn7Fjx7r9+/cHfsIGKO3Ld+211/qy1TyoLt67d28fv8rf559/3s+WsvfvvvuuN2Apbr2///77g/jnz5/vunbt6sP+9re/datXr/Z7/xWn8cEHH7hzzz03yOtjjz3mjhw54pNQuX3NNde4jz/+2L388svu7LPP9v5GjRrlDh8+bGJwhgAEIAABCEAAAqkkgAEqlWpBqFoI0IlRC63yfo8dO+amT5/uhgwZ4s4880zXuXNn37ARX47WMZAepA/pRfqRnnDpIEDZkw49IAUEskSgeBmmemRXR2T37t3dhAkTfHAzQEVdLqoeA5Q6W6sZqWrJC+VnLbTq80u9rnV1t0r1Zup10b/nHTt2+DaIyh6VQVOmTPHlkIw5MubL6bnxvvfee92TTz4ZhNm8ebP3ozq0/MiA9dRTT7lx48b5+3POOScw3oQNUDIQyf+SJUt8+Hfeecff9+3b182cOdNdcskl/n7atGn+/cKFC/39xRdf7F566SVv3FL4yy67zNfbZSQzA5SeyahWnIb8KIzS+Pvf/+5uu+02fy/ZZYTSzCmV+/Kj4/bbb3daNlDX2r8KBwEIQAACEIAABNJMAANUmrWDbJEIqOKNgwAEIJA0AcqepImTHgSyTyCOZZiKDVCNUpEBSx28e/fuLRsVBqiyaHgBAQg0icBbb73lDSxmSFIyWrJQ9a9Vq1b5VGfMmOHvNUjLnGZDyc/NN9/sH8m4JOOTnpuTIUp+NCtKLmyAMqO+DFAqb3v16uVnP5nRS8ZdGYo000nGoVtuucV169YtMGYpPs1ektFp3759Pv7isj+cxqFDh3waAwcOLIjDZDQ5lJ5mosowJyc5LrzwQj/zymZK+Rf8gQAEIAABCEAAAikjQM99yhSCOLUToBO4dmaEgAAEGidA2dM4Q2KAQFYIaHS6llTSsk7qqNTv/6yzzjpuL77t27cHy0XJz9/+9jdnS9qWWoapXP7V4RpOR52sR48e9d6LDVDllou66KKLfAfpfffd5ztrteSUOkMV/tZbb3Vz58718ZkBavHixX7EvuRWh6tG9ZsrZYDSklT9+/f3LNRxGvZv4cqdKT/LkeE5BCBgBGRUUXmlY9u2be6TTz5xd9xxhy9zbHaSyiYZZb7++msL5s8qP7V0teLQTKHBgwcXrCJg5egDDzwQ+Fd5pnI2bByy6zfeeKMgfpW7y5Yt88+0BJ7i0yylTZs2eUOXZi6FZ40Wl6EWr/Jh12YMs4S0RKCMWJrtavLazFfzIyOVlu2z/w/2nDMEIAABCEAAAhBIEwEMUGnSBrLURYBOjLqwEQgCEGiQAGVPgwAJDoEMEVDnoX7zOgYMGODGjx/vOxd1v3btWp8TdUiqw1HHc889FywFZXsnlVqGqRQC64xUPNq75Prrr/fpah8UdTIWd0QWL+UkQ5fkkhHp4YcfDpZtss5QdZJap6bSt/Qsb48//ngQxjpdiztPX3nlFZ+G9lzRsoJiovDhWQil8mbP5BcHAQhAoBIBGZWs/FOZET7CBqhSBpjwjCYZg4oNN1aOPvjgg16EsH8rE8PGoUpLnMq/7T8VltHKXCVQXIaWSqN4Hz/JqFlPkrFYXuOmeEvl395zhgAEIAABCEAAAmkgQOsvDVpAhoYI0InRED4CQwACdRKg7KkTHMEgkEECtsyT9iAx9/777/sOUesI1WbwMjbJEGXOloKyTs7iZZjMn521pJKMOdrs3pZu0rtnn33Wp7Vy5cqgI9I6VMMdmbaUk8LbclEanf+73/0uGI1vHZnF4bXniDkZqRSHlpVSnOHOUy3VJwPWTTfdFMwokNzXXHONz39Ybouv+Ez5WUyEewhAoJjADTfc4JfOmz17tp99qjJt3bp1BeWuyibt5VS8BF14BpQMUHfffXdB9MXlYDkDlBn4Fy1aVBBe5aBmxFqZa7NGt27d6stFK+t37drlw4XLUD0Il9uWRrEBSmFtsECxvCYMBigjwRkCEIAABCAAgTQTwACVZu0gWyQCdGJEwoQnCEAgZgKUPTEDJToIpJhAceehRLXlkWSAss7B0aNHF+RChhltWG9LQZWKJxwgbNxRZ+vOnTvd7t27/SwrjaaXAczSKjYghUfrF3eWark8G41fKrz2R9HygWH3zDPPBGHCcptR7fXXX/dLTklGsXj77bd9x3ClmQIWP+WnkeAMAQiUI6Cl82RcUjlqTuWSyg8rZ2xwgM1ElT8rR608lnFJhpzvvvvOonHLly/38diyd+UMUBpQoPTGjRsXhNWFlh3V7CTN0urevXuBgUvySnaVuZJFzspQGfflwgaoL7/80qdhAxW8B+ecDXJQeV5cbpsfxcsMKKPBGQIQgAAEIACBtBLAAJVWzSBXZAJ0YkRGhUcIQCBGApQ9McIkKgiknIB1HtpodolrHYJhA9TkyZOPy0m4Y7NUPOEANhJe5UupQ6P4Ld1KBiiblWVxq7OzkgHK3pl/ncOyhq+tA7iUfHr23nvvhaMpeS1/OAhAAAKVCKjsVNmk/em0B1S47HnppZd8UDNAycC0Zs0af8g4pDJGM0blFI/utYyp9tdT+Sj/OmzvKBmMSu0BpfCa3arwmomqGU4q53U/bdq0oDy++OKL/UCBzz//3I0cOdK/l+wff/yxl0EzohRGs7mUZtgAJQ+21KCWb9UsUsmo8JqFantMydBl5b6P9P/KaQxQRoMzBCAAAQhAAAJpJUDrL62aQa7IBFSZx0EAAhBImgBlT9LESQ8CrSMQNsCYFDIEqQNTHYUa1a7OwWIDlEbCa0m9qDOg1q9f7zsp77nnHj/zSZ2dOjTLSGd1TFYyQJkBy2YHmKyatWRGplLh9c5G6luYcJ7D16+++qqXUTMHvvrqKy9XWEZ1llZzlJ/VCPEeAhDQzCCVsSovdGiJ03feecfPPNKsTZU/Kpvkx4w+5lf71JnTEnx/+tOfgr3q5EdlnspLc8OHD3eDBg3y++yZcciWxFOZVhz/2LFjvWFI4W3fPUv70ksvdXPmzPEy6/+Clge0PQLlZ+HChYEBytJQufyXv/wlyKv89e3b15f9SkPvNeOq+H+M8m+GM8sLZwhAAAIQgAAEIJA2AvTcp00jyFMzAVXQcRCAAASSJkDZkzRx0oNA6wiEDTAmhToEzQClDkrtmVTcEagZU+rofOCBB3wwi8eWYbK47GydjNpfKezMMCVjl/yER8JbZ6ne2VJO4VHy4eWgJE+58DajQOkqjDptlSflzeRWeNuD5Y033giL6GSYUgdxeJZYgYfQDeVnCAaXEIBAWQIqfzSrSEZuc1pKT0uTypkBRmXWjh07vF/b/878qyx7+OGH/e2mTZv83k3yX6tT2abwpfa506wmldMaLGBOz7Q8qTkZosqV/eZHS6GqTFdcOAhAAAIQgAAEIJAXAvTc50WTbZwPOjHaWPlkHQItJEDZ00L4JA2BhAmEDTCWdNgApWc2M0jGI3UibtiwwZ1//vlOI/W17JNc8TJMFlf4PGnSJD8KXvs9qUNVhiUZnGTsqjYDSvFoJL/Kp0ceecQbi2655RZ/X2kGlPzr0D5O6ui1MGZkCudfHbea1aV8yb86XGW8UngtdRWlY1d+cRCAAAQaJaCyqdoSdDJAhY3yjaZJeAhAAAIQgAAEIACB2gjQ+quNF75TSIBOjBQqBZEg0AYEKHvaQMlkEQL/R0D7dhTP7rGZRDIQmXviiSe8IUblgw4ZfT744AN7fdwyTMGL0IUMOOPHjy+Ip1evXsGIeKUbXorJZkDZUk6aMXDXXXcF4c8++2y/V0nYAFUcXsYkLSllcussA5Y55d/C65lG9g8dOrTAv4xPki2KU/w4CEAAAo0SePzxx72BXrOLyjktgXrnnXeWe81zCEAAAhCAAAQgAIEmE6D112TARN98AnRiNJ8xKUAAAscToOw5nglPIAAB5/dSWrNmjdMhY1Cxi7IMk8JouaeNGzcWLOlUHFepey0RpSWolI4ZhF577bUCA1KpcHqmfaC03JUtb1XOnz3XzC7JGNW/haP8NBKcIQCBRgholqjK2kpOs1G1BxMOAhCAAAQgAAEIQKA1BDBAtYY7qcZIgE6MGGESFQQgEJkAZU9kVHiEAAQSIiCDk5bq04h/23tEHa+a8aT9qSrNEkhIRJ8M5WeStEkLAhCAAAQgAAEIQAACEIBA6whggGode1KOiQCdGDGBJBoIQKAmApQ9NeHCMwQgkBCBN998s2BpPJVVWj4vTZvaU34m9DGQDAQgAAEIQAACEIAABCAAgRYTwADVYgWQfOME6MRonCExQAACtROg7KmdGSEgAIFkCGzfvt3NnTvXzZo1yy1atMgvyZdMytFSofyMxglfEIAABCAAAQhAAAIQgAAEsk4AA1TWNYj8fpQvGCAAAQgkTYAO1KSJkx4EIJAXApSfedEk+YBA9gl89tlnvj25YsWK2DKjffi2bdvmjh071lCcWla1e/fubsmSJQ3FQ2AIQAACEIAABCDQSgIYoFpJn7RjIUAnRiwYiQQCEKiRAGVPjcDwDgEIQOD/CFB+8ilAAAJpIWAGqKVLl8Ym0tNPP+06derkdu3a1VCcGKAawkdgCEAAAhCAAARSQgADVEoUgRj1E6ATo352hIQABOonQNlTPztCQgAC7U2A8rO99U/uIZB3Ai+++KLfe+/AgQMNZfXQoUOua9euzIBqiCKBIQABCEAAAhBoNQEMUK3WAOk3TIBOjIYREgEEIFAHAcqeOqARBAIQgIBzLJ/MVwABCMROYOHChW7EiBHu3//+txsyZIg/jh496tN54YUX3Nlnn+3LnquvvtqtXbs2SH/Lli3u+uuvd+vXrw+ebd682V155ZXe/1lnneVmzJjhLC7z1NHR4Xr37u399OzZ0z3//PPez/z5873RSPXE3/72t2716tUWxFWSQ54ky7Bhw5zSHDp0qHv//fdZgi+gxwUEIAABCEAAAlklgAEqq5pD7oAAncABCi4gAIEECVD2JAibpCAAgVwRoPzMlTrJDARSQUAGIJUtdsioJKPRTTfd5J/JoPT4448HxqFVq1Z5uWUgUhjbZ8mW5DvttNPcI4884o1Tei/DkBmh3nnnHR+mb9++bubMme6SSy7x99OmTXMLFiwI0rjsssvcp59+6tOpJoeMT0pTad1+++3egGZ5MdlSARohIAABCEAAAhCAQI0EMEDVCAzv6SOgijkOAhCAQNIEKHuSxhJd5gAAIABJREFUJk56EIBAXghQfuZFk+QDAukhoFlKKlvGjBnjjhw54gVbvny5f/byyy8Hgu7du9dpxpJmGB07dsyZwUlGHt0PGDDAz2zat29fEObZZ5/18axcudJpX6ZevXp5PwcPHvR+FE7GKMWrtIuX4Isix6hRo7wBat26dUG6jz76qE8XA1SAhAsIQAACEIAABDJIgJ77DCoNkQsJ0IlRyIM7CEAgGQKUPclwJhUIQCB/BCg/86dTcgSBVhPQDKhOnTo5LZ9n7rHHHvPPNAtJhqedO3c6GY3uueced/rpp7tdu3YVGKDkR3suabaS/Mn/7t27/ZJ9mp00ZcqUwP8bb7xhyfizZjAtW7bMX0sW+Vf8ctXkUNju3bu70aNHe//2R/IoHgxQRoQzBCAAAQhAAAJZJIABKotaQ+YCAnRiFODgBgIQSIgAZU9CoEkGAhDIHQHKz9yplAxBoOUEio0+mpWkvaBU3pQ6zEAUngFly/GV8q9nd999d2CAWrFiRdk8h2WJIocZoCZPnlwQp2ZbyTCFAaoACzcQgAAEIAABCGSMAAaojCkMcY8noMYADgIQgEDSBCh7kiZOehCAQF4IUH7mRZPkAwLpIRA2+phU2gdKhibNgNq2bZvbunWrPzSzSfdyYQPU+vXrvbFKM6Q08ynsX9dals+MVIsWLbJk/FmzlTZu3Oivi2WpJseBAwe8oWnChAkFccoApRlZGKAKsHADAQhAAAIQgEDGCNBznzGFIe7xBOjEOJ4JTyAAgeYToOxpPmNSgAAE8kmA8jOfeiVXEGglgWKjj2TRXkxalu/LL78sEE1L7A0aNMgdPXq0wAAlg4/2cdL7sDPDlAxBmq2kMmzcuHFhL27gwIHBHlAmiwxLctXk+Pbbb/2+Uv369Qv2r1K4999/36eFAaoANTcQgAAEIAABCGSMAAaojCkMcY8nQCfG8Ux4AgEINJ8AZU/zGZMCBCCQTwKUn/nUK7mCQCsJmNHH9l2SLLrWDKhevXq5lStX+hlNd911lzfqTJ8+3YsbngGlB5MmTfLvtd/Tjh07/OwjLYOnmUiaASU3atQo7+fZZ5/1cWrpPJVr06ZN8+9lcNL97Nmz3ddffx1JDgtz3XXX+dlZMjpJdsWDAcpj5Q8EIAABCEAAAhklgAEqo4pD7O8J0InxPQuuIACB5AhQ9iTHmpQgAIF8EaD8zJc+yQ0E0kBAxh7b1yksjwxMMiCp3LFj4sSJTnszyRUboPR8/PjxgV+FkQFLs6DMHT582I0cObLAz9ixY52ey2mWlBmPFi5c6J9Vk0OeZPQyGXUeM2aMjwcDlEfIHwhAAAIQgAAEMkoAA1RGFYfY3xNQ5RwHAQhAIGkClD1JEyc9CEAgLwQoP/OiSfIBgewQ2LRpk9Oxf//+AqGLDVD2UrOntKeT9osq5+RHcdrMqLC/I0eOOFuCL/y8nBzmR3HK2KU9qHAQgAAEIAABCEAgDwTouc+DFts8D3RitPkHQPYh0CIClD0tAk+yEIBA5glQfmZehWQAArkgoL2X5s2b52cdrVixIhd5IhMQgAAEIAABCEAgbQQwQKVNI8hTMwE6MWpGRgAIQCAGApQ9MUAkCghAoC0JUH62pdrJNARSR+Chhx7yxqdu3bq5gwcPpk4+BIIABCAAAQhAAAJ5IIABKg9abPM80InR5h8A2YdAiwhQ9rQIPMlCAAKZJ0D5mXkVkgEI5ILA9u3b3bJlyzA+5UKbZAICEIAABCAAgbQSwACVVs0gV2QCdGJERoVHCEAgRgKUPTHCJCoIQKCtCFB+tpW6ySwEIAABCEAAAhCAAAQg0MYEMEC1sfLzknU6MfKiSfIBgWwRoOzJlr6QFgIQSA8Bys/06AJJIAABCEAAAhCAAAQgAAEINJMABqhm0iXuRAjQiZEIZhKBAASKCFD2FAHhFgIQgEBEApSfEUHhDQIQgAAEIAABCEAAAhCAQMYJYIDKuAIR3/mNY+EAAQhAIGkCdKAmTZz0IACBvBCg/MyLJskHBCAAAQhAAAIQgAAEIACBygQwQFXmw9sMEKATIwNKQkQI5JAAZU8OlUqWIACBRAhQfiaCmUQgAAEIQAACEIAABCAAAQi0nAAGqJarAAEaJUAnRqMECQ8BCNRDgLKnHmqEgQAEIMDsdb4BCEAAAhCAAAQgAAEIQAAC7UIAA1S7aDrH+aQTOMfKJWsQSDEByp4UKwfRIACBVBOg/Ey1ehAOAhCAAAQgAAEIQAACEIBAbAQwQMWGkohaRYBOjFaRJ10ItDcByp721j+5hwAE6idA+Vk/O0JCAAIQgAAEIAABCEAAAhDIEgEMUFnSFrKWJEAnRkksPIQABJpMgLKnyYCJHgIQyC0Bys/cqpaMQQACEIAABCAAAQhAAAIQKCCAAaoABzdZJEAnRha1hswQyD4Byp7s65AcQAACrSFA+dka7qQKAQhAAAIQgAAEIAABCEAgaQIYoJImTnqxE6ATI3akRAgBCEQgQNkTARJeIAABCJQgQPlZAgqPIAABCEAAAhCAAAQgAAEI5JAABqgcKrXdskQnRrtpnPxCIB0EKHvSoQekgAAEskeA8jN7OkNiCEAAAhCAAAQgAAEIQAAC9RDAAFUPNcKkigCdGKlSB8JAoG0IUPa0jarJKAQgEDMBys+YgRIdBCAAAQhAAAIQgAAEIACBlBLAAJVSxSBWdAJ0YkRnhU8IQCA+ApQ98bEkJghAoL0IUH62l77JLQQgAAEIQAACEIAABCDQvgQwQLWv7nOTczoxcqNKMgKBTBGg7MmUuhAWAhBIEQHKzxQpA1EgAAEIQAACEIAABCAAAQg0kQAGqCbCJepkCNCJkQxnUoEABAoJUPYU8uAOAhCAQFQClJ9RSeEPAhCAAAQgAAEIQAACEIBAtglggMq2/pDeOUcnBp8BBCDQCgKUPa2gTpoQgEAeCFB+5kGL5AECEIAABCAAAQhAAAIQgEB1AhigqjPCR8oJ0ImRcgUhHgRySoCyJ6eKJVsQgEDTCVB+Nh0xCUAAAhCAAAQgAAEIQAACEEgFAQxQqVADQjRCgE6MRugRFgIQqJcAZU+95AgHAQi0OwHKz3b/Asg/BCAAAQhAAAIQgAAEINAuBDBAtYumc5xPOjFyrFyyBoEUE6DsSbFyEA0CEEg1AcrPVKsH4SAAAQhAAAIQgAAEIAABCMRGAANUbCiJqFUE6MRoFXnShUB7E6DsaW/9k3sIQKB+ApSf9bMjJAQgAAEIQAACEIAABCAAgSwRwACVJW0ha0kCdGKUxMJDCECgyQQoe5oMmOghAIHcEqD8zK1qyRgEIAABCEAAAhCAAAQgAIECAhigCnBwk0UCdGJkUWvIDIHsE6Dsyb4OyQEEINAaApSfreFOqhCAAAQgAAEIQAACEIAABJImgAEqaeKkFzsBOjFiR0qEEIBABAKUPREg4QUCEIBACQKUnyWg8AgCEIAABCAAAQhAAAIQgEAOCWCAyqFS2y1LdGK0m8bJLwTSQYCyJx16QAoIQCB7BCg/s6czJIYABCAAAQhAAAIQgAAEIFAPAQxQ9VAjTKoI0ImRKnUgDATahgBlT9uomoxCAAIxE6D8jBko0UEAAhCAAAQgAAEIQAACEEgpAQxQKVUMYkUnQCdGdFb4hAAE4iNA2RMfS2KCAATaiwDlZ3vpm9xCAAIQgAAEIAABCEAAAu1LAANU++o+NzmnEyM3qiQjEMgUAcqeTKkLYSEAgRQRoPxMkTIQBQIQgAAEIAABCEAAAhCAQBMJYIBqIlyiToYAnRjJcCYVCECgkABlTyEP7iAAAQhEJUD5GZUU/iAAAQhAAAIQgAAEIAABCGSbAAaobOsP6Z1zdGLwGUAAAq0gQNnTCurpS/PYsWNu+vTpbsiQIe7MM890nTt39v+X9H1wtI6B9CB9SC/Sj/SESw8Bys/06AJJIAABCEAAAhDIFgHaH61rY1Rq39H+yNbvCGmTJYABKlnepNYEAnRiNAEqUUIAAlUJUPZURZR7D2PGjHFdunRx/fr1cxMnTnQdHR1uz549uc93FjIoPUgf0ov0Iz1JX7h0EKD8TIcekAICEIAABCAAgWwRoP2RXn3R/kivbpCs9QQwQLVeB0jQIAE6MRoESHAIQKAuApQ9dWHLRSAZNn72s5+5QYMGuY8++igXecp7JqQn6Ut6k/5wrSVA+dla/qQOAQhAAAIQgEC2CND+yJa+JC3tj+zpDImbRwADVPPYEnNCBOjESAg0yUAAAgUEKHsKcLTNzZw5c9ypp57qHn744bbJc54yKr1Jf9IjrnUEKD9bx56UIQABCEAAAhDIFgFrf0yePDlbgiOtJ0D7gw8BAs5hgOIryDwBOjEyr0IyAIFMEqDsyaTaGhJaIw9lvJg9e3ZD8RC4tQSkP+mRmVCt0wPlZ+vYkzIEIAABCEAAAtkhQPsjO7qqJCntj0p0eNcOBDBAtYOWc55HOjFyrmCyB4GUEqDsSalimiiWlm9j5GETAScYtUYiSp+41hCg/GwNd1KFAAQgAAEIQCBbBGh/ZEtflaSl/VGJDu/yTgADVN413Ab5oxOjDZRMFiGQQgKUPSlUShNF0oa/2kMIlx8C0qf0ikueAOVn8sxJEQIQgAAEIACBbBGg/ZEtfUWRlvZHFEr4ySMBDFB51Gqb5YlOjDZTONmFQIsIDBkyxJ188snuzjvv9BJY2aN7Pf/973/fIslIttkEjh075rp06eI3km12WsSfHAFtDCy9Sr+4ZAlY+ZlsqqQGAQhAAAIQaA6BK6+80g9UOnr0aHMSINa2I0D7I58qp/2RT72Sq+oEMEBVZ4SPlBOgEyPlCkI8COSEwNdff+1OOukk17lzZ/fTn/7UqezRWfd6rve4fBKYPn2669evXz4z1+a5kl6lX1yyBKi7Jcub1CAAAQhAoLkEZIDq37+/wwDVXM7tFDvtj/xqm/ZHfnVLzsoTwABVng1vMkKAToyMKAoxIZADAsOHD3c/+clPvPHphBNO8Gfd6zkuvwQ0+23ixIn5zWAb50x6lX5xyRKg7pYsb1KDAAQgAIHmEjADFLOqm8u5nWKn/ZFfbdP+yK9uyVl5AhigyrPhTUYI0ImREUUhJgRyQECznH70ox95w5PKHh26Z/ZTDpRbIQtnnnmm6+joqOCDV1klIL1Kv7hkCVB3S5Y3qUEAAhCAQHMJyAA1cOBA989//tP17t3btxG018tXX31VkPDLL7/sTjvtNP++V69ebv78+cH7b775xt14441uzpw57qWXXvL+zjrrLDd37ly3Z88eN3LkSB9Oz5YtWxaE08XmzZudZND/V72fMWMGs7EKCGXvhvZH9nQWVWLaH1FJ4S9PBDBA5UmbbZoXOjHaVPFkGwItInD99df7ZfdU9mj5Pd3j8k1AelbDH5c/AtKr9ItLlgB1t2R5kxoEIAABCDSXgBl/9P/t5ptvdmPHjvXGoG7dujkZluTuvfde/+zaa691r7/+up+BLf9Tp0717w8cOOC6d+/u/chIdf/99wf38ieD1R133OENU3ovo5PcZ599FoR55JFHfNtE/ocNG4YRyhPK5h/aH9nUWxSpaX9EoYSfvBHAAJU3jbZhflS5wkEAAhBIikB4FhSzn5Ki3tp0+D/TWv7NTh39Npvw8fHD/HgmPIEABCAAgewSkAGqU6dObsWKFUEmJk2a5I1Fu3btcl988YU3Ek2YMCF4r+X6Lr/88sCPDFUyQHXt2tXt3r3b+1u3bp0Pp9lVhw8f9s9Wrlzpny1atMgpjgEDBvhZV/v27QvifvbZZ70f+cVlkwB1pWzqLarU6DcqKfzlhQA993nRZBvng4K7jZVP1iHQIgLa8+mUU05h76cW8U86Wf7PJE082fTQb7K8lRrMk2dOihCAAAQg0DwCMkD179+/YMaRlsnTTCUZoJ5//nlvoLJZSybJhx9+6P8nLlmyxM+UkgEqbKQyo9SUKVMsSDDjSWH27t3rDVY33XSTO3jwoNu5c6c3Xq1du9anHQ4XRMBFJghQV8qEmuoWEv3WjY6AGSWAASqjikPs7wlQcH/PgisIQCAZApoF9eMf/5i9n5LB3fJU+D/TchU0VQD021S8JSOHeUksPIQABCAAgYwSKGWA0tJ4YQOUXYezuGbNmuMMUA8++GDgxQxQMjaZsyX39Gz16tU+vP6vljruvvtuC8Y5YwSoK2VMYTWKi35rBJYh7xoIMGvWLDdixAh3wQUXuB49erguXbq4E0880ZfTOutez/Ve/uRf4fLsUmuA0vq3r776qtNIjosuusj17NmzpML0XO/lT/4VDtc+BF555RX/A9YZBwEIQCApApQ9SZFORzo0ENKhh2ZJgX6bRbZ0vJSfpbnwFAIQgAAEskugmgHqueeeC4xR4VxqlpTqIZVmQGlJvnIGqPXr1/vw99xzj5/5tHXrVqdDHZk6h5flC6fLdfoJUD9Nv44akRD9NkIvfWFV5o4fP9716dPHl8nSbz2HwiuePBqjUmeAeuKJJ9yvf/1rr6hf/epX7sYbb3QzZsxwy5cvd9u3b3eHDh3yX5rOutdzvZc/+ZeCFV7x4PJNwDowtMmn9I4RKt/6JncQSAsByp60aCI5OfQ/BpdfAug3Od1SfibHmpQgAAEIQCA5AtUMUHPnzvV9FmFDkqTTbCebGWWznYqX4KtkgFIYDcrWgOywM8NUcXphP1ynmwD103Trp1Hp0G+jBNMRXvvs/eEPf/Dlu3Qa56F487SPXyp6VPbs2eP/YWoKmtbNfeaZZ9z+/fvr+poUTuEVj+LTP2LFj8sXAevAMKNT8X2+cktuIACBtBAoLmuK79MiJ3LES4AGQrw80xYb+k1GI8XlZfF9MlKQCgQgAAEIQCB+AtUMUDIU9erVyxubFi9e7GcmzZw503dWjh492gtUjwFKASdNmuTj0X5PO3bs8LOltJeUDFfMgIpf10nFSP00KdKtSQf9toZ7XKlqhtIVV1xR1uDUu3dvd91117np06e7jo4Ot23bNvfdd9/55HXWvZ7rvfzJv76JUofSycOMqJYboMaNG+c6d+7s/vjHP7pVq1bF9S34eBSf4lX8SgeXDwLlOizKPc9HrskFBCDQagLlyphyz1stL+nHR4AGQnws0xgT+m2+VsqVk+WeN18iUoAABCAAAQjER0AGqMGDB7ujR48GkYb3gNLDzZs3+9lK4Q5GreZy+PBhH8ZmM02ePDmIw4xS4ZlM4T2g5PHYsWN+yaZwvDJ2aRYULrsEqJ9mV3dRJEe/USil08/UqVP9hJdwmatrGZE0IEDGpXqcwil8KWOUJtgo3Sy7lhmgtNbtOeec42cqaRm9ZjrFrxlRSk/p4rJLoFpHRbX32c05kkMAAq0kUK1sqfa+lbKTduMEaCA0zjDNMaDf5mqnWvlY7X1zpSN2CEAAAhCAQLIEvvjiCycjkvZoitPt2rXLbdy4MRcj5ePkktW4qJ9mVXPR5Ea/0TilzVep5fb69evn5s2bF6uoik/x6jsJH0o/q64lBqhHHnnEA5w4cWKi3JSeFKf0cdkjELWDIqq/7BFAYghAoBUEopYpUf21Ig+k2RgBGgiN8Ut7aPTbPA1FLRej+muepMQMAQhAAAIQgAAE0kOA+ml6dNEMSdBvM6g2L84tW7a4Pn36FBiDzjjjDKelVJvpFL/S0fdih+SQPFlziRugtCfTf/3Xf7n333+/JayUrtIv3qSxJcKQaGQCtXZM1Oo/siB4hAAE2opArWVJrf7bCmaGM0sDIcPKiyA6+o0AqQ4vtZaHtfqvQySCQAACEIAABCAAgUwQoH6aCTXVLST6rRtd4gHXrVvnevToERiApDvNRLI9nZotkNIpnnkleSRXllyiBqj//d//db/4xS/c9u3bW8pI6UsOyYNLP4F6OyTqDZd+IkgIAQgkQaDeMqTecEnkiTTqI0ADoT5uWQmFfuPXVL3lYL3h4s8BMUIAAhCAAAQgAIHWEaB+2jr2SaSMfpOg3HgammlUbHy6//77G4+4jhiUrr4bOyRXlmZCJWaA0owjGX32799fB+b4g0gOycNMqPjZxhljox0RjYaPMy/EBQEIZIdAo2VHo+GzQ6o9JKWBkG89o9949dto+ddo+HhzQ2wQgAAEIAABCEAgeQLUT5NnnmSK6DdJ2vWnVbzs3vTp0+uPLIaQSl/fjh2SLysuEQOU9lzSsnetnvlUrBTJI7nYE6qYTDru4+qAiCuedFBBCghAoNkE4ioz4oqn2fkl/uoEaCBUZ5RlH+g3Pu3FVe7FFU98OSMmCEAAAhCAAAQgkByBZtRPjxw54jZt2uQ2btzodu/enVxmSOk4As3Q73GJ8KAhAsXL3rXa+GSZKTZCSc4suKYboJYtW+Ytc63a86maEiSXfviSE5ceAnF3PMQdX3pIIQkEIBAngbjLirjjizOvxBWdQNoaCBMnTvR1FwbQRNdhJZ9p028lWdP8Lu7yLu740swO2SAAAQhAAAIQgECYQNz10zfeeMOddtppwcwJxX/eeee5jz76KJxs066/+eYb1717d7dkyZKSadj7yZMnl3yft4dx6zdvfFqdn6lTpxb8Vlq17F45DsXL8UnetLumG6DOOeccp46SNDvJJzlx6SDQrA6HZsWbDmpIAQEINEqgWWVEs+JtNL+Ej04gTQ0ENc569uzpK8S9e/d2hw8fjp4RfJYkkCb9lhQwAw+bVc41K94MIEVECEAAAhBImMDs2bPd6aef7nbt2pVwyiQHgeMJxFk/XbBggW879O3b1/3jH/9wq1evdo899ljQwf7pp58eL0DMT8zAVM0ANWHChJhTTmd0ceo3nTnMrlQ7d+50Xbp0CX4faZ1hFJ6hJXkld5pdUw1Q48aNc/37909z/gPZJKfkxbWWQC0dDUePHvUdb+p806H7aq6W+KvFxXsIQCA/BGopGyh78qP3qDlJUwNh4cKFvjJ81lln+fPKlSujZgN/ZQikSb9lREz141Ll57Fjx+qWuThsqfjrjpyAEIAABCAAgTIEMECVAcPjlhCIs346ZMgQ161bN3fo0KGCvNiKVUn0hSrtrl27Vp0BhQGqQEXctIDAFVdcERifzjjjDPfdd9+1QIrqSUouyaeyQofkTrNrmgFqz549rnPnzm758uVpzn8gm+SUvJIb1xoCtXYwjB492hUfUSSvNZ0oceIHAhDILoFay4Tickf3UVyt6USJEz/JEIizAdioxFdeeaWftb1mzRq/jMZtt912XJQffvihu+iii3xFtFOnTu7RRx8tGKRR7b0ifOGFF9zZZ5/t47j66qvd2rVrC9J5/fXXfSNSbGQMmz9/fk3vCzy3+CZN+m0xipqTL1WuaVCQGkTqaNBeA7U6hf32228LgpVKp8ADNxCAAAQgAAEIQCBHBOKsn6r9oEH3xYN8VFcbNGiQe/bZZwvIVWoHfPnll07xbd261d19992+PaL2xnPPPVcQx5YtW9ywYcN8O2Ho0KFO259EWYJPxrAZM2YEywWOHTu2oD6pOmJ4+bGBAwc6tYvMSb7LL7/cdXR0ePnE8fzzz/ezvtatW+d+97vf+faN8l08Y0RhxElhFK8G/jXLxanfZsnYjvFqcKd0Y8fMmTNTjUHymaw6p3lwatMMUDfddJP74x//mGpFFQsneSU3LnkC9XQshH9kdh1V8nrSixo3/iAAgewQqKcssPImfI6a43rSixo3/ppHQLpOg9uxY4dvjGlkoBqQAwYM8EaggwcPBuJ98cUXvhJ68cUXuxdffNGNGjXK3//1r3/1fqq9lyfVhZRnNS4ff/zxwNC0atUqH8err77q319//fXupZdecpdccom/1/ctV+2995SiP2nRb4qQRBKlXHmmwVzqPNC3t3///khxmSctezRmzBj34IMPHhe2XHoWljMEIAABCECgEQKLFy92I0eOdPv27XNaLuyaa65xH3/8sXv55ZeDQTn63xZe/nj79u1O9SFrF+h67969XgzFMWLECDdnzpwCsZ588kl33333+cFBmzdv9vUtDQ666667CpYAfPfdd4POcC2/rE53+78aVT4lLGOC7f2jjvj33nuvQJ4kO90LEuamIoE466eaAaX4VL9SW6CSq9YO0PJ99r3ru9J3ee655/pnahfIyfhk39ztt9/uLH2Fq7QEny0zLoOWZJUhSWGsn1a/vQsvvDDIi75tGbXkZ8WKFT7tsHza42r8+PH+vcmsdovaRbrXViz2e7Z6psI8/fTTvp0lP9OnT6+Eq+53ihuXPgLhZe369euXPgFLSCQ57ftO63KBErtpX7zWH7SOihJ8UvlI8kpuXLIErKDXuRZnP7DwuZbw9aZbSxr4hQAE0kug3jIgXObYdS25rDfdWtLAb7wEpOc0OBmUJIvNRtJSMbpftGhRIN7zzz/vG3zWQaEXkyZNChpY1d5rRrjiVGeLOXWkqEGo0YsyfKkxGB5FacYwGQ7kqr23eNNyTot+08IjihzlyjEtUbpp06agEaTvLfwtVopb/v7+978HYdUpV+zKpVvsj3sIQAACEIBArQQ0g0Od5hoMceDAgaBjW/UEdaJbZ/jw4cN91Jo90qtXLx/mmWeecVOmTPH/w7TUmQxEFkfxkmLqjFeHoWYJhzvLlY4MRF9//bWfeaF7DShSp75mgej+sssu83Uxi1vPdJSST0JaOMmsjnTrrLdR8vZ/NalO91p10s7+pde4nGb+aPk7+15k4Lnqqqu8cTK851mUdsBnn33m49F3bDPdFYd+O/aty1Cre6VrTisyKP1KBih9n5LTZLI2hv1eXnvtNR/HP//5T4vWG3wVTm0TyWPyKX+2TYe1oUw+BdZv1n7vausoXRm6lKaczjJCa184GaXjdnHqN27Z2jU+zYiz34jO8+bNywQKyRmWu3hmX1oyEV+JFsrRE0884X/8oUeZuVShJflxyRCwCo/OtbrwD8yua42jkfRrTQv/EIBAegg08tu38iZ8rjULZr2QAAAgAElEQVRnjaRfa1r4b5yAdN1qp0aQRvxppJ4tT2azmawjRDJaA0uzl9TA2717d4Ho1d5rQ2I1SrUZsRpjqsBqhtU999wTjMrVknxios4OjQwOz8BSYtXeFwiUgps06DcFGCKLUK380kjSX/ziF/4bOemkk/y3pM60Sk4dBP/+97/dCSec4MNpJK2NSC0OVy39Yv/cQwACEIAABKIQsEE66vyWAUmDb9T5rBnoclYXK+7oDneoa08d1aM0iEJxqGM83OmteGw5NP3vs85yGZ7C20Hccsstfs+e8P9C1dHUSW4ztKrJt379ev8/9brrrguyrzTU6a6l01rR6R4IwkVVAnHXT/Ut6VvVLPXwjAmlY99wlHaAfbMWRhnRb0NL1ulbt+++eJl6fW/69sLhwhAsXPHvRQPp9JvT70VG4N69ex9XR3zqqacCY1Ip+bREn/Jps6SUbvj3rhmIeq8lxmXcVftHA6Pefvvt48KFZW7kOm79NiILYf9DIDxbTt9Zlpzk1TelQ/lIo2tKj8qvf/1rb01OY4arySQruOTHNZ9Aox0I9uMKn+uRulE56kmTMBCAQOsINPqbD5c5dl1PbhqVo540CVMfAem51U4jCO17Kz6rcyQ8UlCdCmE/GtWqZWXk1EAs917vwktkhOPQtY0SVFoagRt+r86UjRs3+jSqvW81y+L0lQ9cNAJRyi3t4aRZUKeccor/Rv77v//b7wdlhtNSKSlMjx49vP9TTz3Vd9zpeyznoshRLizPIQABCEAAAqUIhDuky3WGq6NbgyTUGW51M82Cmjt3rtNyfGFXLo5SBqjikfYyFii8OsP1P1Ud5KqjWV2sXNxh+ZQfGcM2bNgQFsuvVCTZW9HpXiAINxUJxFk/DRsyLVEZWLTXktKRQUp+orQDShl4FKfChg1QkydPtqT82b7ZagYoLb0XdvqO7TcX/u2E/WhVCPttlJJPz+y9hQv/3tUPHG7XFF8XL1tpcTRyjlO/jchB2O8J9OnTJ/gOZPjMkpO89t0qH2l0sbe49Q9SmY663EbaoEhuya984JpHII6OA/txhc/1ShyHPPWmTTgIQCA5AnH81sNljl3Xm4M45Kk3bcJFJyA9t9qpUqlOBO0boOXxtOa5zhrFKPneeOONAhHV2a/lVbTchRpcOsIdI+Xea+8C+dUMqG3btvkNhrXJsEYC6j7sNJJRGwrb8i7hddTlr9r7cFytvE6DfluZ/6hp11JeaYS1vk8rI3/zm9+UrVtrJPfvf//7wK+WV4my1Ekt8kTNI/4gAAEIQKB9CYQ7pK2zvFJnuEjpf5HqTfb/TteKR4MoLI7iGR3hTnTrLF+6dGkBeD3XACKL186K32ZoaXZVJfksP6qPlXKt6HQvJQfPShOQzuNwtsxjOSOKvkf7rqK0A+ybLTYkmQFKfamlZv7p96AZfMXhLI/lfi/6js0ApTRsNpSF09naO/ptlJJPzyyPFs5+Hwpj+9fKEPzVV18VtH/UDiplwLN46j3Hpd960ydcIQG1da2c1bm43VvoO313kjcsv/KTNhdPiRbKlX64v/rVr0JPsncp+ZUPXHMIxNVhEP5x2XUjEsclVyMyEBYCEGgegbh+41behM+NSB2XXI3IQNjKBKTrVjo1yDS6dvDgwb5DIyyLOhXUmLP9mbR2ebE/a3iqwVftvZbok6Hryy+/DCfjww0aNMgbESTL1KlTC95rs1417LTpcKX3auSlzbVav2njUUqeesop6dqWYxTjW2+91Rslw/HLUBVe7kLLBJXrKAuHs+t65LKwnCEAAQhAAAJhAuEO6Sid4RZW+85oRpFmYaijXP/z1NlvcRQbiUoZoMKd8ra3lOpTCxcu9J3hMmipjmad6BZ3sXEr3Fkf3tPKZNVZdTUtK9iKTvewHFxXJhBX/VT1MX03w4YNC/ZEspT1XV1yySXBco/V2gHhZSPD36ziMwOUfb+2b5OlpUFrylNxOHsf5ZvW0pT2G7BwyoOWKa+0NGY1A5TNZiwe0KffSHilCUszjnNc+o1DFuJwbtasWYEBJ2vL75n+wsvwKT9pc7H3qKhj48Ybb0xbPmuSR/IrH7j4CcTZUaACu/hoVOI45WtUFsJDAALxEYjzt11c7sRReYxTvvioEZMRiEPHFlc9546ODv//TptQl3I2clEjn2yPp2effdbPItGyLTfccINvPGkfnmrvrZGqTg/NoNKov7vuusunr82r5Sw9dYpo5viqVasKDGTV3pfKQyuftVq/rcx7lLQbKZ/UUXH22WcH9bU333zT73GhkaQ63nrrreCdBoDZ8yhymZ9G5LM4OEMAAhCAAARqNUBZ53R49Rzti6mBQTI6lZoJokEW2rvJZnGUmq1h4bRksjl1smv/G3W+K44onfXz58/3/2PDM19MvjvvvDNYQjDJTnfLD+fqBOKsn9pqBRdffLGvt6t9IIOQjFJKxwyZUdoBpb5Z5cYMULq29oYGFql9IqOTvl2l1YgByvY169u3r1u7dq2vU/71r3/18doylqXkq2aA0u9rwIABfhCe9n3S7BG1uySv2jV6H7eLU79xy9aO8Y0YMcLrW3oJ75uXJRaSW/LrUH7S5mI3QF100UV+HdG0ZbQWebQOqvKBq05AS6ZU21jaYom7g8B+WOGzpdXIOW45G5GFsBCAQOME4v5Nh8scu25cyv8s4aH4JC8uWQLV/pdJL610o0aNOm60X1ieBQsW+IqmluVTh8RVV10VVD4lu2Y0aW8CuWrv5UeNNC2dYd+3zhMnTgwaX1988YXvPAm/l8FK4eSqvfeeUvRH+WgnV+17D7NotPyUAerzzz93P/zhD/33pG9Re4Xt3r3b70mhe/E/+eST/XejvaDqcY3KWU+ahIEABCAAgXwRqNUAZbMmVE/TMsdaukszxPV/7aOPPvKzTTQjSh3v6tRes2aNO//88/17zSovN5vEjEsyFqiTXf9HR44c6cMpro8//jiSAUqDOjQiXmH+9a9/+XisjqjBQ63odM/XF9NYbqrVx+Ksn0rXU6ZM8d+Q4rVD9bDHHnusYGZUtXaA3iv8ihUrCgCEDVB6UZzemDFj/LdYyQAl42zx3lH6XZrBVvHqWzb57azZfuZKyadn+h3IwGYuvG+UnqlfUytKWJw6y/ik32MznOLHJUug0m/uggsuCHRvgy6Tla7x1CS3fb/KT9pc7F+8Cozly5enLZ81ySP5lQ9cdQLqMDjppJPc8OHDKxqimtExYD+s8Lm6xNF8NEPeaCnjCwIQiJNAM37L4TLHruOSuRnyxiVbnuOp9r9Mes6aU0eIRgmqs0NLYRS7au/lX6MjdZTb11OGJqWho5Sr9r5UmFY8y6J+G+FU7Xu3uOMqj7TM3syZM4MG0c9//nOfxP/8z/8Ez8x4amnXc45L3nrSJgwEIAABCGSfQLhDWp3OUTrDizvZVafQbBIZl+S0p6ZmRFmbQavtPPTQQ0GHunWWF+8BZbOXLNyll17q5syZ4+PRICHVzaLIp6X2wntJyeCgfJpLutPd0uXs/OCbSn1pzaifagbcv//9b6fluTUgSEbKcq5aO6BcuPBzGXzUTtDAozidBiypjaPfT9QB8VHT37x5czBYKmqYevw1Q7/1yNFOYSq1gXr06BGU01p9JIvOVk3Rt6X8pM3F3qPSpUuXgk2u05bhKPKoU0b5wFUnoKnbnTt3dj/5yU/cj370I6dNC4v/AdTSIaCKmkZGWEWrGWfFbxXCSjmsRe5K8fAOAhBoDYFafsOUPa3RUVpSrfa/jAZCWjTVHDnaTb/VvndRrqX8jKIV1Q01irRUvU6jumWkimN5k7jljpI3/EAAAhCAQHsTsE52dYiX6mhXZ7mWNC71rhI5/e9U5314M3k9KzcwqFJcWgZNMpQzOCTV6V5JxnZ7V60+1m7103bTP/pNXuOVfnOyAVg7ReVlFp3ktjyk0aYRuwHqxBNPLDnSNkvK00hh5QMXjcBPf/rT4COXMUqGKJsRVWtHgCpEo0ePDuKzH0+cZ8VfruJVnONa5S8Ozz0EINAaArX+dil7WqOnNKVa6X+Z/gfh8kugHfVb6XuvtfyM8mVYvev//b//V1DH++Uvf+kHBcVhfDI5miG/xc0ZAhCAAAQgAAEIxEWgUn2sHeuncXHNQjzotzVaKvebkw1AOtFR75LgrcnR96lKbstDGm0asfeo5OVHZErj/P36sJVYnHDCCcGHLn+nnHKK+/GPf+yf3Xzzzd//Iqpcpa0TWOJKfuUJBwEIZIeAfrN5KXsqlb28i/Y/KiqnSv/LsvP1I2mtBKJ+H3nzV+l7r6X8jMpbI781+jrMUaPGax0RHiU96m5RKOEHAhCAAAQgEA+B8P92rmtrn1Sqj8WjHWJJIwF+J7X9TuLkVeo3F44/jd9LVJnSnI/Ye9WZARX1s8iPv3IWZE0Pr3UUatoMULXKnx+tkhMIZJtArb9dyp5s6zsO6Sv9L1NFDpdfAu2o30rfe63lZ5QvgxlQUSjhBwIQgAAEIJBNAu1Yl4pDU5XqYzCNg3B640C/rdFNud8cM6Car4/Ye1TYA6r5SktTCpXW0DQ5a+nI0D4sSSzBxx5Qph3OEMgvAcqe/Oo27pxV+19GAyFu4umKr930W+17l3ZqKT+jaJM9oKJQwg8EIAABCEAgmwTarS4Vh5aq1cdgGgfl9MaBfpPXTaXfHHtANV8fsRugevbs6ZYvX958yZuYguRXPnDVCZx88snupJNOCvZ8Khci7o4MpaMCu/gol36tz5shb60y4B8CEGicQDN+y8XlTpyVx2bI2zjF/MdQ7X9ZnDrOP83s5bDd9FvtezcNxlUe7dmzx82cOTOos/385z/3SZxzzjnBsxdeeMF98803lnRd57jkrStxAkEAAhCAAATamEC71aXiUHW1+hhM46Cc3jjQb/K6qfSb69GjR9Au6ejoSF64GFKU3PqudCg/aXOxG6AuuugiN2PGjLTlsyZ5JL/ygatOYMiQIU6jWqO4uDsG7IcVPkeRo5qfuOWslh7vIQCB5hKI+zcdLnPsOo4cxC1nHDK1SxzV/pdJz2l1n332ma9kLl261It45ZVXukGDBrkoM30VoDi8WEyYMKFidsNpFIcPv1Mk27dvd/v27asYX6tfplm/zWBT7XsPp9louaTv8PPPP3c//OEP/XfaqVMnt3HjRr/v04YNG5zuxV8Nwi+++KLuTX8blTOcZ64hAAEIQAACEKiNQLvVpWqjU9p3tfqYMdUAHQ2Qnzx5cumIeJo4gSNHjrht27Y5W2K6HgFMv/WEJUx9BCr95i644ALfJpFepk+fXl8CLQ4luSW/DuUnbS72HpWbbrrJ3XjjjWnLZ03ySH7lAxc/gTg7COyHFT43KnGc8jUqC+EhAIH4CMT52w6XOXbdqKRxyteoLIQ/noD0nFZnBqAlS5Z4EYcPH+4GDx5cswFqxYoVPnwUA1Q4jUrpHzhwwHXt2tXdfffdacXn5UqzftMArpHySQaos88+O2gMvfnmm04zotRg1/HWW28F7371q18Fz2vJdyPy1ZIOfiEAAQhAAAJpIJDGwT3UpeL/MowpBqj42TYa4+rVq3399b333qs7KtNv3REQMFYCI0aMCNok1113XaxxJxWZ5NZ3pUP5SZuLvUfl1VdfdWpAZtlJfuUD1xwCcXUU2A8rfG5E4rjkakQGwkIAAs0jENdvPFzm2HUjUsclVyMyELYyAek5ra7YANSonFEMUOE0KqV/6NAhP2JzypQp4SCpu06zftMCq55yateuXe7qq68OGkK33nqr27t3b0GWZIx64IEHAj9qOBX7KQhQdFOPXEVRcAsBCEAAAhDIDIG0Du6hLhX/JwTT+JnGFeP69et93dUG8NUTL/qth1rzwsyaNStoj/Tu3bt5CTUxZsmt70qH8pM2F3uPiv4hKrP79+9PW14jySO5Jb/ygWsegTg6DOyHFT7XK3Ec8tSbNuEgAIHkCMTxWw+XOXZdbw7ikKfetAkXnYD03Eqn/XFsFok69NeuXRuIU2wAeuqpp9ykSZPcsWPHvJ9vv/3WjR8/3p111lnu/PPPd4sXL/b78WjmidyWLVvctdde65fi070MUHfddZd78cUX3WmnnebrRH/7298K6nXhNMqlf/DgwcD4oGVD7rvvPvf222+7P//5z27r1q0+bfujQT/XXHNNy5bqa7V+jUPaz7WUVzIsmX/x/c1vflO2bq0lGn//+9/7b01+X3vttUjfgsWvMw4CEIAABP4/e2ceg1V15v+kyXSZpkPSkEk64S+TmozpTxsbExPClDgxhjCOsQRjSBsZKW11KLFatBKpVFkUFwR3VFBRETcojgsiihRxF9nFgigKCmpBUCsuPb98Tvtcz3t5l/u+733v9n5P8i733rN+nrucc577PEcE+oFAUV/uUV8q/bPPmGIBxUs8y5Yt84WsWrXKzZo1y7s0xvU18ejnx9eteeSRR7wnAju+YsWKqJL8p/8fusnetWuXGzNmjHvttdd8vKefftpbUWzZssWPDxgjYNnOC0aXXnppNE5g//PPPx/l/dZbbznqRX8fLwiMJ3C5vHDhwigOfxiDkJb6cZw8w5eQaDdjGNLzmTlzZs3xmsyCjbvvvjsqkzELY54ZM2b4ulM3ymT8YgGL/IkTJ/r+p+1j/ARj6sbnlFNOcVu3bvWHyWPo0KF+/4gRI2qMF5DBiSeeGKWBYaNAvgrFIfD+++9H8kY2uFgsU6C+dr7yS3uKFnpyxv/Xf/2Xu/POO4vW1kT1od7UX6H3BLqdOAgvLvvfSa27rUcnZSqNCIhAfgS6vebtfhP+dtKabuvRSZlK0xkBZJ1XwCUw5TOQmzdvXjSQ3Lhxo69SXAHEoGrIkCEO3+QMqGyANH36dD+4svPW1nkyFxLmws8GssRjoGfl80YV+RHCMhqVzws95srguOOO81YuvCVIvgwMLTCQJW8Ga9Q5j0CdFJIRSHLfOnjwoNu5c6f71re+5eX9//7f/3NMmDGYbxRIY4v/fvvb33ZMgpgStV6aJPWol077REAEREAERKBXBJiEtzfQJ0+e7OhbjR8/3k/yM5lOv2jp0qU1xd9+++3+JR36QxYefPBBP4FO/+SYY45xpjggD7Mstpd7LB3PTevDoYxgXXM7Zvn28ld9qfTpGlOzerO++z333BNNNKMAMSUN8e0lNV7uYvu8885zS5Yscaeddprfpv9EIA+UOiiTLMTHBGE5llc4tuCFN9acsbHGq6++6rOyfEhDGShyLA51IaDEMcUSSiKuF+KjAKP/R5s599nHGIa28x/X3s3WoGfsQrzRo0f7cRNlsG3jjPi4hbpQ1hFHHBGtgUsbTzrpJJ/u2muvdbwIyHHyYSxD3U8++WS/jWKKF6cI1jc9/vjj3R133OGQDWkarSfEMYViEfjxj3/sZYZsOL/LFKgv9eZDO4oYenLG33bbbf4CL2KDW9WJGxP1V8iGgN2k7UHYTql2cYW/7aQnbjflt1uW4ouACBSHQDfXfnjPsf/ttqyb8tstS/G7J4Cc8whr1qzxnUgmIizwZiCTDjZAiw+kmHygL8Okgw0+w2csb03SHgZUhHrpGazhWsKCna+PPvqo3xWWUS+9lY/SgQGbueCjTkzMnHrqqdGkiKW3AamVmeVvXvLNso1plmXnQ3hehfkzcP+P//gPf559/etf92/SNpssIC3nBm/Yfu1rX/PpmKgwhWeYN/9blR+Pr20REAEREAER6DUB618xac4LQ0xC07+gT8Ukf3yS2+rDSz3Dhw+PXsKxCXSsU7Bg4Tj53Hrrrc6UWGzbyz08P60vRVk333yzVzoQZ9y4cVF/y8rr1S/lKaRLwJgi91BBgnKRY9a/plSUn+yzF8rOPPNMPx6wl3n4RSEydepUX8l6Cig7jywPK4c09pIYVkuUs3z58qixvHTGuWeKFsuHc9fScQ0Qx5RoKMaweiKuBSbQ2UfcuXPn+v9mjUWc9evX+7IbzdeiGKJu06ZNsyy9lRVKKxubWN2sjUSM80WhRD5/+tOfonwYfyED8qFNcRd8HKccXtwLmePhYdCgQTWWZpYpZSgUiwDKXOTChzFrmYK9/EDdaUcRQ8/O+IEDBzp7O7eIDa9XJ+pLvRWyJdDpRILdGMLfdmreabntlKG4IiACxSXQ6T0gvOfY/3Za2Wm57ZShuOkSQM55hHDwxcAGU3pc21155ZV+MMMALT6QCpVDDD7DSQ3awKDohBNOiAaA8fQMFm1wam1mYBkOfMMy4unDY/EBHfnxliODS97UJdBGBqTvvfeeFZf5b17yzbyhKRbY6D7GRBjWT3ZvZIKD8ydJIN4f//jHKK2dI2HaRuWGcfRfBERABERABLIkwAsTTP7h6piXbwjsGzVqVKSAqtcnIl7Yb9qxY4d/BtokPcfpt9Gfo69Evy/+co8pFig/dKeGtTnP4g0bNvj69PpLfan0CRvT+LlTT3lEHwoFiClWzFLukksucZs2bfLjh7CG9fKI9+mJE/bZLT314fPBBx94t3SmqGr0chvpOE+xFuLcNmXspEmTLEv/yxgHRRpW8VhscU7j0ply+Ozdu9ePa7iu6G/GQ6P6otRtRwHF9UbZ8RehGMPYdRhntW7dOn+9oTSmfYzZkAnux5FjvbWiTL7xdmg7PwJxN3yhojW/WrUumXpyPtmniO73aEXPZlTQ/P7yl79sTapAMagv9VbInkAnEwp2cYW/SWveSXlJ81Y8ERCB8hDo5F4Q3nPsf9IWd1Je0rwVr3cEkHPWgYGavfVq51n422gAFE5khP/D+o8dOzZ6Myo+gKLMcOKDdDbwtYFlmG88fXjM0oX52eQKC6MyeMTShTS0N6+Qh3zzamua5Ta6n6EsRUmKO5WkyierF5NrvLnKuRZP26g8S6tfERABERABEciDgPWF4pOVrP9i/bV6fSLqGvabGk2g2+Q2yoV4PqHlBRP4TDwyUY8rNsoOrWR6yUZ9qfTpGtO4zOspjyyOKaDoT9HfD8cOnGtvv/22r2i9POw8tjzqxaG/zjkV5mv/bZwQz8fI2BjD6tro3DQFleUb/zVX45av/darL8fYz3gjtBa0NnLc6mPjlfCatLz5XbRoUXQ9x9vIUi7xeobbq1evDrPy/zmuUDwCv/jFLyJZ8iJnGQL1tPON+hc19OyMR1M9YMAAh/uYMgTqSX2pt0I+BNqdWJgyZYqLf5LUvN1ykuSpOCIgAuUl0O49IX7fYTtJaLecJHkqTjYE8hog4J6CyQPcT7CwKIv58mFywRZGjQ+AwkETAz17489IMXDEBYcNsuLpbXBo8fm1gdnVV1/td4dlxNOHxyydlUViK59BsbmveOqpp8LiMv+fl3wzb2gPCqx3X+ONUd5e5S1tc73STtGki68XVa+cdvJUXBEQAREQARHoFQHrC7344os1Rbz++uvRhHW9PhGRw35Town0rVu3+snFegqocL0dm4AMfy+//PKaOvVqQ32p9Mka0/i5U+88IU5oAWW1QUGJVRHrKJEfyhv6afXy4Hwljiln6sVZtmyZj3PVVVc54jN/Stm4B7f+vl0Plo/VxcYYpmCycYUdp+/4xhtveAsiXFliMbVnz55o/MPYh08j6w6rL20OA94WWimgwvrXGz+R3y233BJdz/E2mttzlNBYa4VjNv7HranIz+Qb1lX/8yeA1Siysc99992Xf6Wa1ID6WV35zcrqtUmVGh7qmQKKEq+44go/8dGw9AIdYIKG+irkS6CdCQbeYOBGbp96Zrjx1rSTfzyttkVABKpLoJ17g+491T0PGrWMzlweYfHixd71BT7Nw4C1tq2jFB8AhRMZWKCgwArd29lERaO3FEl/+OGH17jqsDT2Zm9YRrPybYAZf8ORNwhx6cE6VvhFb7U+UNj2XvzPS769aEseeda7f3Zj0RZPWy//PNqpMkVABERABESgHgHrJ8XdbGG5FLeAsv6X5RP2qRYuXBjFt+P8vvzyy36CsZ4Cyl7mwfIYy6f4xHfoli/MM+3/6kulTfQrBUW7Cijio8Bh3bAw3HHHHdH5ZedaqKzBxRxyNMWRKXSwprJg6UIrdTv/rb8fHxtYWlNAMX+Hi7u4JRP1szWgbDwSKm6sXXPmzLEsa35t7aaVK1dG+60seyHP6mptJOLatWt9u+3avOiiiyJOlhF905NOOilaA8raaNe8Ke9svVxLh2KKsU7I0I7pmjESxfv93//930ip8/3vf9+/WFe8WjpfL+rHucSHehc59HxGhZvKddddV2QGvn7UU6EYBHo10dCrfItBTbUQARHolkCv7hG9yrfb9ip9cgJ5DRAYrDBxwSCSt5mYVLjssst8BzO+0K8NpMKJDBsMseYTlt64fyA/2mODNxtAhek5ziCRNXjYzxuVKKVsXYOwjHrpbZBnb0SOHj26Zl1QFGJWjwsvvDC5IHoUMy/59qg5uWTbq/tcr/LNBZIKFQEREAERqCQBcy/MWjNhsBeB6M/ZSzlmJUI8Jv+xvLB+k1mXWJ/M8mJi3BRZlo9N9ltfK76UhCmm4nlZnmn/qi+VNtHOFVDUhL465wxuIFEWsd494wnWT0KZwn5kdu655zrO39CKws6ZegooXiIjHcfoz+PFwPr0nO+MFeJjAyNjCii27VznvH3nnXecrWHDy2nUD6styqEd1A+XkhxjH22pF+xaoD4obbGUmjhxok9jL+5RZ/I49thj/diKtlr9TQFl1w7jJ8rFyov1qkhnL+PZGAvFLy8KUmc8TKBAY90nyl6yZIlPQxs4Hg/kp1BMAshv4MCBXn7Iqahu7UJ3gdS3kXVgUSj3/Iy3tzW4gRQx2I2NeioUh0DaEw5p51ccUqqJCIhAmgTSvleknV+abVVeyQnkOUBgEHfEEUdEHWDqwos9NpCxQZ65fWGQY4MsWshbfWF6JiwYfNoESL30P/vZz9zJJ58clcmA1XzGk2dYRr30Yfm46KDO1BsIY+kAACAASURBVCF0xzZhwgS/n/rlHfKUb95tT7P8tO93aeeXZluVlwiIgAiIgAiEBOgb0Z+4//77vSUSLwqxzeQ2Cig8KOAGjG0mqHGrN2zYMB/H+k1m4UGc5557zmG9ZIoBc/ltk+zhyz3XX3+9z4c+HhPsTKrT7+IFIllAhVIq13/rn5rM7eUxlEBxqxriIHNTHqG0QblJHvahP0+/ncA4gjU37Rjn3NKlS2vyCNc8MnKUwzjC0vFLf+2ss87y+1Bs2djArIMsbaiAYp9dI5YXx3nZzgL1sWP8otx58skn7XDd33i7afPZZ58dKXlJFM8XS7EzzjgjGhsR59lnn60pm/Kx/rKAZRUWUey3axOPDqYks3pzX4BZvUAcheIS4LwwOfI7a9asQlWW+oT1i1s8Fqqy/6hMJmf8zTff7P793//d++8sEgT8iVIv6qdQPAJpTTyklU/xCKlGIiACvSCQ1j0jrXx60Ubl2R6BIgwQdu7c6fiELi9atYIJDxvIMfhhsMQESOjnvFkeWECheDJlV7O4zY7xtm58TR/Wt2KgHLrWaJZHL48VQb69bF+Wead130srnyzbrrJEQAREQAT6lwB9nfHjx0cTgkzox115saYnSiGbNLzgggvcDTfcUDM5Tt8rrjjAWjzsL8Vf7qGfNnv27Chf8mfiHUuOrIL6UumTToMpChnOg0bnAnOiWE2E51eSljAmYYwQpmPc0e6YAStA8mlkufHJJ5/444xnwrJa1ZH62RgIl+a2BpSlo1zWk2o2rmJNKhTFKNQauQsnfbxeNn7CJWazkIZ8m+WvY90TCC2MkJd5IOk+5+5yiCtvi2qhFW9lJgooCsW08j/+4z+aXuDxyvVymxsF9YmbKveyTOXdPoFuJyC6Td9+jZVCBESgCgS6vXd0m74KDKvUhrIOEHCPQd1509YCL92wz96QtP1Z/dL/ssVdcU1RhFBW+RaBXb06dHv/6zZ9vTppnwiIgAiIgAhkQYAJfSa/mZRm0h9FFBPzFpjUZmK81eQ0igMmvm0S3dLbb72Xeyin2WS+pe3Fr/pS6VMV03SYMh6KK6DSybm7XCTf7vhllfrHP/5xjXI/byVUXPlE/coSMlNAAeS3v/2tV/rwUM4zUD7KJ+qjUHwCnU5EdJqu+ERUQxEQgSwIdHoP6TRdFm1SGZ0RKOsAAasnc+9CG+wzderUtt9Q7IxcbSreisSfOvVg8WFbU6o2VvZbZZVv9qSSl9jpfbDTdMlrppgiIAIiIAIikA0BFEhxBVQ2JWdfivpS6TMX03SYzps3z3tdCF2Bp5Nzd7lIvt3xyyo1a5T94Ac/iMbRyC0vd3xxt3vUi/qVJWSqgAIKFke4vctrTSjKpXxZPpXlFP17PdudkGg3frloqLYiIAJZEWj3XtJu/KzaoXK6I1D2AQI+2PHjzvnJorl5hi1btni/6rjUKEoou3yLwjFej3bvh+3Gj5enbREQAREQAREoEoFNmzb5ScvQAqpI9UuzLupLpUnz73mJaTpMWRcNV3pFC5Jv0STSuD6Mn+NKKNzeYdGaRaCcuDtA6pP3uL7dtmeugKKC5v6FRbSzDJTHRa41n7Kknl5ZSScmksZLr2bKSQREoMoEkt5TksarMquqtk0DhKpK9u/tknx7J9+k98Wk8XpXU+UsAiIgAiIgAukSwE3eq6++esgaMemWUozc1JdKXw5imj7TIuUo+RZJGq3rgqVR3B3f97//fXffffe1TtxFDPKnHM4X+1CPMlk+WfNzUUBR+Msvv+yGDBniF1xcs2aN1acnv+R/4okn+vIoV6G8BFpNULQ6Xt6Wq+YiIAJ5Emh1b2l1PM+6q+zuCWiA0D3DIucg+fZWOq3uj62O97Z2yl0EREAEREAERKBbAupLdUvw0PRieiiTKu2RfMspzbglEnIcPny4W758eaoNIj/yJf/wQ/llDbkpoAzYFVdc4QYMGOB++ctfuo0bN9ruVH7Jj3zJn3IUqkGg0URFo/3VaLVaIQIikDeBRveYRvvzrq/KT4+ABgjpsSxiTpJv76XS6D7ZaH/va6QSREAEREAEREAE0iKgvlRaJL/KR0y/YlHFf5JveaV66623uoEDB9YohpAnaxxff/31bvfu3R01jnSkJx/yCz+UR7llDrkroIC3b98+vyYTQLFUuvPOO91HH33UEVfSkZ58yI+1nshfoVoE4hMW8e1qtVatEQERKAqB+L0mvl2Ueqoe6RLQACFdnkXLTfLNRiLx+2V8O5taqBQREAEREAEREIG0CagvlTZR5yef089VORaFgK6Zokiis3q8//777n//939rlETI1D4okc4991y3YMEC99JLL3mllK0ZxS/KJvZznHj1lE6WF+VQXtlDIRRQIcTbbrvN/dd//ZcX2n/+53+6Cy64wN17770ON3p79uxxn332mY/OL9vs5zjxiI+ASE8+CtUmYBMXF154oZc72woiIAIi0GsCuvf0mnDx8qdvoVBdApJvdrLV/TM71ipJBERABESgfwkwV3bgwIGuAdxzzz1u6NCh7ssvv2yal/pSTfF0dFBMO8JWmkSSb2lE1bSiGzZscPXc8iHfbj/kS/5VCYWdUWHBxoceeshbMJ188snuyCOP9BZN//RP/+SFyC8WTuznOJZOxCedQv8QsIkMKZ/6R+ZqqQgUgYDuPUWQQnZ10AAhO9Z5lCT5Zktd989seas0ERABERCB/iLAnNhhhx3mLr/88q4bLgVU1wg7zkD9047RlSKh5FsKMSWuJBZKs2fPdj/+8Y+7UjyRnnyqYPEUh1dYBVS8otoWgUYEdONuREb7RUAEekVg//797p//+Z8dvwrVJ6DnTLVlLPlmL18xz565ShQBERABEegPAngL4kXtm266qesGSwHVNcKOM1BfqWN0pUgo+ZZCTB1VEuXRAw884M4//3z33//93+4HP/hBXYMa9nOceMSvotIpBCgFVEhD/0tJQDfuUopNlRaBUhOYMGGC+9a3vuX4Vag+AT1nqi1jyTd7+Yp59sxVogiIgAiIQGsCu3btcr/+9a/dunXr3GWXXeYGDRrk/vKXv/iEdoxn2NFHH+2Xgoi7prv77rvdv/7rv7rvfOc7bv78+e7xxx93M2bM8C7s/vrXv/qJxqVLl9ZU5Pbbb3dXXXVVjZu7+++/3x177LH+TfqzzjrLbdu2rSYN9cMTEHWhrFtuuSUqg/jsRwkV5puk/lbuMccc4xYuXOjmzZsnF3w15LPbUF8pO9Z5lCT55kFdZeZJQAqoPOmr7FQI6MadCkZlIgIikJAAVk/f/OY3/cCOX1lBJQRX4mh6zpRYeAmqLvkmgJRyFDFPGaiyEwEREAERSIXA5s2bfR+f5xSfYcOG+b7+n//8Z7+Ncunmm2925513nt8eN25cpDiaOXOm3zd69GivuCEueZx44onuiy++8MtFHHHEEe6aa66pqevpp5/uhg8f7uNwgOUlSIciDAUQ7vTY3rhxo0+3Y8cOvz1y5Ei3ePFiN3nyZL89adIkZ0ou4h933HHu6quv9vVrp/4jRozwLqDIg8+pp54atbGm4sEG8RTSJSCm6fIsWm6Sb9Ekovr0moCeEr0mrPx7TkA37p4jVgEiIAIBAQacAwYM8AMyftlWqDYB5Lxv375qN7JPW4dcka9CtgTUd8uWt0oTAREQARFIRsAUNSierO/3t7/9zaGUGTx4sDtw4ECUEdZOPM9YJP6tt97y/6dNmxYdf+edd7zyCAUUllIoh+opoFA0WZw1a9b4fB588MEonw8//NBbM40ZM8ZRF9ziodz66KOPojjXX3+9GzJkiPv8888dLvgox1zwJam/KbVQZhGf8N577/l8rG5RYXX+6LleB0qXuzT+6BJggZNr/FFg4ahqPSMgBVTP0CrjrAios5MVaZUjAiIQWj9x7+EjK6jqnxdHHXWUe+mll6rf0D5sIXJFvgrZElDfLVveKk0EREAERCAZAVNALV++PEqAAggrJCyTPvnkE79Ox969e71bPBRBKHpQCuEKDzd3YcAqyhQ4SRRQc+fO9fm89tprjnJZE4Qyr7zyysgdIFZPPEdRXL3wwguOuoQhXk439UexZfUPy4j/13M9TqT7bY0/umdY1Bw0/iiqZFSvXhKQAqqXdJV3JgTU2ckEswoRARFwzq/59C//8i9+0Pe1r33N/7KttaCqfXrgGuW6666rdiP7tHXIFfkqZEtAfbdseas0ERABERCBZARMAfXiiy9GCeJu+XiGhZ/LL788skqy9aIsMYqpoUOHJrKAwk0ffZIw7/A/yi7yx0KJMsNjxx9/vHvuued8sXEFVFr1tzbV+6UuCukS0PgjXZ5Fyk3jjyJJQ3XJioCeElmRVjk9I6DOTs/QKmMREIGAANZPX//61727ru9+97t+0Mcv7hHYr7WgAlgV+7tgwQLvm79izVJznPNyRb4K2RJQ3y1b3ipNBERABEQgGQFTQGFZZGH79u2+348VEtZG7777rv9gncR/3PKZWzysjcKARVNcAXXttdeGUbwlk1kZ4dobRRMWULt3764pi+0wfPrpp9793y233OLTkG7Pnj2HuPprp/7NFGhh2fH/eq7HiXS/rfFH9wyLmgNrvmn8UVTpqF69IiAFVK/IKt/MCKizkxlqFSQCfU3gf/7nf9w3vvENN2PGDM/B7j1ss19WFNU9PXjTdODAgW79+vXVbWQftgx5Ildb66APEeTWZLt/5lYBFSwCIiACIiACdQjUU0BhUXTkkUd6F3xhElPsoKx6+OGHvZJq5cqVURTWY2LdKFMuffzxx4esAYXCirwtDu71cOXHmlJhwP3fqaee6i2p+D9q1Kia/otZOVEXK8fWgGqn/qtXr46KpX900kknRXWLDtT5o+d6HShd7tL4o0uABU2u8UdBBaNq9ZyAFFA9R6wCek1AnZ1eE1b+IiAC9Qjo3lOPSnX3TZ061Q/8q9vC/msZEznIVSF7Arp/Zs9cJYqACIiACLQmUE8BRSrWQuLZhVLnvffe82svHXHEEX5tKCygTMmDFdLLL7/s126aOHGiT2OKoy+//NJbQxHniSeecFu3bnXDhg2riYMFEsePOeYYb92EhdVll13m45jFhK0Bdffdd3vrq507d7rf/e53fo0oPDJYXUaPHu02btzoG91O/VetWuXrP2XKlJq6NaOn53ozOp0f0/ijc3ZFTanxR1Elo3r1moAUUL0mrPx7TkCdnZ4jVgEiIAJ1COjeUwdKxXf96Ec/cjfeeGPFW9kfzUOOyFMhHwK6f+bDXaWKgAiIgAg0J2AKqHANKFJgjTJ79myvkOEZxgclEVZQFnbs2OGtmcLjZ599do0FEa71DjvssCifCy64wN1www01cagDyi3Lh1/WjDGLbRRM48ePrzmO1dSyZcusKu6qq67yx8mHtaWS1B+rq7Bc2sc6t2adFWVe5w91VOgNAY0/esM1j1w1/siDusosCgH/lLjrrrv8IoZFqVSn9cD90fPPP+8++eQT/9ZI3H9t0nx58G7bts1H37Rpk38I89BWKCYBdXaKKRfVSgSqTkD3nqpL+ND2vfTSS+7b3/62W7Ro0aEHtac0BJAfckSeCvkQ0P0zH+4qVQREQAREoDsCzDG9/fbb3kKoUU5YJGG5RMBaydaAsvgHDx70x1lPqlkgHz4fffRR3Wis94QCDEuqzz777JA4uOJjnagwtKo/815vvPGGb6MpvML0jf7rud6ITPf7Nf7onmERctD4I3spwHzQoEGuU91A9jWudoleAXXHHXdUQgF1yimneAUUIuPNEnzudhJuvfVWh7kxAWUWD3SF4hJQZ6e4slHNRKDKBHTvqbJ0G7dt6dKlXnkhS6jGjIp8BLmhfEKOCvkR0P0zP/YqWQREQAREIDsC99xzzyEKqOxKz64kPdd7y1rjj97y7XXuc+bM0fij15Dr5C8FVB0oOe5qqYBCU4hihwcKJrivvvpqVF180LKfz0UXXRS9XXHllVf6t4Mt3cyZM/1iiVHCf/zhjYw//OEPPj0mwzycCZgU48N2/vz53pIJH7j2lipmzfjSvfbaa326E044IXq7xBRQpJ80aZL3h0t+a9eujcyczz333OgNkmeffTbaj/UUb6nwBgnl0SbKxxpq2rRpvv4otMz/bmjibCbQLDxpJsua2PiHkDP4QVYKIiACIpA1Ad17siZenPLok+AOAx/eLCSrUHwCyAl5ITfrUxa/1tWtoe6f1ZWtWiYCIiACIvAVgXnz5vWFRx0917+Sea/+afzRK7K9y1fjj96xVc7lI9BUAYXCZfDgwX6BZhYzvP/++71yhkUXWVgRRQ3+aXft2uXf6uDhSjjzzDO9AufJJ590r7zyio+Ha7x4wNft8OHDHabDGzZs8Gn4RaGDIoeyd+/e7R588EGHwodyzCfvxRdf7M3ofv/737vDDz/cWzuFCigzs3vnnXd8vv/3f//nFUyYP+O798MPP/T7V65c6TB9ZnG/UaNG+bKxfsJXL/XCBd+RRx7p/eaiZBsyZIivE+3iIbt69eqovvjy3bx5s1uyZIlvs8z84hLvzbY6O73hqlxFQASaE9C9pzmffjhK32HgwIG+L4NvfgaG+/bt64emF76NyAF5IBf6msgJeSkUg4Dun8WQg2ohAiIgAiLQWwLMnfWDRx0913t7HoW5a/wR0ijWf40/iiWP5557zhuwHDhwwM/bM8/PHD86hmOPPdbP6U+ePLnGexp6gPPOO88f477Gf/QHBHQV559//iGeNG6//Xa/7t6XX37p9Ra//vWv3bp167wBi+kmSI/+gTX1yBc9w6xZsyIDGfJOUj/yMd0M+QwbNszrJXwF//HFGNjKQU/y9NNPh4dz+99UAYUbO1PuWA2p/IoVKxyKnddff93vxq8sQrv88sv9NtZE9957ryXxb5zWU0AheBMkFyoKJ+IBHmUO/m4J+J7F0umPf/yjd60X1gl/uCjCWLMpVEARBwUQ61uxcKIFLJxwsYdrPZRIBBRtjz32mFcu4fM2XBMLBpwYWGuFdSIdFlIowKy+W7Zs8fnhf9fK9zv01VMC6uz0FK8yFwERaEBA954GYPpsN30ULMLp+xx11FFuwIABUYeVc0SffBggB+SBXJBPO+sY9NkpnEtzdf/MBbsKFQEREAEREIGeENBzvSdYG2aq8Uc+44tW4zqNPxqesrkcWLhwYWQcwpy+eSxDjpdccklkPGM6A+by8fyGjuHOO+90N910kx/LM7/PvL/lcc0119S0h/EmLzyiT8AoJTxPUBBh0IMSiP0jR470RivTp0/322PHjvXjVMvb0tarH4VaOurMGNfahDEPAeMb8jj++OMdyy2NGDHCbxM379BUAYXWDIsftHgWAIuiCeXO+PHjfUMMEG7xCKYIsjTxbdtvyh1Lz+8LL7zgBRtX4PAGK5ZJpAnrxI33uOOO88K0cjgxLP3111/vLZ6sTPtF6XT11VfX1B8NIW0N18SyOtLeUHNJPrgMRDmFEozyTJkWlm/l6bd3BDhvFERABEQgawK692RNXOWJgAhUhYDun1WRpNohAiIgAiIgAs7Pq4mDCIiACBSJAHP2KJOYz2eenvl75vWxTCWgTzjppJO8tRDKI/O4hl7CAt7fzCMbeaDwiSugsHgyfYLlgeIp9IyCRzX0BugiLMydO9cbupiFVqv6YVDDGIqlhSxQBm1ET4NOAsMZDGXs5Ut+sayi3ZSTZ2iqgDL3c6ECCv/5WECxRtM555zjNXk0AO2gWUCZIsgaFt9mP9DRLGI6hhAJFs8UOKbQ4Rjl4trOFEJWJzSUAG5kAYVbQKsX+WC5hbUTH4SPiz8CJwnCbqSAQmOJwMI6YSllFlCm8CIvqz8nuULvCWgSo/eMVYIIiMChBHTvOZSJ9oiACIhAEgK6fyahpDgiIAIiIAIiUA4Ceq6XQ06qpQj0E4G4Aqqe8gjPZizVgy4AL2/cy9BVLFu2zC/LE/JqRwG1fPnyMKnXgZAeSye8veGiDwOfUEHWqn60B2XYm2++WZP3xo0bfd3Jk/o/8sgjvpz333/fG8w88cQTfr95gatJnOGGV0CZmzqUM2jU+LzxxhseNpU37R8KKbaBBShb84m1mVACmRbQFEnWjvg2+wFPmrVr1/pozz77rM/bLKAAj7kbAeUS5QLZtInEJ6BIIh9c6lk5oQIIl34I9N133/UaQOo9Y8YMb73Emk+cZLgQ/NnPfhZpLGnXpEmTfP6m8EJhxkk5Z84cvx9FFAqrxx9//BCFU1i+j6yvnhLg3FAQAREQgawJ6N6TNXGVJwIiUBUCun9WRZJqhwiIgAiIgAjIAkrngAiIQPEI1FNAmec2qy1xTAHFPlzYoUNgrMKH/8TBkoi5/npKonoWUC+++KIV4X/RZeAWz/K137gCqln9rD2hYUxYCIZBlm+939WrV4fRM//vZ+5ZryleOYOAgic8hjAIKHZsP5ZBF198sd9Go4a1UrjmE0qfcNtaefPNN0d5oAA644wzvHCxSkKofKwMU26ZAio8IUwZZeXEFUCktXxYS2rv3r1euWb5o0GcOXOmj4PSC9eDxMdyKnT5hzY0LJfF/1BgxctjG+WULKBM0r39RVYKIiACIpA1Ad17siau8kRABKpCQPfPqkhS7RABERABERABKaB0DoiACBSPgClszAVfPeVRXAFFK3DHx/z/okWLvHKKcQvKG1NAxZVE9RRQZshDfra2FJZVrAVlBjKLFy/2Ooak9QvXtAppY0yEW8GHHnrI6zKwvvrggw98OZSFJRS/ofu/MH1W/xPN3GNdhNVT3F8g+2mIBdZCajeguUMhZAFzNFPo2LGwXBb0Mu3knj17fFxL2+zX8grjcFKRhwmB9th/rKI4Hg/sg0XY7ngcbWdLQJMY2fJWaSIgAn8noHuPzgQREAER6IyA7p+dcVMqERABERABESgiAT3XiygV1UkE+ptAuwooFDgY2KCXsICeAK9rKJ3YH1dioWvAACW+BlSogLJ04fJAWFSdeeaZXgFFHqbcMuMbKz9UkLEcEvfa0JLJ6oenN3Mh+Oijj1py/2vtyttIJpECqqbmGWygyAIqGrt4wA0gAq+nHIrH1XZ/EFBnpz/krFaKQNEI6N5TNImoPiIgAmUhoPtnWSSleoqACIiACIhAawJ6rrdmpBgiIALZEmhXAWUKnMmTJ3tjFXQSt956q9dPrF+/3ntAwyAGz2isq7R161Y3bNgwfxxPcHhIM69toQLKlEsjR470Swyx5NHEiRN9OvJCz2FxmimgMJgZPHiwLx9PcOQzfvx4nw/rQKHUGjFihF8nivphOLNkyRJ/HCstjucZCqmAAurDDz/s12aKw0FjB8i8wcXrpe38CKizkx97lSwC/UxA955+lr7aLgIi0A0B3T+7oae0IiACIiACIlAsAnquF0seqo0IiIDzLvRQ8JiLOyyV5syZU4MGJZVZL3GAZXm4n4UflEIolwgs04NFlB2/4IIL3A033BDlYQqo+BpQZr1k6UaPHu2WLl3q88HIBkOcJPXD1V64lhRLCuEq0ML+/fvdmDFjovpRHsonFFx5h0IqoPKGovLLRYALSkEEREAEsiage0/WxFWeCIhAVQjo/lkVSaodIiACIiACIqA1oHQOiIAIVIcACqvt27d7C6dwySBr4cGDB/2aSvWOWZx6vyiHyDdc0od9nSxntHv37qbrOu3atcu9/fbbNUse1atTlvs0c58lbZXVEwKaxOgJVmUqAiLQgoDuPS0A6bAIiIAINCCg+2cDMNotAiIgAiIgAiUkoOd6CYWmKouACIhAhgRKqYBKcx0oXPmdfvrpddebylAOKqoLAursdAFPSUVABDomoHtPx+iUUAREoM8J6P7Z5yeAmi8CIiACIlApAnquV0qcaowIiIAIpE6glAqoTz75xJvCpUVDCqi0SOaTjzo7+XBXqSLQ7wR07+n3M0DtFwER6JSA7p+dklM6ERABERABESgeAT3XiycT1UgEREAEikSgZwqoq666yi+oNXjwYPfCCy/4Ni9YsMAvhMUiYMuWLYs4sIjWKaec4o+dcMIJ3iciB1kkiwW9eJixn8W8CG+99ZabNm2a27Bhg/vFL37hPv/8c78fa6YJEya4jRs3+u1m5Y0YMcLne9ttt7mf/vSnflEyn0hfpSOgzk7pRKYKi0AlCOjeUwkxqhEiIAI5END9MwfoKlIEREAEREAEekRAz/UegVW2IiACIlARAj1TQJ155plewXPTTTe5PXv2uPnz57vDDjvMWy6hkOIBxS/KI5RUF198sVcCXXbZZe7II490X3zxhVdKjRs3zqdHmYTiisXAcMFHHP6z79VXX/XiQDFlcRqVh5Jq6NChbtKkSV6RNXHixChNRWTad81QZ6fvRK4Gi0AhCOjeUwgxqBIiIAIlJKD7ZwmFpiqLgAiIgAiIQAMCeq43AKPdIiACIiACnkDPFFC4tbvmmmt8IVgyHXHEEW7NmjUR9htuuMHNmDHDvfbaa+7www+PrJiIO2vWLLd582avGPrwww99GhRHxx13nFu9erVPgwLqyy+/dL/73e8ceRHuuOMObwHVrDysqMLyPvvsMzdo0CBZQEWSKd8fdXbKJzPVWASqQED3nipIUW0QARHIg4Dun3lQV5kiIAIiIAIi0BsCeq73hqtyFQEREIGqEOiZAgqXes8//7znZAohHkrh59prr3UvvfSSGzJkiFcmhVBRFIVx7T9WUyitTAFFepRbWEyhoOJ4s/JWrFjhLaBQXhFQbFHXDz74ICxe/0tEgHNDQQREQASyJqB7T9bEVZ4IiEBVCOj+WRVJqh0iIAIiIAIi4PzcnTiIgAiIgAh0TgADnPfff7/zDAqesmcz96EC6qOPPvLu97Zs2eIVRbjd27Vrl3eBZ+70TCH06aefuvvuu8+tW7fOpzlw4IBjH2lQPOF2L1RAmbJp+fLlPj4WTc3KI19TXiEbM8+CWQAAIABJREFU4ps7v4LLStVrQECTGA3AaLcIiEBPCeje01O8ylwERKDCBHT/rLBw1TQREAEREIG+I6Dnet+JXA0WARFImQB6FPQTGNhUMWSigDIro9mzZ3uGKI2OOeYYd++993qFEg+rZ5991h9buHBhpBBiPac//elPfv+OHTv8WxXbtm2rUUBxcObMmf7Y1Vdf7eM2K++9997zcZ955hkfd9WqVVoDypMo75c6O+WVnWouAmUmoHtPmaWnuouACORJQPfPPOmrbBEQAREQARFIl4Ce6+nyVG4iIAL9R+DXv/61O/HEE72ntiq2vmcKKNaAMhd8gEPxgyaPBxOfSZMmRW73cItn+1E6YRVFwL2e7ef3gQce8PuxgArd9rFeFMdRTlloVt5jjz0W5YvbPvLCskqhnASQvYIIiIAIZE1A956sias8ERCBqhDQ/bMqklQ7REAEREAEREAu+HQOiIAIVJfAO++848aMGeP1CFgpvfzyy+6CCy7wxjG0+qabbnKzZs2qURxhZHP22Wc7vLpZWLt2rV8SiHHQd77zHTd37tzI2ok8bH+YDgMejHnQlfDBAAdXfWUMmc/c796927vIi8PCzR7rMGG9FIaDBw860gC9k9CovP379/t8O8lTaYpFQJMYxZKHaiMC/UJA955+kbTaKQIikDYB3T/TJqr8REAEREAERCA/Anqu58deJYuACPSOAMonFD8ojK677jo3bty4yKDlhRde8AVjgINhS+g6D+9upDNjF7yvcZ884YQT3B//+Ec3bdo0v01a0pkCijTnn3++V1x9/PHH3nsc6aZPn+6uueYan+awww5z6DTKFjJXQJUNkOpbfALq7BRfRqqhCFSRgO49VZSq2iQCIpAFAd0/s6CsMkRABERABEQgGwJ6rmfDWaWIgAhkS+Ciiy7yiiSWBbJw1VVXeUWQKaDMdd6XX35pUdw999wTKaA+++wzr0jCeurzzz+P4syfP79uPmaYg4UUii+8wFlYv369T3PbbbfZrtL8SgFVGlGpoo0IqLPTiEx7+7nJLViwwKGBP+qoo9yAAQP8jQ2++uTHADkgD+SCfOxh1J50FbsXBHTv6QVV5SkCItAPBHT/7L2U1a/Lr+/WrN+sfl3vz/2sS9C1pmst63OuiOXpuV5EqahOIiAC3RDAE9sRRxzhpkyZUpMNS/5wz0uqgPrzn//s4y9fvrwmn48++shhzYRlE+HMM8/0a0BhEUXf4rTTTnODBw92+/bt8x7j8Bq3d+9eN3z4cDdq1KhoWaOaTAu8IQVUgYWjqiUjoM5OMk7NYk2dOtUNHDjQ38gwK2X9NW5yCvkTQA7IA7nwoEFOyEshfwK69+QvA9VABETg7wQmTJjgTj31VD8QsUHOiy++mCke/JG///77icrU/TMRpo4jqV/XMbqeJ1S/rueIMy1A11qmuNsqTNdaW7i6jqznetcIlYEIiEDBCJgCas6cOTU1s/3tKqDiYzPyOfLII921117r8w8tqXC/h/KLe2u9T9zlX00FC7ohBVRBBaNqJSegzk5yVvGYKDZ+9KMf+UkrTDkVik8AOTHJiNyQn0J+BHTvyY+9ShYBEaglYG/M4frBFFCvvPJKbaQeb+FWgkFU6P+8UZG6fzYi091+9eu645dHavXr8qDefZm61rpnmHUOutZ6S1zP9d7yVe4iIALZEzAlEOszhcEsl5opoBYvXhy54Nu8ebNXIsUVUKwPFVpAhQoolFPHHHOMY3y1Z88e9+677/rP7t27HZ+kL/2F9c77vxRQeUtA5XdNQJ2dzhAuXbrUffvb33Y33nhjZxkoVa4EkBvyQ44K+RDQvScf7ipVBETgUALhgOXQo9nssTokcRWr+2f6MlG/Ln2mWeaofl2WtLsrS9dad/zyTq1rrTcS0HO9N1yVqwiIQH4EbO0mPBGFazctW7bMK5RMAcVyGSeeeGLkEo+x0BlnnBEpoN566y0f3yydrEXPP/+83//MM8/4XfZCoY2lGFsdfvjhNWWbYipulWV5FvlXCqgiS0d1S0RAnZ1EmGoi8dYeyotFixbV7NdGuQggP+QoS6h85KZ7Tz7cVaoIlIkAi8aOGzfODy5YRPZ3v/ude/PNN6MmrFq1yl1//fVu3bp17vjjj/fxxowZ495+++0ozs033+xfNsBv+L/+67/6ONOnT3e8fWfBlD9YQL3zzjvunHPO8ZZQdpznBD7EuW9hpcTCuOFCuStXrvQDJzs+a9asmvx5849J17Vr10bxsMa1t+84TlraePbZZ7sDBw5Y0XV/df+si6XjnerXdYyuUAnVryuUOOpWRtdaXSyl26lrLX2R6bmePlPlKAIikD+Be++9149xLrzwQsfaTyiduN/xMQXUzJkz/fYtt9ziUDZddNFFfptxG1ZOhPPOO8/vW7hwoR8nkZbjoYKJOIMGDXJPP/20Q/llCirGeTt27HDbtm1zjBMpe+PGjfnDabMGUkC1CUzRi0dAnZ32ZYL7Nlk+tc+tiCmQI/JUyJ6A7j3ZM1eJIlAmArZALYMLFD4oafiPq4VPPvnEN4X93Ev4MHi5/fbb/X/i7dq1y8fhrTqOo9yZP3++u+KKK/w2vr/tbbxQAWVuHmxQ9OSTT/r4J5xwgrvvvvv8grbkd9ddd/n8GeSwPXLkSLdkyRKHcovtsWPH+gVwiWR1YP+5557r1yLkP4Mm2mIKKOp9/vnnSwHlyWb3RT+gjG9CZkeoPCWpX1dsWelaK7Z82qmdrrV2aLWOS59AQQREQASqSMDGOdzn+LD+I2MeG2vhqg8rKTvOS3+PPPKIj2MKKCyXfvOb30RxiMvYzF7mgxsvJrKfMZ+l4wVAy9eOMbYrY9BTooxSU51rCHARKiQnwM2St5YVqkMAeSJXhWwJ6N6TLW+VJgJlI/D444/7AYMpkqg/a1Bw77C31uytugULFkTNwxqKOLxpR0C5xECE/RZQRBEHqyiLY64fbA0oBkXmpoGBkCm9cOvAgMfWa+ItvfDtO/KbO3euV5SZJRN1oDwbaBEHNxIMvmyAZEowcxvhK9bgi7wU0iGgfl06HIuUi/p1RZLGV3XRtfYVi6r807WWniT1XE+PpXISAREoHoEPP/zQe6jAAwXWSUcccUTNuIgas07TBx980LTyrOfEWG379u1143366ad+/BYeZAyHdwzyt5cPw+Nl+a/RX1kkpXo2JKDOTkM0hxxgUmjgwIF+AuyQg9pRWgJMaCLXJJN+pW1kASuue08BhaIqiUCBCHzxxRd+AIESiMViX331VXfppZfWKHKwgMLVwv79+2tqjjKHN+nIA3/go0aNqrnHkycDn6uvvtqnM+UPbvVCBZT9f/TRR2vyx03fyy+/7PcxkCE/3t7buXOnV3Rh8VRPuRS67UMhFsYxv+XUuVXQ/bMVoWTH1a9LxqlssdSvK57EdK0VTyZp1EjXWhoU/56HnuvpsVROIiACxSbAmKmeAqrYtc6/dlJA5S8D1aBLAursJAfIG9ZMaClUjwByDd+gr14Li9ci3XuKJxPVSASKRAClkvn75n4RfsySCAXU0KFDa9Zjog2hQgll0DXXXFPTNFNA2WK2YXxTOlGG/X/llVdq0ocbxLH1p8I6hsqlMH9LS7pWcSxu/Ff3zziRzrbVr+uMWxlSqV9XLCnpWiuWPNKsja61dGjquZ4OR+UiAiJQfAJYQTEGwo25QnICUkAlZ6WYBSWgzk5ywTCJdd111yVPoJilIYBcka9CdgR078mOtUoSgTIS+N3vfudd57HYOW4TcJ/w+uuvH2IBxVpOcashFD5MirGfe/vll19eg8AUUKaYChVEpnRCAWXrQT3zzDM16c2NBC4kjjnmGP9hEIVrB970X7x4cUvlkhRQNUhz2VC/LhfsmRSqfl0mmBMXomstMarSRdS1lo7INC5Kh6NyEQERKAeBLVu2HOLBohw1z6+WUkDlx14lp0RAnZ3kII866ij30ksvJU+gmKUhgFyRr0J2BHTvyY61ShKBMhLAJR3KpdA96p133ukVUGaRZGtAbdu2LWoiyqHDDjvMTZkyxe9DucT2wYMHozhr1qzx+bRaAwpXe9yrrrjiiigtf0455RS/BhRWWriQCBVc1Je682YfdSGECi7LKK6AMhd8YXstbvxX9884kc621a/rjFsZUqlfVywp6VorljzSrI2utXRo6rmeDkflIgIiIAJVJSAFVFUl20ftUmcnubAHDBjg9u3blzyBYpaGAHJFvgrZEdC9JzvWKkkEykgApQ1KnOeee86vAWXKJ+4dS5Ys8U0yBRQKpq1bt/oPyiHibNiwwcchH7bHjRvndu3a5Re8JT4fWzvKlD/xNaDIYPLkyT793Xff7S2c5syZ47fvuusuv/YTCqiRI0c6lGBvvPGGmzhxoj9O3Tdt2hTV4cQTT6xxFRhXQOFukPWssKTCsqpZ0P2zGZ3kx9SvS86qbDHVryuWxHStFUseadZG11o6NPVcT4ejchEBERCBqhKQAqqqku2jdqmzk1zYYpWcVRljSr7ZSk28s+Wt0kSgbATeeustryTiXsEH5cyTTz7pLY++853vuA8++MCxBhSKJFP6WNz/+7//i5qL66df/epXbsSIET4f4qAcwr2ehQkTJrhTTz3VK4jMBd+LL77oD3/++eeH5D99+nTHfsKKFSuifMl79OjRbunSpX4fyincAKIEGzVqVFMF1KpVq3wa2vaXv/zFqlb3l3IUuicgjt0zLHIOkm9xpCNZFEcWvaiJ5Ns9VTHsnqFyEAEREIEqE9Dor8rS7ZO2qbOTXNBilZxVGWNKvtlKTbyz5a3SRKCMBFDyYFXE2koWcKW3d+9ev4kCCssi3Na99957Pi5rRYUBBdSNN97od+3cudOvJ5XEzV2YB/9RCpH+wIED8UPekmr79u3u/fffj45hXcUiu+2ETz/91FtVtUqj+2crQsmOi2MyTmWNJfkWR3KSRXFk0YuaSL7dUxXD7hkqBxEQAREICeAKPRybhcfK+F8KqDJKTXWuIaDOTg2Ophti1RRP6Q9KvtmKULyz5a3SRKCKBFBADR06tMayKN5OFFDXXHNNfHept3X/TEd84pgOx6LmIvkWRzJFkQWTUbwsEH9hoDik2qvJxx9/7PjkHYoi37w5dFO+GHZDT2lFQARE4FACtmYv3iiqEKSAqoIU+7wN6uwkPwHEKjmrMsaUfLOVmnhny1uliUAVCcybN8+Zm7tG7Rs+fLibMWNGo8Ol3K/7Zzpiy5Pj66+/XuO6kbrY56yzzvKWeum0sn9zyVO+/Uu9fsvzlgXWpRdffHF0jdm1xgsKoYVt3AVr/dZ0v9esd1l3MEn461//6t3PsgYhASveKVOm+Pa0egYmyb/bOHnLt9v6550et8EwDN0H510nlS8CIiACZSeAC3TzlFH2tlB/KaCqIMU+b4M6jMlPALFKzqqMMSXfbKUm3tnyVmkiUEUCuN3bunVr06a9+eab7p133mkap2wHdf9MR2J5crSJ7mOOOcbNmjXLK0lRlP7sZz/zE5GsedZqLbB0KFQ3lzzlW12qnbUsT1mgvBk8eLC/rsaNG+deeOEFt27dOjdz5sxDrjW7LonTy5DEejcsP66Awr0r6x+yfuErr7wSRs3lf57yzaXBKRZqyqcLL7xQSqgUuSorERCB4hLgpRDco7MmL88PLJXi47ldu3b5NXQ5fvTRR7t77723xuPFTTfd5NfcXbt2rVcyEY/1fM3lHsfZx9q6Z599dl0X6sUlVL9mUkDV56K9JSLARamQjIBYJeNU1liSb7aSE+9seas0ERCB6hDQ/TMdWebJ0Sa6GSDHwwMPPOAHzcuXL48f0nYbBPKUbxvV7Iuoecri+uuv99dTvWttxYoV/tgVV1zh5WDX5Zo1a3oql3YVUPHKYDmF5dPmzZvjh3LZzlO+uTQ4pUJN+WSWT/HtlIpRNiIgAiJQKALnnXeef/Zee+217u677/bPMxRFeAcg2LMYBdXNN9/sLD4vkZjlMBbMPHv4nHvuuW7q1Kn+/+GHH+5YD9gUUORx/vnnSwFVqDNAlelbAuowJhe9WCVnVcaYkm+2UhPvbHmrNBEQgeoQ0P0zHVnmydEG1wy+48Hc89mk+O233+5uueUW9/LLL/tBOoNxAlYRs2fP9m+QMsDGooM1biysWrXKMfmOtcfxxx/vB+Zjxow5xL3fypUro7dHjzzySG+RhYWFhU7Lt/R5/eYp37zaXNRy85KFWQ4NGTLEff7554fgYSILq0Mmsvhv1+UjjzziLr30Un/NMCm2aNGimrStrj0iY3lrE2TkQX52fcYVULjU41r+1a9+5d56662astigPFwILlu2zB/nbW6Ykj9u+UifZ8hLvnm2uduyGymbGu3vtjylFwEREIEiEOB5xgsU4fq8WPzTj33qqaf882zEiBHecvnAgQNRlVFU8azZsGGD34d7PbZDi2X61ORjHgTkgi/Cpz8iUAwC6jAml4NYJWdVxpiSb7ZSE+9seas0ERCB6hDQ/TMdWebJ0Sa661llPP30035QvWTJEt/QM888029TXz4LFy50H3/8scN9H9vTp0/3A3n+45Zr//79Ph2T3JYG5RSKJLYZnOPahGBljRw50lEeeRFn7Nix0aR2p+X7AnL8oh0KxSCQlyywEKLseoreemTsuiQN1xeK36FDh/o8zEolybWHEonrjM/8+fPd5MmTfR4ogFEWhQootu0aW7p0ab1q+euda5sJO/I+44wzfH6jR492V199dXSt1k2cwc685JtB03pSRCslU6vjPamUMhUBERCBDAjYiyH2fNyxY0fNM4wXNXje/f73v/eWTLjU27t3r9u2bZt/plq/2ZRLZhFF1XnhinxNAcWzlTWgvvjiiwxa1vsi1KvtPWOV0GMC6jAmByxWyVmVMabkm63UxDtb3ipNBPqVgE0ovvjiix4BAxZ8hIcDlmZs4ul54zx8a69eWtblaKeMenk026f7ZzM6yY/lydHOq9NOO83hao+JZz5XXnmln1gOB9D2lqdNgNPCuXPner/2r732WtTg9evX+7S33Xab34e/fNq4YMGCKA6Dc/ax3gjhoosucrgrCa1DyJvBv7152mn5UaE5/clTvjk1ubDF5iULu85Wr16diI3FHz9+fDRhtW/fPn892H0/ybWHuyCsnsjPAtaI7GNiDAWUTYqZ8umJJ56wqIf8xt8YZzKNN8iLsP4Tlc1LvoeAKsGOpMqlpPFK0GRVUQREQARqCGzatClam5HnBx+shLG+txdHbH/89/LLL/d51VNA8cyN95951iYd89VUsoAbUkAVUCiqUnsEuKAVkhEQq2ScyhpL8s1WcuKdLW+VJgL9SsAmFM1FA8qhUaNGJR6MWHqb6EuigLI37no14NH9M52zOU+Odl5Rh/gHy4twbRcG2YMHD46URFhMoLhiH5PjH3zwgf/whujw4cOj85tJ7kGDBkUWUUaN/IjHJDaKJya3serYuXOnf3uUczw+gO+kfCsvr9885ZtXm4tabl6ysOvM7t+t+Fh8e14Qn+sNd0AooJJceyhuUQ5NmjSppjjWpHj++efdZ5995hVQXOemfLr//vtr4sY34gootlESh/WMp8lyOy/5ZtnGNMpqV6nUbvw06qg8REAERCArArt373aPP/549CxEubR9+3bfL+aFLPq17777rv9gCcX/8OWouHKJZ3i8/xqPk1XbelGOZu57QVV5ZkpAHcbkuMUqOasyxpR8s5WaeGfLW6WJQL8SqDeh2A2LJAqoem/ldVNmPK3un3EinW3nydHOS9Z5MiUQk8rh2kvWqvj5hLKICW7qX+/Dejcol0I3X5YXv2F+1MPWhwrzajaAT1p+WGYe//OUbx7tLXKZecnCrjOzCqzHCMsj3E/ywoDFjyt27L6f5NznGub6NDdB9co060S75si/mYsgKaDqUSzXvk6VSZ2mKxcd1VYERKBfCJiCKf5iCC9WoSziOct6pLjgC4Ols+dz2Je1eDzDw/6rvRDIyyNVCFJAVUGKfd6GvAYEZcQuVmWUWvI6S77JWaURU7zToKg8REAEIMDb48cee6yfjD/rrLO8n3AjE59QZD0OXCHZYOTTTz/1i78fffTRbtiwYe65555z9913n38jjzxYSP6cc86JXCkxUXjZZZe5xYsX+0EO97I//OEPNYqDeoOiZnW0uib91f0zKanm8fLkaOdlkrVp4ucTk9FYT5xyyiluz5490duhvEnKh7dECSigTBkVkiA/LKAsH/JiLSjeLOW6sHPbfOh3Wn5YZh7/85RvHu0tcpl5ycKUQY1comKNxESXvSFt16VNcBlTU0DZNdPs2jMlFWszheHgwYPujTfe8Iourk3c8a1du9Y98MAD/tnVzApKCqiQZPn+d6tE6jZ9+YipxiIgAlUlYM+zE044wW3dutWx5tNTTz3ln4Pz5s3zzWacRr+BFznee+89b+3Lix1x99D27DZWcQUU7nDxBEAfl+d92YMUUGWXoOrvL2xhSEYgr8FTstopVrcEJN9uCbaXXrzb46XYIiAC9Qnwhhz3EybJGbgwOGF748aNPkF8QpGJRJuUx/LEFpifPn26mzhxok9Lelvvw3yR24Qk5XCcz8yZM/0bevwPXZTFJ+xb1bF+yxrvpTyF7gnkydHOy04UULSccyy+dpNNjs+ZM8fDMSsLFm62YIs7T5kyxb9lyoDe/OkTBwUUb4zyBilxCfHz2fa1Kt8nzvErT/nm2OxCFp2nLLi3Uz6KnnjghQSOmfLHrku731t8U0Cx3era47nC88CeM5bHHXfcUbMGFM8erjd7DnHNoVCuF2zCzp5LbMsFXz1SxduXlvIorXyKR0g1EgER6DcCq1atisZSPIP5jBkzJnKvx7Nx9uzZNXF4WQorKAs8i+Mu1eMKKCvH1l+0tGX91eivrJJTvSMCXOwKyQikxQoXDyeddJK/ocZNT5PVpHixbMBmi7wXr4ata5SWfFuXpBgQEG+dByIgAt0SWLNmjb+XPPjgg1FWTJrzRjsDGQYw9nyyCcVwMv2hhx7y6ZnYsWCDFVMM1EvPRGE4CLKJoUcffdRnE5aRpI5WdtJf3T+TkmoeL0+Odl7ZedaspuZCJFxTjLVkqD/n2o4dO7zVH+c8+0z5agooJqp5y5QPlhvE2bBhg7eAQgE1cuRInx7rDFPCco6zSDSh0/KbtSmLY3nKN4v2lamMPGXBM4HznDpceOGF3upo3bp1/j/7UBaxPhPBrkt7XhjjUAGV5NpbtmyZL4+XD7CiXb58ud+251LcPSb1oS5czzy34kEKqDiRcmxb3yDsY3RT87Tz66YuSisCIiAC3RDAKpixFB+ek/UClvhvv/12ZNlfL06rfXi64BlahaCZ+ypIsc/bkOeAoGzo02JlgxvyYyBUhWBtig/YytS2tORbpjbnWVfxzpO+yhaBahCYO3euf6P8tdde89YauB5jIpGFa3G5wMAl/nwKlUNMrOOKLFx7g8k/3ELYm+bx9ExETp06tQaguXmyNGEZSepYk1mCDd0/E0BKECVPjq+//rqfcL755ptb1nTChAmunguxpUuX+jxoBx/e8HzyySej/JjkRvlkSiWLF06GrlixoiaP0aNHO8uXSXuujU7LjyqS05885ZtTkwtbbN6y4Fkwfvz4mnOdOmEdhQWSBbvfx18QDBVQxLVrxK6p+LVHnAULFtSURx64uSRwbcZdB5ml1sqVK32c8IvJM16sMOtGU0gVZdyVt3xDVkX5n0RZhAtGLOMuvfRSN3nyZP/LNvsbhST5Nkqr/SIgAiIgAuUlIAVUeWWnmv+DgDqMyU+FtFjNmjXLTxKw3gQTA/v3709eiYLGtAFbUQZCnWBKS76dlN2PacS7H6WuNotAegRQFDGhx72k3gcLjlYKqFBRFNZs7Nix3vUD++LPt/hEJHFsMtCsWSxfJu+T1DEsO8l/3T+TUGodpwocUbjydigT2+FEOq23SW6uFXzoY+Fklh4hHfqhvIFqa0dxjH0oVluFZuW3Stvr41WQb68ZZZV/UWTBM8HeuD5w4EBXzU9y7mN91e3b211VMqPERZFvRs1tWUwzJRHKJfoI//Zv/1a37wJLPhwnXj1lVLP8W1ZOEURABERABEpJQAqoUopNlQ4JqMMY0mj+Pw1W9gYbvvd5w408WXQvDJiJ3njjjdHi5rhLwW2KhVbHibdr1y7faSV/FF24YQldt7TKo9Vxq4v9xifo2E+H2dbW4M1A3gIP3zJnouSuu+6KFo7njfNFixZF9YTV2Wef7V3A4F7JFpjnDbH4JIvVo5vfNOTbTfn9lla8+03iaq8IpE+AxWVRNGEBtXv3bj8Jz0Q8E+lsE+LPJ1MO8UxEORR/C53J+hEjRjS1gDJLJ2uRKaBs0fmwjCR1tHyS/ur+mZRU83hV5xh389WcRvWOVl2+ZZKYZFEmabVfV8n3K2aNlEO8BPDzn/+8qdIJjvU+pCN9GBqVE8bRfxEQAREQgeoQkAKqOrLs25aow5hc9Gmweu6553zHEksh3izFAoqJKia8LDBZRVm8SX333Xd7v+UocHDXQmh13CbbmJTDtYvFHzduXKTcsX2dlmF1tV8r0yygbA0NlEp//OMf3bRp03ybmOwzJRSLt9NO/KOjeMIVEtu4rCB8/PHHkc929l9yySVRHNzBpB0oQyE7AuKdHWuVJAJVJbB48WJvUfzWW2/VNJHnirksiz+fQuUQLzTwrAwndjZv3hw9g8m0XvrDDz+8xpLE0rDOByEsI0kdayqfYEP3zwSQEkSpOsd58+b5fpT1uxIgqVSUqsu3TMKSLMokrfbrKvn+nVkjpdDDDz9c1+Lpe9/7nvvJT37ifvvb33oXfPyyzX6Yhh8sosgnDI3KC+PovwiIgAiIQDUIaLayGnLs61aow5hc/GmwQnGC0slcoDBJFU5+2VvU4dvVuIsgDpZSrY7bm9ssqBu6lkAx7K6lAAAgAElEQVSRRf3DRac7LaMesXCC7rPPPnPHHHOMX+g6tFSaP3++rwNKKvYTZ9KkSVF2VndTyNFW/J2zjodNDhLnpJNO8m+spz2hkoZ8o8boT0sC4t0SkSKIgAi0IGDPR54nPN+wfrrsssv8s8ZeZgifT2QXKodsHR5ellizZo1bvXq1f95yf7K1Nuql5zgvVGBtzDON5zpKKZ5/BF6oMMuqJHVs0cxDDuv+eQiSjnZUnSN9p9CCviNIJU5UdfmWSTSSRZmk1X5dJV/nGimDWNMJPuEHJdNjjz3WFDTHiRem4z/5haFRuWEc/RcBERABESg/ASmgyi/Dvm8BHRmFZAS6ZWWTUFgDWXjooYd8x3LJkiV+lyldUDihsNmxY0eNdVSr4/gaZyKMt79RcuGGaO/evW7btm1+Uu2mm27ySiwUO52WYXUPf8MJOvtvb4JbPLP4MsUXbv5oD3VmXYKnn37av6nLpB3KJY6xALbFt3zggmu/0KWgHevmt1v5dlN2P6YV736UutosAukT4JnDs4J7in2uu+666Nlpz6QXX3zRF44Cyqyj2IG72DA9z8lRo0ZFz5566X/2s5+5k08+OSoPBRjrfFjgZZOwjFZ1tHRJf3X/TEqqeTxxbM6n7Ecl3+JIULIojix6UZN+l28jJRAWS7CxD5ZNDzzwQFsiIH7cIkqWUG0hVGQREAERqAQBzdxXQoz93Yh+7zC2I/1uWeGGxzqg8V8mu0yhsmnTJocFUxjn0ksvjRaDbnbc3ACFacP/l19+uW9yszyI0Op4nJtN0PEmuP23yT6La8ozW6T9iSeeiN40D+tok3amgLL4lk+v1jSgDgrZERDv7FirJBHoBwI7d+50fHjZIWngxRCspgg8c7DO5VnMSxrxlx/q5YkFFIqn0I1uvXi2r5M6WtrwV/fPkEbn/8Wxc3ZlSCn5FkdKkkVxZNGLmvSzfBspn7BAxW0ebPj88Ic/jNzptysDrLVJb3mRr3kHsbwa1cOO61cEREAERKDcBDRbWW75qfbO+Y6MQCQj0E3n2lzH4U6ONZFY8+j+++93Dz74oGNtJtZ4wtopDCyg/vjjj0frHpnyyOLUO759+3Yv0yuvvNJbPjGxZguy8xu65SOfenlY/kmOW1xTOqGAMiVYXAHFRB/WWUzqsV4HPGn7xo0bvaUWeYWukUwBFZ8ElALKqJf7t5vrqdwtV+1FQASKQoDnCfciXoiwwNqJ7ON5VtSg+2c6khHHdDgWNRfJtziSkSyKI4te1KRf5dtM6fPzn//c9yVggwWTreXcKX/Sh5ZQ5B8PzeoTj6ttERABERCBchGQAqpc8lJt6xDo1w5jHRQtd3XDyhRDuPaJB9adIO/bbrvNWbxXXnmlJtppp53m15PAlR5xGx3/+OOP/ZvbuOALg+XLhJr9b5RHqzLMUivMP1RAmXIpbrn0/PPP+7o/88wzkZKKfRZ4ax03SHELKCmgjFC1fru5nqpFQq0RARHIiwAvOgwbNiyaJOK+xGfq1KmJrZryqLvun+lQ71eOe/bsOeSFpHSIFiuXfpVvsaTw99qYLLjnYmFqa+wVsa79VifcnvNCYrhub7sMTL7tpitz/GbKHlz7wsQ+7brda8SFfCxPfiknHprVKx5X2yIgAiIgAuUhIAVUeWSlmjYgQOdFIRmBblhdf/31vsNY7+0nG4wNGTLETwighGFBdBaOZn2kp556yqedN29etC5So+O0xMpC2YV5Pkon8sT6CAsosyxqlEer4/VohQoojp933nm+zgsXLvRlUgfWnGKRdgY4Fp9JvnfeeccvHn/88cf7NEwGsnaV1UMKqHrEy7+vm+up/K1XC0RABIpEgBcysExm4qbec7pIdaUuun+mI5F+5MiLSvQH41b16RAtVi79KN9iSeCr2pgsbMwjBdRXbPL+Z54rVq9e3XFVTL4dZ1CyhK2UPHj0gAmfn/zkJ6m2jvwsb8qpF1rVr14a7RMBERABESg2Ac3cF1s+ql0CAv3WYWyG5H/+53/c/v37G0bplNVnn33mWKAcyx7eMqsXZs6c6TuTr732mlu1alXUsbQO5pgxY6K3VVsdx93f7Nmza/KgfCyfLLTKo9Vxy8d+TaFkbvcYYP7mN7+pqQMKLxRLFlAsWfv4ZRslG/+nTJniFVD13pLEZdKJJ54YrZll+XX7S7kK2REQ7+xYqyQREIFqEdD9M5k8e9WvS1Z6MWPRJ6VvVc8iv5g17rxWuk46Z9duSl1r7RIrTvxGnjHaqWHZr7VW52/IIolyJ1z76bHHHguTd/2f/ODNh3IahST1bJRW+0VABERABIpHQLOVxZOJatQmgbJ3GNtsbtPo3/jGN9zXv/51N2HChLqKqCxZHTx40CuMGBRgIRQPrY4TnzWXWBw9VPqE+bTKo9XxMK9G/3HzgnIqVH6FcbHQeuONNyLlGseoNwqsrEOW8s26bUUsT7yLKBXVSQREoAwEdP9MJqUs+3VYd991113u2GOP9RODvHSDVV3cbTHrf2IRjgyx+I5bHbQ6/tJLL/mXcEh/yimnuKeffjqCQd/poosucuvWrfMKJuJQFi/u8HISx8866yxfNkqoq666KqrfypUro3w5NmvWLIdrZALpzj77bLdp0ya/dqm1cfLkyYe47eqm/lFDUvqj6yQlkAmySXqtcS5dfPHFbtmyZT5XXnjjXGO8YlYjRx99tOM8D8MjjzziLfeQKcdXrFgRHeb/OeecUzOW2LVrl+PlPV7sI3CdnH/++W7Lli3u9NNP9x+uTcYcl156aXRNcix0D45bcerFOrpYDXI9sW4vHh7CwFiNtNSP4+SJFwsLtJuXA0nPhxcPw+MWL/579913R2XOnz/frw08Y8YMf91SN8pknGWB+9DEiRPdww8/bLvcp59+6hlTNz7cN/CyQSCPoUOH+v0jRoxwDz30UJSu2b0mivSPP+Rb5tDq/LW2JVHqhO73WLOpFyFcC6qeGz4rM0l9La5+RUAEREAEik2g3E/aYrNV7TIiUPYOY5qY6NAPGDDA/cu//Iv75je/6d3IhRZRYpUm7eLlJflmKxPxzpa3ShMBEagOAd0/k8kyy36dWbKzBieKpzPPPNNP6i5YsCCq7PTp0/0+XnRiP+6RkeWGDRt8nFbHbTIRl8V33HGHY8KY9FYG7vUsTyzfFy9e7MaNG+fjTJs2zSuSmIQnzXHHHeeuvvpqP5HN5Dz7Ro4c6ZYsWeKsHmPHjvWKqzBf4l1yySVR+2iLBUvXqH2t6m/5pPVLXRWyIZD0WjMXkOZeG+UocuLD+WxKGrZZk5aAUoRt3HtzfrIuLtucTwTyQKmDMsmCuZXDBbjFIY19yAtljSlfcF/OdWTbr776qk9n+ZCOMlCWWRzqQkCJY4ollEQoZomPAgzFL23memQf14h5gMAVZjjO9JkFX3ZPGT16tPcQQRnkgRcIPGqY9wlrI0ntWjW+tPGkk07y6VibFwWx3SNwPUvdTz75ZH8cxZQprtq9VqlXmUOr85e2GRM77xq1l3szPPik7X7Pygzd8FFes5C03s3y0DEREAEREIH8CZT7SZs/P9WgAATK3mFMG+F3v/vdqNOIMgpFlFlEiVXatIuVn+SbrTzEO1veKk0ERKA6BHT/TC7LLPp1TPIywTxp0qSoYkw8M6GO9QT/zc3VueeeG8XZt2+fn7jGsqLVcawlmLBGwUV+BH6xTBo0aJC3/sDKAuulcGKbOCjDsMrYsWOHwwUfE9ChCz6spmyNTqvc3LlzfT62dij5Ug6W61Y2E9s2GZ5G/a3stH51naRFMlk+Sa41zlHOP1OQ3HvvvX7cFZ6PWCAhO1OscP5ynoXnPdcW68gS6img4soZK4c05g4dqyXKWb58edRArP5Q9JhS1/LB0sjSoegijrUBZRbXV2iJhEKLfcTlWuK/WWNR2Pr1633Zt912W1R2+AfFEHVDcWyB+nJtmxtyq5txIl6cLwol8vnTn/5k2XjLK2QQv3ZRSBGS3GuizP7xhzLKHpqdv+0ocbB+gwef3/72tz3BQr5WBuW1Cu3Uv1VeOi4CIiACIpAPgfI/afPhplILRMA6L/r96q24r33ta1GnDi7f+ta33D//8z/7fQUSnaqSMgFdA19dA1mxSFmEyk4EREAE+oJAVvfoqpSTRb8ON1dM/jJ5i2thrIrCSV4myZmEfvPNN2vO0Y0bN7rXX3/dT6I3O45bPeSBKzKsHHCvzGT5E0884fczeWyTz6ynGQabqH7mmWeiODZ5TjwUaKQl3507d3oXfky4M8nOBLrlG6YhHdYeWIPgyqxV+5LUP6xzGv+rcv6WqR2trrX4uVRPecR5jaLFFCvmNhLLO9xAfvLJJzWnR7087Jy3POz8xDVfGKgPnw8++MC7pTNFFdZChHg+7EMRhrUQ14NZHIXKZ+JQRxRpuDPHYmvw4MEOhTPl8Nm7d68bPny4GzVqVOQG0xf4j69G9cUqqh0FFMo7yuYaDwPXrl3f8TZ2cq2W6RxtVtdm5++FF14YImz43yzgKIf/vQidlEH9qZOCCIiACIhAOQnoDl5OuanWItCQQLO3n9Rpa4itEgck30qIUY0QAREQAREQgYhAVv06FEFM6NKXCD+nnnpqpKDheKN1X2wSvdHxO++8sybfsAz+s5YUE+lM3K9ZsyZqP3/CCea4AsCO49YvnqdNUFsam5S3zKlzqIBq1r4k9bd80/qlPQrZEUhyrdm5ZMpMO+9D93kWx5RHHMMdZHh+YlnIulGEenmE53yjOCiSsLwK87X/dq7H8zGaKGhpg9U1tOCyOPyagsryjf8OGTIksqwK09VrE8fDa65e3aw+xhdOprAK88dNqF3f8Xw6uVZpV9lDs/O3HQsiWUCV/UxQ/UVABESgmATK/6QtJlfVSgRyIdDK/3MVOte5gC1JoZJvSQSlaoqACIiACIhAAgJZ9evMXRbrLWHRhHUSIZz8XbhwYTThG1Ydt1q4tWt13NbBwV0YFhTvvvuu/1AW/82KCasrlFFhCCeY4xPUuOTDfSAfrLbIi4l51o+yCep4Gss7nAxPo/6Wb1q/6telRbJ1Pkmvtfi5VE/RQpzQAspKRzmLVZGtNYbyhvO+Xh5YFSJ/U2LVi7Ns2TIf56qrrvJWiFgoUTbuJk2BE147Vg9+TQFlCibWUwsDlk9YQnKcawuLqT179kTX7e7dux0fu1eEaflv9Y0rpHHnZ0rfenWL15961lNA3XLLLdH1Hc8nyb0mXt+yX2utzl/am1QJpTWg4meHtkVABERABNIgIAVUGhSVhwgUhMA3vvEN9/Wvfz1a8ylerbJ3ruPt0XYtAcm3loe2REAEREAERKDMBLLq123evNlPZDM5bgE3YiiDzAJqxYoVPk6oHMJNFxPtTH62Om4T6o8++qgV4X+ZLGZtptBVHmuXhoHJZtz74X7MJszNYsO2WYfKAgooXHeZRVNcaWDxmCS3yfA06m/5pvWrfl1aJFvnk/Rai59LpmiJW0CZAor4KHBuvfXWmkowyW8KUlN+hsoaXMwh/2YKKEvHtWrBrmW7PuLKGYtnCigUYLi4i1syUT+uOdqFIjq+xpq1a86cOZZlza+t3bRy5cpov5VlCiWrq7WRiGvXrvXtNgsu1nczTpYR13e4fpu10daASnKvsbzst+zXWqvz19qZRAllMoDJ9773PUua6i/5kj8fymsUktS3UVrtFwEREAERKBYBKaCKJQ/VRgS6IsBgYv/+/Q3zKHvnul7DGADxpl+jAVA8DQNFG/jEj5V9u4ryLbtMVH8REAEREAER6JRAVv06m8CdOnWqw6Jpw4YNzlzaDRs2zFs52OQxk8HPPvust44YP368n0DEaqrVcSaNR4wY4Se1cfeH5cSSJUt8eia4OW59OvozTNhjWXXffff5OGPGjPGuAC3O6NGjvbUW2yjKRo4c6bZt2+brNXHiRJ+GurLmjsUxqxCTR6iASqP+lm9av+rXpUWydT5Jr7X4udRKAUXJnN+ci1jooSziekEpxfpJnPfsR9bnnnuu27FjR3TOs8+UM/XKwQ0dcTjGtfLUU0/5ctjHGjtYB9q1bfkYCVNAsW2WVL///e/99Y+VInlwzVE/FNNs0w7qx3XGMfbRlnrBrlPa/fLLL/vr3a5LU2pTZ/I49thj/T2HOhKffaaA2r59u98+4YQTfLlYebFeFXGoJ8EUTldeeaXDmjPJvSZeZ/Irc2h1/oZtS6LU+bd/+zfPGC6PPfZYmLzr/+RHvnwop1FIUs9GabVfBERABESgeATK/aQtHk/VSAQKTaDsnet6cG2A044Cyt52rZdfmfdVUb5llofqLgIiIAIiIAK9JJDmcx/lDPnZh+158+b57SlTpvhmMGFsiiniYSHBJLiFVsd5Scomrq0cJrXpyxFscn/atGnessri4P6LiWcLuBzjGIqnL774IrK+svgop5YuXRrFYdK/3stKTNyHLyV1W3+rX1q/tEehGARMFvFxB+e/WfBZTe08NqUPShvOPzs/+UUBhXKIgMKEc96Oo4Th/OX8tjzCNY/CclBiWTp+mbQ/66yz/D4UW6aAMusgSxsqoNi3YMGCmnw4jjtLC3Y9WVlc+08++aQdrvsbbzdtPvvss2uuuXi+KJ7POOOMyIUgGaPwtnLtF+svCyiPsYjimN2rWt1rLK39krafQivlDvdlY/2Tn/wkVTTkZ3lTTr3Qqn710mifCIiACIhAsQn015O22LJQ7USg5wT6rXNdDyiTDVJA1SOjfSIgAiIgAiIgAmUikHa/DgUM674cOHAgwmCu8aIdzvm1X2zdpnC//WdtmGbHcaX39ttvu71791oS/8vEPa7LmCxHsURdwknwMDKu9z799NNoFxPOWEuEa9KwL3RPFkVu8afT+rfItu3Dacu37QooQUQgDVmgkOEc5VMvsMYS5y8KlXbCzp07/fUUpuO6RbHVTsAFINdleA2F6XG5yfFm13YY3/5TP7uOWZstPg6jXK65Ztcqa1Jt3brVK9S4rusF0ocMiNPoXhNPn4Z843kWfbuZkid0wwebBx54IJXmkA/52aee+71m9UqlEspEBERABEQgFwJSQOWCXYWKQD4Eyt655k2+888/323ZssUvnsvbeUxAXHzxxd59hFF95JFHojdnjz76aP9mrB2LK6AYnM2ePdv96le/8m4bLF4Zf8su3zIyV51FQAREQAREIC8CVXvuxy1H8uJalHKrJt+icO2kHpJFJ9QOTRMfhx0aI589/SrfZsqen//855GiiDWbcHXYTSB9uPYT+cdDs/rE42pbBERABESgXASkgCqXvFRbEeiKQNk71wxaaIN9zjvvPP+WLm/Lml9/FrPmOMdYW+C0007z23RoCeHAB+UTi1QTHxcQZQ+0Q0EEREAEREAERKA/CFTtuY8Fg62V0x8SbN7Kqsm3eWuLfVSySEc+uPU015np5JhOLv0s30ZKHyxiw7WgfvjDH3ashEL5RHo48yFf8g9Do3qEcfRfBERABESgvAQ0W1le2anmItA2gbJ3ru+9917faWWRbFyzEOxtWVNAoVDCn7+5neCXRa9JQ0ABxXHSm/KJxbCrEMou3yrIQG0QAREQAREQgawIVPG5j5V7IxdbWXEtSjlVlG9R2LZbD8miXWL146N0wJVe0UK/y7eR8ufhhx+OlEYwwoKpXXd8xA8tn8iHfMPQqPwwjv6LgAiIgAiUm4AUUOWWn2ovAm0RKHvnGuURi97iz9tCXAFlC+9ecsklbtOmTQ5/5WEgDxbBNeXT/fffHx4u9f+yy7fU8FV5ERABERABEciYgJ77GQPPuDjJN2PgTYqTLJrAqcAhyde5RkqgO+64o0YJBauf/OQn7rHHHmsqeY4Tj/jhh/zC0KjcMI7+i4AIiIAIlJ+AFFDll6FaIAKJCZS9c43yCNcsLKxrIa6A4tjYsWNrOrq//vWv/aK5pDErKusIs46UWVNZnmX9Lbt8y8pd9RYBERABERCBPAjouZ8H9ezKlHyzY92qJMmiFaFyH5d8/y6/RsogLJZCd3zw4oNlE0qm3/72t27y5Mn+l+24xRNxSS/Lp3JfJ6q9CIiACHRDQAqobugprQiUjEDZO9dJFFAmkg8//NA9//zzbvr06b6DPGTIEPf55597F3xYUa1du9a7EIBJVaygyi5fk51+RUAEREAEREAEWhPQc781ozLHkHyLIz3Jojiy6EVNJN+vqDZSQuE+8ec//3nNS55wS/IhndZ8+oqx/omACIhAPxKQAqofpa429y2BsneuWymgsIbCvd6tt95aI2NM/c1yijyGDh3q14hCIcV/ju3Zs6cmTRk3yi7fMjJXnUVABERABEQgLwJ67teSN6v4F154ofZASbck3+IIrltZLFq0yA0aNKjGi0NxWpdNTXCLvnv37mid3m5KxYOFrf/bTT6Wtlv5Wj5V+W2khKJ9vMSJd5F6FlFwtA/HiUf8eGiWfzyutkVABERABKpBQAqoashRrRCBRATK3rlupYACAh1dFEpPP/20++ijj9zGjRu9UmrUqFF+wGMKqC+//NIzW7dune8ok+5vf/tbIo5FjVR2+RaVq+olAiIgAiIgAkUkoOd+rVRQQB122GFOCqhaLtrqnkC315oUUM7xQiBeKEJX6p1KRgqoTsklT5dESYRyCbleeuml3gUfv2zXUzpZyUnytbj6FQEREAERqA4BKaCqI0u1RARaEuh28NSygB5HYPBmlkxWFJMNRx55pJszZ47ftWPHDr9NW+2DVdSf//xnfxwF1IknnuhMAcVOc9O3cuVKy7aUv2WXbymhq9IiIAIiIAIikBMBPfdrwUsBVctDW+kR0LXWPcvFixf7cdzHH3/cdWZSQHWNMFEGaSuL0s4vUSMUSQREQAREoBAEpIAqhBhUCRHIhkA/DZ5QRG3fvt1/sqGbfyn9JN/8aasGIiACIiACIpAvgbI891EMXXTRRQ6r85tuusm/IMQLRbwUFFqf4xr5rrvucscee6yPc8IJJzhePgpfGoI4a3eSnvYPGzbMrV692guingKKMs8880x3ww035CusDkovi3w7aFrpknQri+eee85NnDjRHThwwLcd19/nnXde9LIc/1m/tlHAs8P555/vtmzZ4lC+8LHrguvBrpmzzjrLbdu2rSYbrosZM2b4so4++mj35JNP+usQZQBhxYoV7pxzzonqxr5du3a5MWPGuNdeey3Ki3xmz57trz2uv5kzZ9bU+dNPP3U33nhjdG2ecsopbuvWrVEZWCfC8ac//anbvHlzlG/S+lN37gmrVq1yp512mlzwRQR7+yctpVFa+fS2tcpdBERABESgVwSkgOoVWeUrAgUk0O3gqYBNUpUCApJvAEN/RUAEREAERKDiBMry3Mfi4YgjjvCTz1ilYwkxbtw4vz1t2rRISkxo06bf//73XvGE4ojtBQsWRHHMan3ChAl+v+W7YcMGF1dAvfzyyz49SiqOlS2URb5l49pJfbuVxcKFC71iBvdzn332mXcPjhLnzjvvjJSyhx9+eMPzFGUtdbAPCisUUFwr7MOV+Lx587wLSrZxQU5AqXvSSSf5OFOnTnWXX355lMe1117r45A3dQld46EgIh9zZ8k1zLXLPq5B1l/iP0ql/fv3+3xMoUa+d999t7/mcbn3+uuve6WRKaDGjh0bKbaS1J/1einr3HPPdVOmTPH/2TbvF77wLr/IT6ExgW6VR92mb1wzHREBERABESgLAT1pyyIp1VMEUiCgznUKEAucheRbYOGoaiIgAiIgAiKQMoGyPPdR/uAuOZysxvIJBRMT1FitM1HOBPekSZMiSsQZMWKEn1znP5bttJmJaAv79u3zk+dMrJsCCmUUH+JihUHeZQxlkW8Z2bZb525lESp5cAtOfqbcoS4oS7kWsDyqF+69916fBiXSF1984aOsWbPG73vwwQejJFhRca1hvcQ1s2zZMh9n+fLlUZynnnrK72umgIrXce7cub5+oUXU+vXrfT633Xabv/ZQBqOYsoBCC8UW5RHiLviS1P/hhx/2ZSxdutSydc8//3xN/aMDXfzpVr5dFF2apJ0qkTpNVxowqqgIiIAIiEAiAlJAJcKkSCJQDQLqXFdDjo1aIfk2IqP9IiACIiACIlA9AmV57qMYYnIaC40w2CT3M88843fjwou4TKK/8cYbDrdjpGPtTibdmcRnkv7NN98Ms/HWHlhZWDlYVTDxjcLr4MGDNXHLtFEW+ZaJaad17VYWoQKKc5X8ULiiIMIdX6tg536ooAqVQlwz77//vvvkk0/clVde6QYNGuQtmrCMGjx4cI0SFssprIpMWRTWzeph1yZKMhRZuLwjHxS+H3zwgf/s3bvXDR8+3I0aNcphIYXii+tu/vz5XqlMujDEy0lSf5TU8fqTL674rP5hGZ3+71a+nZZbtnTtKpPajV82HqqvCIiACIhAcgJSQCVnpZgiUHoC6lyXXoRNGyD5NsWjgyIgAiIgAiJQKQJlee6bZRIWD2EIJ7nZ/8QTT/gJbNoVfk499VTvbswmsButlUM5TIKHaUMrk7DsMvwvi3zLwLLbOnYrCzt3zc0dE/Moa+xc5T9x4kobq3c8PfFYB8rSx3/Jj7JQQKHAtfWiLD/c4LGeEyGeN/vCazN0oRkvh+0hQ4Z4BfGmTZu8siiMc+mll7qPPvrokHLSqL8UUB5r5l9JlUpJ42XeABUoAiIgAiKQCwEpoHLBrkJFIB8CDAgUqktA8q2ubNUyERABERABEYgTKMtz3yyTVq9eXdOEcJL7rbfe8pPprA3F+jVYcxDCCfRwHZ0wo3feece99957kQUULvqwKjG3f1iFlDGURb5lZNtunbuVRT0lD1Z9WEMtWrTIWyRRRvwasXrWS8+aSyiacIu3e/du9+677/oP1w7bBCyI4goolD+4pjQFTr28zUoLBS7XL9ZapOG6snIog49dq1ZX9j3++OO+bNqEe68zPSMAACAASURBVExCvJx26m9uB60MlG9Wf9vXzW+38u2m7DKmbaVcanW8jG1WnUVABERABLojoNno7vgptQiUioA616USV9uVlXzbRqYEIiACIiACIlBaAmV57psCasKECTWsb7nllmjdm82bN3sFFOu7WMByAhd8ZgG1YsUKHyecpEe5hKu9GTNm+Ily/r/yyis+C4t/xRVXWJal+i2LfEsFtcPKdiuLUPny0EMPeRd5WBZZsPPY1mWy/fYbprd9rKmES0qUt2HABaVdM5MnT/ZKqtDNnyl7rSxT7IaWhbjRo81mQYgi+PDDD69x5WeKqTlz5kTrs9m1Z/XBdZ8pwKwN1u5O629rS1n9raxufruVbzdllzVtIyVTo/1lbafqLQIiIAIikA4BKaDS4ahcRKAUBNS5LoWYOq6k5NsxOiUUAREQAREQgdIRKMtzn4lqc4136623emul++67z09wjxkzxrsHM2uoqVOnOiyaNmzY4I4//ngfZ9iwYd7K4vPPP/cuvrD6ePbZZ/06UePHj/dxsJqiHBRQNmmOpQcT4HDieNlCWeRbNq6d1LdbWZjyBeWJWRehHEIxxJpKXBeUsX79+rrVC9NbBFPEYJ3E9YJl0mWXXebzWbBggY9m1xXX0I4dO7yiiPiUZQoc1lpjG8tB4ti1yT67llAMs40iijjbtm1zXLvss2sPZTFrM23dutWv4/bUU0/547b2Gwon4mPxtX//fu8ikGu5Wf2NleXL2nC0hXxQfKUVyE+hfQJxZVN8u/0clUIEREAERKCqBPSkrapk1S4RqENAnes6UCq0S/KtkDDVFBEQAREQARFoQaAsz32zgJo2bZpXEFFvPrj02rdvX9RKXGrZMX7ZZvKa/1OmTPHxcLVniin2YwHChDbByrFJc/Zh7cEk9/Dhw2usN3yCgn/RPoViEOhWFpyjnIcojQg33XRTzblO/pzv8bWarPXx9LYfBROKH9Lb57rrrqtZS2rVqlXRMeLglo9ryFzYoajl2rT01HPp0qU+3/BaYp/F4Zdr78knn7SquHg5xEFJdeDAAR8HxTJ5sx+lF6Gb+psCLapAF3+ok0JnBEzpdOGFF3rZsq0gAiIgAiIgAnECetLGiWhbBCpMQJ3rCgvXOd/pr3YL1ToREAEREAEREAEjUJZ+nVkm4Z6LtVywYsBao15AwcRxm7QmDpP25BEG1pkhD6yiqhrKIt+q8g/b1QtZcF5v377dWwzt3bs3LK7t/zt37nR8cFtZLxw8eNC9/fbb0XpNY8eOdbNnz66JijUW6zk1u6ZwFUg+ja49yqFNfFA4xQPXv7ngC4+1qj/lkmej+0aYVyf/eyHfTupR1jSmhJLyqawSVL1FQAREoPcEpIDqPWOVIAKFIaDOdWFE0ZOKSL49wapMRUAEREAERKCQBMry3K9nmVRIoAWrVFnkWzBsPalO1WRx+umnRxZQPQFWskyrJt888IthHtRVpgiIgAiUh4AUUOWRlWoqAl0TUMewa4SFzkDyLbR4VDkREAEREAERSJVAWZ77WGXgesvcbqUKocKZlUW+FRZB1LSqyQKXlDNmzIja1+9/qibfPOQphnlQV5kiIAIiUB4CUkCVR1aqqQh0TUAdw64RFjoDybfQ4lHlREAEREAERCBVAmV67m/ZssXt378/1fZXPbMyyVeyKBeBN998s66LvHK1Ir3a6lrrnqUYds9QOYiACIhAlQlIAVVl6aptIhAjMGDAgJrFnmOHtVliAizijXwVREAEREAEREAE+oOA+nXVlbP6dcWSra61YskjzdroWkuHphRQ6XBULiIgAiJQVQJSQFVVsmqXCNQhcNRRR7mXXnqpzhHtKjsB5Ip8FURABERABERABPqDgPp11ZWz+nXFkq2utWLJI83a6FpLh6YUUOlwVC4iIAIiUFUCUkBVVbJqlwjUIcCCs9ddd12dI9pVdgLIFfkqiIAIiIAIiIAI9AcB9euqK2f164olW11rxZJHmrXRtZYOTSmg0uGoXERABESgqgSkgKqqZNUuEahDYMGCBY5FZxWqRwC5Il8FERABERABERCB/iCgfl115ax+XbFkq2utWPJIsza61tKhKQVUOhyViwiIgAhUlYAUUFWVrNolAnUI/O1vf3MDBw5069evr3NUu8pKAHkiV+SrIAIiIAIiIAIi0B8E1K+rppzVryueXHWtFU8madRI11oaFP+ehxRQ6bFUTiIgAiJQRQJSQFVRqmqTCDQhMHXqVHfqqac2iaFDZSOAPJGrggiIgAiIgAiIQH8RUL+uevJWv66YMtW1Vky5dFMrXWvd0KtNKwVULQ9tiYAIiIAI1BKQAqqWh7ZEoC8I/OhHP3I33nhjX7S16o1EjshTQQREQAREQAREoD8JqF9XHbmrX1dsWepaK7Z82qmdrrV2aLWOKwVUa0aKIQIiIAL9TEAKqH6WvtretwReeukl9+1vf9stWrSobxlUoeHIDzkiTwUREAEREAEREIH+JKB+XTXkrn5d8eWoa634MkpSQ11rSSi1F0cKqPZ4KbYIiIAI9BsBKaD6TeJqrwj8g8DSpUu98kKWUOU8JZAbyifkqCACIiACIiACItDfBNSvK7f81a8rj/x0rZVHVvVqOmfOHI2h6oHpcp8UUF0CVHIREAERqDgBKaAqLmA1TwSaEeAtPlxJ4P+aRVgVik8AOSEv5CbLp+LLSzUUAREQAREQgawIqF+XFen0ylG/Lj2WWeakay1L2umUpWstHY6NcpECqhEZ7RcBERABEYCAFFA6D0RABByL6g4cONANHz7cXXfddV6xsW/fPpEpAAHkwCAXuSAf5IS8FERABERABERABESgHgH16+pRKcY+9euKIYe0aqFrLS2S6eejay19ps1ylAKqGR0dEwEREAERkAJK54AIiIAn8Le//c0tWLDAnX766e6oo45yAwYMcHQk9cmXAXJAHsgF+SAnBREQAREQAREQARFoRkD9unz7b436z/+/vXsPjerM/zheFtrub0tWWEL+8q+A/iESwSIURJSCFAmxf4SKSItdxdL1hhS8LdSV4q2ieKmXrW41RW1Wq0asrpWt1naNtoasVhPT1nq3arzEJMZYm8vz4/PsPmfPjJNMLmcy58y8D4wzcy7P+Z7XM6HL+ezzHP53XWe/2mhu42+Nv7Vo/nKDrZoAKlhPWkMAAQQyTYAAKtN6lOtBAAEEEEAAAQQQQAABBBBAAAEEEECgDwQIoPoAmVMggAACERYggIpw51E6AggggAACCCCAAAIIIIAAAggggAAC6RIggEqXPOdFAAEEoiFAABWNfqJKBBBAAAEEEEAAAQQQQAABBBBAAAEEQiVAABWq7qAYBBBAIHQCBFCh6xIKQgABBBBAAAEEEEAAAQQQQAABBBBAIPwCBFDh7yMqRAABBNIpQACVTn3OjQACCCCAAAIIIIAAAggggAACCCCAQEQFCKAi2nGUjQACCPSRAAFUH0FzGgQQQAABBBBAAAEEEEAAAQQQQAABBDJJgAAqk3qTa0EAAQSCFyCACt6UFhFAAAEEEEAAAQQQQAABBBBAAAEEEMh4AQKojO9iLhABBBDolQABVK/4OBgBBBBAAAEEEEAAAQQQQAABBBBAAIHsFCCAys5+56oRQACBrgoQQHVViv0QQAABBBBAAAEEEEAAAQQQQAABBBBAwBMggPIo+IAAAgggkECAACoBCqsQQAABBBBAAAEEEEAAAQQQQAABBBBAoHMBAqjOfdiKAAIIZLsAAVS2/wK4fgQQQAABBBBAAAEEEEAAAQQQQAABBHogQADVAzQOQQABBLJIgAAqizqbS0UAAQQQQAABBBBAAAEEEEAAAQQQQCAoAQKooCRpBwEEEMhMAQKozOxXrgoBBBBAAAEEEEAAAQQQQAABBBBAAIGUChBApZSXxhFAAIHICxBARb4LuQAEEEAAAQQQQAABBBBAAAEEEEAAAQT6XoAAqu/NOSMCCCAQJQECqCj1FrUigAACCCCAAAIIIIAAAggggAACCCAQEgECqJB0BGUggAACIRUggAppx1AWAggggAACCCCAAAIIIIAAAggggAACYRYggApz71AbAgggkH4BAqj09wEVIIAAAggggAACCCCAAAIIIIAAAgggEDkBAqjIdRkFI4AAAn0qQADVp9ycDAEEEEAAAQQQQAABBBBAAAEEEEAAgcwQIIDKjH7kKhBAAIFUCRBApUqWdhFAAAEEEEAAAQQQQAABBBBAAAEEEMhgAQKoDO5cLg0BBBAIQIAAKgBEmkAAAQQQQAABBBBAAAEEEEAAAQQQQCDbBAig+rbH29vbTWlpqZk0aZIZMmSI6devn1Ef8EqvgfpB/aF+Uf+on1gQQOA/AgRQ/BIQQAABBBBAAAEEEEAAAQQQQAABBBBAoNsCBFDdJuvxAYsXLza5ubmmsLDQbNiwwVRWVpr6+voet8eBwQmoH9Qf6hf1j/pJ/cWCAALGEEDxK0AAAQQQQAABBBBAAAEEEEAAAQQQQKCPBcrKykz//v1NXV1dH585uNMRQAVn2VFLCjZefPFFM378eHPu3LmOdmN9iATUT+ov9Zv6jwWBbBYggMrm3ufaEUAAAQQQQAABBBBAAAEEEEAAAQTSIrBr1y6Tl5dHAJUW/Wic9PDhw+aFF14wH374YTQKpsoYAfWb+k/9yIJAtgoQQGVrz3PdCCCAAAIIIIAAAggggAACCCCAAAJpEyCASht9JE6skTMKLzRSjiW6Auo/9SMjoaLbh1TeOwECqN75cTQCCCCAAAIIIIAAAggggAACCCCAAAJPCfz4449m+vTpRtPU5eTkmHnz5pmrV696+/kDqM2bN5vVq1ebtrY2u/3u3btmxowZ5tNPP/X2v379unnzzTdNTU2NXddZ+9r3T3/6k/n222+94/VBx/rbOHTokMnPz7c1Dh061Bw7dixm/2RfmIIvmVDPt2v6tk2bNvW8AY4MjYD6Uf3JgkA2ChBAZWOvc80IIIAAAggggAACCCCAAAIIIIAAAikTUICkcEZT7CloUsCkzwp7mpub7Xn9AdSqVatipuNTEKTjR4wYYVpaWuz++/bt8/ZJ1n5TU5M915QpU0x7e7t3nUuXLvXaOHjwoD3H3Llzzf79+83EiRPt9wMHDnj7J/tAAJVMqGfbFy9ebJ8h1LOjOSqMAnomlPqVBYFsEyCAyrYe53oRQAABBBBAAAEEEEAAAQQQQAABBFIq8MUXX9gw5+bNm955zp07Z9dVV1fbdf4A6vTp03bbmTNn7DYFUi7Acm1oRNSECRNsoNSV9v1hkxp9/PixKSgoMLNnz7bnmDp1qikqKvICKgVVxcXF3bpJTgBlKQP9R/2Qm5tr9HthyRwB9af61R8IZ87VcSUIdCxAANWxDVsQQAABBBBAAAEEEEAAAQQQQAABBBDotkBra6sNfBT61NbWmu+//968//77NlSqqKiw7fkDKI1YGjRokNm6dau9QT1q1CizaNEiO4rpq6++Mr/++qvd/ve//90e25X2z549a8935MgRe4wLuU6ePGm/z5o1y25ftmyZOX/+vDcyy27s4j8EUF2E6sZupaWlprCwsBtHsGtUBNSv6l8WBLJJgAAqm3qba0UAAQQQQAABBBBAAAEEEEAAAQQQSLlAY2Oj0dR2CmjiX4kCKBWkEU6aMu/evXv2mJ9++slMmjTJrFixwj47Su1cunTJ1t6V9hVaDRs2zMycOdMeo6DJPwVgXV2dPZ+/PtVw48aNLvvoWJZgBdTnGzZsCLZRWguFgPpV/cuCQDYJ8F+JbOptrhUBBBBAAAEEEEAAAQQQQAABBBBAIOUC8+bNMzk5OaasrMwGOnruk8IjBTYdBVB6JpMCIj2PSe8KkDQiasyYMWbbtm1m4MCB3vOgutK+LnLjxo22rVu3btkwKtEzaBoaGsypU6eMpuxTff7nTiWDIoBKJtT97UOGDDGVlZXdP5AjQi+gflX/siCQTQIEUNnU21wrAggggAACCCCAAAIIIIAAAggggEDKBfR8JQU5/ue97NixwwY87jlP/in4VJBCIgU6ernnNLlp9LRu5cqVXt1daV87axSVjtWoC71XVVXZNjQ1oEZHlZSUeG3qw/bt201eXp7R6KiuLGqTJViBfv36mfr6+mAbpbVQCKhf1b8sCGSTAP+VyKbe5loRQAABBBBAAAEEEEAAAQQQQAABBFIuoKnsFOR8++239hlQLnxSYKMRTlriA6i2tjajZz9pnz179th93LOhtM49u0kbutK+9lObr776qm1z+PDh3ggqfxvl5eVG56murrah1IQJE2KCM1tIB/8QQHUA04vVmPYCLwKH0r8R6CRKDFSAACpQThpDAAEEEEAAAQQQQAABBBBAAAEEEMh2gevXr9up73SzWa/+/fubL7/80hQUFNip+e7fv2+n54sfbfTRRx/Z7e5ZTxpBpdFOOl5T5bmlK+27fTUNoGqIH+107do1W4+rUe8aFXXhwgV3aNJ3HcMSrACmwXqGrTX6N2w9Qj2pFuC/EqkWpn0EEEAAAQQQQAABBBBAAAEEEEAAgawTaGlpMVeuXDG3b9/2rv3JkyfmwYMH3vfefOhq+3q2lJ5HdfPmzYSnUxB1+fJl+0q4QycruZneCU4PN0XN9M6dO/Y5Z7W1tT284uw6LGr9m12907urvXfvntm7d6+ZP3++GTt2rBk8eLDJzc01zz77rP0/Aehd37Ve27Wf9tdxmbwQQGVy73JtCCCAAAIIIIAAAggggAACCCCAAAJZKfDo0SMbfmlUk3umVNAQ3EwPWtTYG9XBtxp8i+fPn/emjNTvQC+N6FPg2VeLnm22bt26vjpdIOfhbyYQxtA0ovBo7dq1ZuTIkfZvwP0tdPddx6udTAyjCKBC83OlEAQQQAABBBBAAAEEEEAAAQQQQAABBIIR0HR+ugmq0U8a5ZSKhZvpwatGwfTWrVte4KQpHmtqasw//vEPb9pJ95yz4HViWySAivXgW98JVFVVmbfeeqtXoVNHIZXaVfuZshBAZUpPch0IIIAAAggggAACCCCAAAIIIIAAAgj8V0AhwfHjx42mSEvVEoWwJFXXnqp2o2C6c+fOmGeVOYu6ujozaNAgM2LECNPa2upWp+ydACpltDTcgYBGKE2bNq3D4Gn48OFmzpw5prS01FRWVhpNTampV7XoXd+1Xtu1n/bvKIjSeTJhRBQBVAc/JlYjgAACCCCAAAIIIIAAAggggAACCCCAQMcCUQhLOq4+nFuiYLpr1y473V5DQ8NTiKtWrTJz5841bW1t3jbdcC8qKrI32seNG2fKy8u9bY8fPzbvvPOO0ZR+n332mXnppZfsfgsXLjR6zplbtN/y5cvN0KFDzSuvvGLD1YkTJzIFnwPiPeUCJSUl9hlO8YGRQqSNGzfacKknRSiU0vGJwig9M0rnjfJCABXl3qN2BBBAAAEEEEAAAQQQQAABBBBAAAEE0iQQhbAkTTQ9Pm0UTBVAqc6ZM2ea6urqmKAo/sIPHDhg9x09erTZvn27KS4utt81AkSLnlWmUVPupv6yZcvM1KlT7Xf37DIFUaNGjbLrNGpk0aJF3v6bNm2KP2Wov0ehf0MNmKbiEk23V1hYaI4cORJoRWpP7bq/B/eu80d1IYCKas9RNwIIIIAAAggggAACCCCAAAIIIIAAAmkU4GZ68PhRMFVoNGHChJib5OPHjzdbt241ly5d8lA0Qio/P98sWLDAtLe32/V614in/v37m4cPHxqNbCooKLDf79696+3z6quv2lFTmspPz5eSy+HDh722T506ZdetX7/eWxeFD1Ho3yg49lWNmsp05MiRMb/1AQMGmN27d6e0BLWv8+j34l6qQ/VEbSGAilqPUS8CCCCAAAIIIIAAAggggAACCCCAAAIhEOBmevCdECXTH374wWzZssW88cYb3k1y1b9582YLc/bsWbv+0KFDdqSTnmfT1NRkjh49atefOXPGBlAaAbVu3boYzG3bttlRT5rKTyOiND2Zf0o+BVmaii/+uJhGQvglSv0bQr4+LUlh6uDBg2N+2xqJ5J7plOpidJ74kVeqxx/yprqGINongApCkTYQQAABBBBAAAEEEEAAAQQQQAABBBDIMgFupgff4VEw1aik+EU3y0+ePGlHPOXl5Zm6ujqzY8eOmJv3ujb/68SJE14AFT+SSdP8ado9BVAzZsywo6H8z5XS+adMmUIAFd8RfA9EQCON4sOnNWvWBNJ2dxvRef1/N6orSiOhCKC62+PsjwACCCCAAAIIIIAAAggggAACCCCAAAL2pigMwQqEPYByz2xauXJlwgv/9NNP7e+ioqLCHDx40H7Wc23u379vbt++bV8aCaXPGtGkKfgSjYDyB1AaAVVUVGTig69JkyYRQCXsBVb2ViB+2j33zLLettvT43V+fwil+qKyEEBFpaeoEwEEEEAAAQQQQAABBBBAAAEEEEAAgRAJhD0sCRFVl0sJu6mmvtPzmfRsp8bGxqeuS8+BysnJMdeuXbNThel6Pv/885j9FEzpGVAaJdWVAGrhwoVGo6ru3LnjtaNjtS5+5JS3Q0g/hL1/Q8rWp2XFT3uX7vDJXXx8CKU6o7AQQEWhl6gRAQQQQAABBBBAAAEEEEAAAQQQQACBkAlwMz34DomC6bFjx+xoDIVI5eXldjRTVVWVWbVqlV3vRisprCouLraBlJ77pJFP+/fvt/toWj1t70oApWfeyEXPfPrpp5/MlStXzJgxY+y6TZs2Bd8JKWwxCv2bwssPfdMlJSX2d6V+0itd0+51BBU/HZ/qDftCABX2HqI+BBBAAAEEEEAAAQQQQAABBBBAAAEEQijAzfTgOyUqpgqUNALJ3ah373/5y19MQ0ODB6NRUpMnT47ZT+GTgictei8oKDDxQZKm4FOQ5Z77dPz48Zg2NC3f6NGjGQHlSfOhtwIKSHNzc73fWVhHGPlHaKle1R3mhQAqzL1DbQgggAACCCCAAAIIIIAAAggggAACCIRUICphSUj5EpYVJVM9k+nixYumpqbGXL582TQ3Nye8Jq28efOmuXHjhnnw4EGH+yTboPZ1Hj0/KqpLlPo3qsY9rXvatGle+DRgwADz5MmTnjaV0uNUl+pzoa/qDvNCABXm3qE2BBBAAAEEEEAAAQQQQAABBBBAAAEEQirAzfTgOwbT4E3D1CL9G6be+F8tmkLSBTp637179/82hvCT6vPXq/rDuhBAhbVnqAsBBBBAAAEEEEAAAQQQQAABBBBAAIEQC3AzPfjOwTR40zC1SP+GqTf+V4t/WrvCwsL/bQjxJ9XpQqiwThcoPgKoEP+IKA0BBBBAAAEEEEAAAQQQQAABBBBAAIGwCnAzPfiewTR40zC1SP+GqTf+U4ueoeSCHL0fOXIkfEUmqEh1+usO67OgCKASdB6rEEAAAQQQQAABBBBAAAEEEEAAAQQQQKBzAW6md+7Tk62Y9kQtOsfQv+Hrq7Vr13pBzvDhw8NXYCcVqV4XQuk6wrgQQIWxV6gJAQQQQAABBBBAAAEEEEAAAQQQQACBkAtwMz34DsI0eNMwtUj/hqk3/lPLyJEjvRBn48aN4Suwk4pUrwugdB1hXAigwtgr1IQAAggggAACCCCAAAIIIIAAAggggEDIBbiZHnwHYRq8aZhapH/D1BvGxE+/V1tbG64Ck1Sjel0ApfcwTsNHAJWkE9mMAAIIIIAAAggggAACCCCAAAIIIIAAAk8LcDP9aZPerslW0zt37piHDx/2li/0x2dr/4a1Y/bu3esFOFGbfs+Z+qfh0/WEbSGACluPUA8CCCCAAAIIIIAAAggggAACCCCAAAIREOBmevCdlI2mjx49Mvn5+WbFihXBg4asxWzs35B1QUw58+fP9wKoOXPmxGyLyhfVrd+VXrqesC0EUGHrEepBAAEEEEAAAQQQQAABBBBAAAEEEEAgAgLcTO9+J/3xj380jY2NHR6Yjaa//vqrKSgoMJs3b+7QJVM2ZGP/prvvOvubGzt2rBfelJaWprvUHp1fdet3pZeuJ2wLAVTYeoR6EEAAAQQQQAABBBBAAAEEEEAAAQQQiIAAN9O730nPP/+8ee6558zs2bMTBlFBmra0tJhPPvnEvPTSS/bm9CuvvGLKyspMW1tbTOF79uwxeXl5dp8xY8aYEydOdGt7ZWWlKSoqssePGzfOlJeXe8c/fvzYvPfee+bs2bM2YNL16Vy7du0y7e3tRttnzZplj1UItXr1aq++r7/+2mtX29asWWOampps2zrunXfeMefPnzefffaZd40LFy40um7/kuz6Oqvf304Qn4Ps3yDqyYY2OvubGzx4sP3tqV/0O4jiorpVv166nrAtBFBh6xHqQQABBBBAAAEEEEAAAQQQQAABBBBAIAIC3EzvfictX77c9OvXz/z+9783v/3tb83cuXNjgqggTVetWmVvSi9YsMAGT1OnTrXf/SM9li5datcpENP6QYMG2e9VVVX24pJtP3DggN1/9OjRZvv27aa4uDjmHJpez7U5bNgws2/fPjN9+nS7z5IlS2wA5aZBe/nll80HH3xgAyiFWLJ47bXXzP79+42rY8qUKTa48rer/ZYtW2bc9ela3OKO6+j6ktXv2gnqPcj+DaqmTG+ns7+53Nxc+ztTv9TW1kaSQnWrfr10PWFbCKDC1iPUgwACCCCAAAIIIIAAAggggAACCCCAQAQEuJnes076wx/+4N0wVhilIMqNiArKVKOAFPi8++67XpEacaSAaMaMGTbEuXz5sq3D/+yb+vp6O0JJz2NKtr2hocE+u0kBl9rWoneNTOrfv795+PChDZg0eknPeHJTD2ofhUU5OTnm2rVrRlPwKaTyT8GnUVMDBw6MGc20ZcsW246/XZ3n7t273rlfffVVO2qqtbU1kPo9vIA+BNW/AZWTNc109Df37LPPen+LT548iaSH6tbvSi9dT9gWAqiwghfVvQAAHlJJREFU9Qj1IIAAAggggAACCCCAAAIIIIAAAgggEAEBd9OT9//c/O2Ow29+8xvvprGO+7//+z/zu9/9zq4Lqut/+eUXGwApKLpy5YqdGk9Bj6bLU0CjafAUAl29ejXmlNXV1ebSpUtJt2taPdV+6NAhoxFJ9+7ds1PkHT161K4/c+aMPb/OuXXr1phzXLhwwe5z8uRJb59169Z5+yhA0zR7avfnn3+2U/hNmjTJhmN1dXUJj9HB27ZtM6NGjbKjqJJdX1fq9woK6EN3fiPs2/2/q87MEv3N+fcPqIvT0kyYr4MAKi0/CU6KAAIIIIAAAggggAACCCCAAAIIIIAAAtko0NFoDI0Q0o3koBYFQe7ZTv4b1OPHj/cCGm1XQJVoUYDT2fYdO3bYev1t+z/rWVIKkTT66fTp0zGncAFURUVFwjBJ2zWtn789fVY9/gBq/fr1Me2qZn8A1dv6YxoP4IuugaXvBTr6m2MEVOr7gl986o05AwIIIIAAAggggAACCCCAAAIIIIAAAgggYDp7Ho14ggoorl+/btvS85Y0okmjk7Ro+j2NgGprazM7d+70Ah1/19y6dctOa5ds+8GDB+05jhw5Yu7fv29u375tXzqXPrtRTBoBpTDKv3QWQGlKPk0fqJeeBaW2NG2fnh8VH0D5R02pfX8AFUT9/pqD+BxU/wZRS7a00dnfHM+ASv2vgAAq9cacAQEEEEAAAQQQQAABBBBAAAEEEEAAAQQQMM8//7x57rnnvGc+xZMEFVDU1NTYcOjUqVPeKZqamuyzltwIqGPHjtl9/OFQc3OzHbGkm/bJtmuaPtX7+eefe+fQBwVTejaTf6SSnnHlXz766CM7/d/NmzftNHv+Z0Bp2j1913Oo3OKeG+VGNGlklfbpLIAKon53/qDeg+rfoOrJhnY6+5sbPHiw/Q2rXyorKyPJobpVv166nrAtBFBh6xHqQQABBBBAAAEEEEAAAQQQQAABBBBAAIGMFNBzjDTVXkdLUAGFG2G0ePFioxFNVVVV3pR2Y8aMsSOiNEJp+PDhdlTRN998Y58TNXPmTHsjW6Omkm1XKFRcXGyDJE33p5FP+/fvt8drpJW2KygqKCiw60pKSuzIqt27d9vvkydPtiOx3D5vvvmmHa3lwqXXXnvNXLx40db15z//2R6jAOr8+fMJp+2TqX8EVBD1d9RPPV0fVP/29PzZeFxnf3Njx461vyv1S2lpaSR5VLfq10vXE7aFACpsPUI9CCCAAAIIIIAAAggggAACCCCAAAIIIJCVAkEGFBod5G5M613ft27datctWrTI+t69e9cLprRPTk6OKSsr8+yTbVeYpiDJfx6FTwqRtLgwacmSJXZkldtv3Lhxpr6+3jvP6tWrbRsa1dTa2uqNvnL7K5w6fPiwt49GcynY2rRpk9eGPiiAclMM6ntv649pPIAvuh6W8AjMnz/f++3OmTMnPIV1oxLV7f5OdD1hW/jFh61HqAcBBBBAAAEEEEAAAQQQQAABBBBAAAEEslIg6IBCAcyVK1fMw4cPPU83NZ63whhTW1vrPbfJv959TrZdU+nduHHDPHjwwB1i3xVA5efnmzNnzthgSbXomU6JFk2998svv3ibFG5dvnzZe36VNmidwqfuLj2tv7vnSbZ/0P2b7Hxs71xg7969Xnij0YBRXFS3C6B0PWFbCKDC1iPUgwACCCCAAAIIIIAAAggggAACCCCAAAJZKZBpAYUbAVVRUZGV/Rl/0ZnWv/HXF7XvmjbShTd6V1AZpUX1+uvX9YRtIYAKW49QDwIIIIAAAggggAACCCCAAAIIIIAAAghkpUCmBRQaraTnNpWXl2dlf8ZfdKb1b/z1RfH7yJEjvRBn48aNkboE1esCKF1HGBcCqDD2CjUhgAACCCCAAAIIIIAAAggggAACCCCAQNYJZGJA8cMPP9ip87KuMxNccCb2b4LLjNSqtWvXeiFO1Kbh80+/p+sI40IAFcZeoSYEEEAAAQQQQAABBBBAAAEEEEAAAQQQyDoBAorM7nL6N3z9Gz8N35EjR8JXZIKKVKd+T+4Vxun3VDYBVILOYxUCCCCAAAIIIIAAAggggAACCCCAAAIIINDXAgQUfS3et+ejf/vWu6tne+utt7wgp7CwsKuHpXU/1enCJ9Uf1oUAKqw9Q10IIIAAAggggAACCCCAAAIIIIAAAgggkFUCBBSZ3d30bzj7t6qqygtz1Ee7d+8OZ6H/rUr1ufBJ76o/rAsBVFh7hroQQAABBBBAAAEEEEAAAQQQQAABBBBAIKsECChiu/vx48dm0KBBpqKiInZDRL/Rv+HtuGnTpnmhzoABA8yTJ09CWazqUn0ugFLdYV4IoMLcO9SGAAIIIIAAAggggAACCCCAAAIIIIAAAlkjQEAR29UKoPLz8wmgYln4lgIBPUMpNzfXC3bCOq2df7pA1RvWZz+5LiKAchK8I4AAAggggAACCCCAAAIIIIAAAggggAACaRQggIrFJ4CK9eBbagVKSkq8AEp/i2vWrEntCbvZuupxI5/0rnrDvhBAhb2HqA8BBBBAAAEEEEAAAQQQQAABBBBAAAEEskIgKgGUgqH33nvPnD171mzevNneFM/LyzO7du0y7e3tXl+1tLSYTz75xLz00kt2n1deecWUlZWZtrY2bx992LNnj9Hxuv4xY8aYEydO2O2JAiidc+rUqeavf/1rTBtR+BKV/o2CZapq9I8wUn+Vlpam6lTdald1qB73CusIrfiLIoCKF+E7AggggAACCCCAAAIIIIAAAggggAACCCCQBoGoBBSPHj2yz2ZSvcOGDTP79u0z06dPtzfHlyxZ4smtWrXKrluwYIENnhQc6Rj/Tf2lS5fadbNnz7br9cwn7VNVVWXiA6h///vfdptCKm2L2hKV/o2aa9D1jhw50v7O1F/xv9egz9WV9uLDJ9UXlYUAKio9RZ0IIIAAAggggAACCCCAAAIIIIAAAgggkNECUQkoFP4UFBTY5zM1NjbaPtHIJwVMOTk55tq1a0ajnxROvfvuu16faZ/i4mIzY8YMO1Lq8uXL9gb/nDlzvH3q6+vtaKgVK1Z4AZTCKL3kM27cONu2d0CEPkSlfyNEmpJSb926ZQYPHhwTQqVrOr74afdUl+qLykIAFZWeok4EEEAAAQQQQAABBBBAAAEEEEAAAQQQyGiBqAQUCqA0Umnr1q0x/XHhwgV70/7kyZN2/S+//GJDpIaGBnPlyhVTXl5ujysqKjKtra12yj4FVlevXo1pp7q62ly6dMkeq/NoBJWm6MvPzzdPnjyJ2TdKX6LSv1EyTVWt+v3Fh1Ca9q6vfn86T/x0gKpHdUVpIYCKUm9RKwIIIIAAAggggAACCCCAAAIIIIAAAghkrEBUAgo3Nd7p06dj+sIFUBUVFXb90aNHvWc76drca/z48fY5UHpmlIIlBVSJFjfSyh2nd9d2ov3Dvk71s0RHQCON4qfjGzBggNm9e3dKL0Lt6zz+373qiNLIJwfEL95J8I4AAggggAACCCCAAAIIIIAAAggggAACCKRRICoBhRsBdeLEiRgtfwB1/fp1ewNdz4bSiKZ79+7ZfTX9nkZAtbW1mZ07d9oAqq6uLqYd3Wi/e/euNwJKU/TduXPHm/avubk5Zv+ofIlK/0bFs6/qjB+JpH4sLCw0R44cCbQEtad2/cGTPuv8UV0IoKLac9SNAAIIIIAAAggggAACCCCAAAIIIIAAAhklEJWAwgVQs2fPjvH/6KOP7DOgbt68aWpqauyN9FOnTnn7NDU12Sn43AioY8eO2X38QZbCJU21t3z5cu8ZUGfOnLFtuP1XrlzptRmlD1Hp3yiZ9lWtJSUlJjc396lwaPjw4Wbjxo2mtra2R6XoOB2vduKDJ51P543yQgAV5d6jdgQQQAABBBBAAAEEEEAAAQQQQAABBBDIGIGoBBT+qfF0g1yjlTRtmOqfPHmyHd3kRkMtXrzYTh1WVVVlRo8ebfcZM2aMHRHV0tJib7xrGr5vvvnGPidq5syZdh+NmtJ5FEa5affa29vNxIkTve1R6/io9G/UXPuqXo3imzZtmv39xYdF+q4QSaP1SktLTWVlpQ2l3DOj9K6wSeu1XfslCp1cuzqPGzXYV9eXivMQQKVClTYRQAABBBBAAAEEEEAAAQQQQAABBBBAAIFuCkQloHAjoJYsWWIDInfTfNy4caa+vt676nXr1sXcrNf3rVu32nWLFi2y+ym8csGU2snJyTFlZWV2mzuPC6C0UlP7KbDSVGUKsKK0RKV/o2SajloVpiaals/9HfTmXe2q/UxZCKAypSe5DgQQQAABBBBAAAEEEEAAAQQQQAABBBCItEBUAgo3MklT47W2ttqRS7dv305or4DpypUr5uHDh952PfNJbfgXjQ5RG1ELlfzXkOxzVPo32XWw/T8CGqG0du1aM3LkyJigtbsBlI5XO5kw4in+t0EAFS/CdwQQQAABBBBAAAEEEEAAAQQQQAABBBBAIA0CUQkoEo1MSgNX5E4Zlf6NHGwIClZ4tHfvXjN//nwzduxYM3jwYPvMqGeffdaGU3rXM520Xtu1n/bPxNDJ3x0EUH4NPiOAAAIIIIAAAggggAACCCCAAAIIIIAAAmkSiEpA0dTUZKfBKy8vT5NUNE8blf6Npi5Vh1GAACqMvUJNCCCAAAIIIIAAAggggAACCCCAAAIIIJB1AlEKKH744QfT2NiYdX3UmwuOUv/25jo5FgEnQADlJHhHAAEEEEAAAQQQQAABBBBAAAEEEEAAAQTSKNCvXz9TX1+fxgo4daoE1K/qXxYEskmAACqbeptrRQABBBBAAAEEEEAAAQQQQAABBBBAAIHQCgwZMsRUVlaGtj4K67mA+lX9y4JANgkQQGVTb3OtCCCAAAIIIIAAAggggAACCCCAAAIIIBBagUmTJpkNGzaEtj4K67mA+lX9y4JANgkQQGVTb3OtCCCAAAIIIIAAAggggAACCCCAAAIIIBBagdLSUlNYWBja+iis5wLqV/UvCwLZJEAAlU29zbUigAACCCCAAAIIIIAAAggggAACCCCAQGgF2tvbTW5urjl37lxoa6Sw7guoP9Wv6l8WBLJJgAAqm3qba0UAAQQQQAABBBBAAAEEEEAAAQQQQACBUAssXrzYjB8/PtQ1Ulz3BNSf6lcWBLJNgAAq23qc60UAAQQQQAABBBBAAAEEEEAAAQQQQACBUAu8+OKL5sMPPwx1jRTXNQH1o/qTBYFsFCCAysZe55oRQAABBBBAAAEEEEAAAQQQQAABBBBAILQClZWV5oUXXjBlZWWhrZHCkguo/9SP6k+WaAo0Nzeb2tpapk/0dd+uXbtMUVGRaWtr861N/JEAKrELaxFAAAEEEEAAAQQQQAABBBBAAAEEEEAAgbQJHD582IYXjIRKWxf06sSbNm2y/ad+ZImuwPbt201OTo6pq6uL7kUEXLkCqFGjRhFABexKcwgggAACCCCAAAIIIIAAAggggAACCCCAQJ8JaOSMpm/TM4TOnTvXZ+flRD0XUD+pv9RvjHzquWNYjty3b5/Jy8szjx49CktJaa+DACrtXUABCCCAAAIIIIAAAggggAACCCCAAAIIIIBAMAKLFy82ubm5prCw0GzYsMEGG/X19cE0Tiu9ElA/KGhSv6h/1E/qL5bOBX788Uczffp088wzz9gRRvPmzTNXr16NOejWrVtm0qRJ3j7vv/++aWho8PZJtv3x48dm7dq1NkBSiLRq1aqY4//2t78ZjVA7cuSI3Ue1LF261DQ1NdlzHDt2zOTn59vzv/7666ampsau12go1aI2dYxqPHXqlFfX8ePHzZo1a8yNGzfMjBkz7D5Dhw59KpDsbf3eCf/74fr16+bdd98133//vZk1a5Y978svvxxTm3ZNVr/26ay2+ACqvb3dOr/99ttGNfgXpuDza/AZAQQQQAABBBBAAAEEEEAAAQQQQAABBBAIoYBu8paWltqb3UOGDDH9+vWzN5h1A5xX+gzUD+oPhRDqH/UTS+cCd+/etb9ZBTgKMzZv3mzDHIU9euaSFgUZ2q7Xtm3bzMKFC+0xkydPtsbJtmvE0rBhw+wxCpXWrVtnP+scjY2N9hz+cEvnWLlypd1nxIgRpqWlxShIcgHUlClTjEIzPfdI08/pb27jxo22z913BT9adE3ub7K4uNgLwbTu4sWLdp8g6rcN+f65cOGCd16Fe3v27DEFBQV23ddff2337Er9yWrzB1D6vU+dOtWeI9F0kwRQvg7iIwIIIIAAAggggAACCCCAAAIIIIAAAggggAACCKRO4IsvvrCBxc2bN72TaOpCBTTV1dV23dy5c+3IKIUqblHg457HlGz7li1b7L4KjdzizvHxxx/bVRqdpPbOnj3rdrFhl+rQqCgt8VPwaWSQf7v20YgpBWUKILV8+umndh8Fa27RCCkdV1FRYVcFUb9r2727AGrmzJne85k0Ykwh1PDhw22o1pX6k9WmAKqoqMi0trZ64dPRo0ddGTHvBFAxHHxBAAEEEEAAAQQQQAABBBBAAAEEEEAAAQQQQACBVAkouND0eHrV1tbaKeM0pZ0LaDR6adCgQXY6OX8NGh2lIEfTHna2/cmTJ2bixIk2dNG+9+/ft68HDx7YaRInTJhgAxqN3NFn/6g11aS2P/jgA3tqhS0KlzRtnVtc7Wr3p59+8gKn9evXd3iMQiqNplIAlez6ulq/q8e9uwDqu+++c6sS1tNZ/clq+/XXX+0IL40ucyOfNNKqo4UAqiMZ1iOAAAIIIIAAAggggAACCCCAAAIIIIAAAggggECgApoCT6NsFDjFvxTQuBDIP4LIX0Cy7S5EiW/bfdcUewrBNAWfpubzL67tjsIkhVWqy7Xlf+/oGLXv2u3K9XW1fn/d+qwASmGZ/zlZWu8P0ZLV7+rsyF7tuRFe7trlKM9ECwFUIhXWIYAAAggggAACCCCAAAIIIIAAAggggAACCCCAQOAC8+bNs1PflZWVmRs3btjnPl26dOmpEVBuFJIrQCODrly5Yh4+fBgzSil+uwIcjdAZN26cuXPnjrl9+7Z9abSVXvfu3bOHKDhZsWKFO9y+uwDGBVP+8EY7/POf/7R1rl692qhmjbDSMZrmrqNjdJz2iR8B1dH1dbX+mML/G0BpSkFds3/xX0Oy+l341VFteoaU2tN5NNJq79691qOjUVAEUP6e4DMCCCCAAAIIIIAAAggggAACCCCAAAIIIIAAAgikTEBTt2kUkn/qux07dtgg48yZM/ZZRXpmkRup5ArZvn27DT4UsHS2XdPl6flOAwcOtG254xUCKZjatGmTXaV9FAop2HLL6dOnbR3uGVAuvFEwo2Xnzp12lJGm1HNLTU2NPcaNGnLHxE/b5wKolpaWQOp353fvbgo+hUJukfEbb7xhLXXeZPV3pTZd36hRo2z/aX991sir+OBLNRBAuZ7gHQEEEEAAAQQQQAABBBBAAAEEEEAAAQQQQAABBFIqoOBHgcW3335rRyS58ElTuu3fv9+e243UWbBggbl165ZRIKTtkydPtsFHsu16VpT217muXbtmLl68aI/VuurqansObdP36dOnm5s3b9rnMykk0kvTBGrZt2+f3UejtbRO7zpGIczdu3fNV199Za9F6xYuXGjcM5ISPTfKBVBqN4j6bYG+f1wApVr+9a9/2VFf7733nq23pKTE7tmV+pPV5gIojYbScvbsWXsOefpDRW0jgLJE/IMAAggggAACCCCAAAIIIIAAAggggAACCCCAAAKpFrh+/boNeRSU6NW/f3/z5Zdf2mnsNLXb/fv3bQmlpaV2u9tPU+ZpOj23JNt++PDhmOPVts7jFrX39ttvm+LiYm8/BUca0eQWhV9apxrKy8vtVHoTJkzw9tf6AwcOmFmzZnn7KOTRNcWPgBo0aJANuVzbva3ftePeFUDpGt9///2Y+pYsWWJcWKRRYMnqV3ud1aYAqqioyGtT+y9dutSe8+uvv3bl2HcCqBgOviCAAAIIIIAAAggggAACCCCAAAIIIIAAAggggEAqBTR1m57n5A+UNBXegwcPYk7b0NBgnxPlntsUs9EYk2x7c3OzPV7n0Tn9iwKoDz/80K76+eef7X7xI3i0sbW11bgp+Nzxbn9/mwqcEh3vjkn03pv649tTAKWwTLXqOVmXL19+ytMd05X6k9Xm2ursnQCqMx22IYAAAggggAACCCCAAAIIIIAAAggggAACCCCAQMYJKIBat25dxlyXC6D8I6/SfXEEUOnuAc6PAAIIIIAAAggggAACCCCAAAIIIIAAAggggAACfSpQWFholi9f3qfnTOXJzp8/b6fBI4BKpTJtI4AAAggggAACCCCAAAIIIIAAAggggAACCCCAAAKdCFy9etXoGU+Zsmjqve+///6pqQbTeX2MgEqnPudGAAEEEEAAAQQQQAABBBBAAAEEEEAAAQQQQAABBDJQgAAqAzuVS0IAAQQQQAABBBBAAAEEEEAAAQQQQAABBBBAAAEE0ilAAJVOfc6NAAIIIIAAAggggAACCCCAAAIIIIAAAggggAACCGSgAAFUBnYql4QAAggggAACCCCAAAIIIIAAAggggAACCCCAAALREmhubja1tbWmvb09WoV3UC0BVAcwrEYAAQQQQAABBBBAAAEEEEAAAQQQQAABBBBAAAEE+kpg+/btJicnx9TV1fXVKVN6HgKolPLSOAIIIIAAAggggAACCCCAAAIIIIAAAggggAACCCCQXGDfvn0mLy/PPHr0KPnOEdiDACoCnUSJCCCAAAIIIIAAAggggAACCCCAAAIIIIAAAgggkD6BQ4cOmfz8fPPMM8+YoUOHmmPHjsUU8/jxY7N27VobIClEWrVqlWloaPD22bx5szl8+LD57rvvTFFRkW1n/Pjx5t69e3Yftefaf/31101NTY13bFQ/EEBFteeoGwEEEEAAAQQQQAABBBBAAAEEEEAAAQQQQAABBFIucPDgQRsYzZ071+zfv99MnDjRfj9w4IA9t0YsDRs2zK5bunSpWbdunf2sQKmxsdHuM2nSJLtOAdacOXPM4sWL7feBAwcaPfvp+PHjXgA1ZcoU8+OPP6b8ulJ9AgKoVAvTPgIIIIAAAggggAACCCCAAAIIIIAAAggggAACCERWYOrUqXbUUnt7u70GvRcXF9sQSSu2bNlin93kD43OnTtnA6aPP/7YHjNjxgz7vaKiwnNYv369HTHlnvnEFHweDR8QQAABBBBAAAEEEEAAAQQQQAABBBBAAAEEEEAAgcwWmDVrlg2Pli1bZs6fP29HLLkrVhilEVHDhw839fX15v79+/b14MEDU1hYaCZMmGDa2tqMAihNvafPbjl79mxMALVr166Y726/qL4zAiqqPUfdCCCAAAIIIIAAAggggAACCCCAAAIIIIAAAgggkHIBjVDStHiaPs+9FCjduHHDaPq9QYMGeevddvc+YsQI09ramjCAunDhQkzgRACV8q7kBAgggAACCCCAAAIIIIAAAggggAACCCCAAAIIIIBAuAQaGhrMqVOnjJ7zpIBJ4dLDhw/t85/GjRtn7ty5Y27fvm1ftbW1Rq979+7Zi0g0AooAKlz9SzUIIIAAAggggAACCCCAAAIIIIAAAggggAACCCCAQJ8IPH782AZMJSUlMefbvn27N3pJ4dLAgQNNS0uLt487btOmTXZddwIojarKhIUp+DKhF7kGBBBAAAEEEEAAAQQQQAABBBBAAAEEEEAAAQQQSImAwqO8vDxTXl5umpqaTHV1tQ2l9HwnPQNKo6I0Ikr7Xbt2zVy8eNFMnjzZrtO+WroSQO3bt88eU1ZWZhobG1NyLX3ZKAFUX2pzLgQQQAABBBBAAAEEEEAAAQQQQAABBBBAAAEEEIiUgEKlgoICGw65ZzsNGzbMaAo9txw+fDhme05Ojvnyyy/dZhtAKbBqa2vz1sVPwXfr1i0bdOkcCruivhBARb0HqR8BBBBAAAEEEEAAAQQQQAABBBBAAAEEEEAAAQRSLqAg6vLly/aV6GTNzc3mxo0b9hlQ/un4Eu3b0brW1lbDFHwd6bAeAQQQQAABBBBAAAEEEEAAAQQQQAABBBBAAAEEEEAgqwUYAZXV3c/FI4AAAggggAACCCCAAAIIIIAAAggggAACCCCAAALBCxBABW9KiwgggAACCCCAAAIIIIAAAggggAACCCCAAAIIIIBAVgsQQGV193PxCCCAAAIIIIAAAggggAACCCCAAAIIIIAAAggggEDwAgRQwZvSIgIIIIAAAggggAACCCCAAAIIIIAAAggggAACCCCQ1QIEUFnd/Vw8AggggAACCCCAAAIIIIAAAggggAACCCCAAAIIIBC8wP8DHX6HVlcOd1IAAAAASUVORK5CYII=;" vertex="1" parent="-JuDWj_RR_wtEPsLmdcU-1">
          <mxGeometry x="10" y="10" width="1696" height="456" as="geometry" />
        </mxCell>
      </root>
    </mxGraphModel>
  </diagram>
</mxfile>
